<svg xmlns="http://www.w3.org/2000/svg" width="82.217" height="78.436" viewBox="0 0 82.217 78.436">
  <g id="User_illustration" data-name="User illustration" transform="translate(0.217 0.217)">
    <g id="Floor" transform="translate(0.61 76.623)">
      <line id="Line_224" data-name="Line 224" x2="81.39" fill="none" stroke="#263238" stroke-width="0.361"/>
    </g>
    <g id="Device" transform="translate(18.874 0.575)">
      <g id="Group_6801" data-name="Group 6801" transform="translate(0 0)">
        <path id="Path_2788" data-name="Path 2788" d="M73.183,5.638V70.463a3.211,3.211,0,0,1-3.2,3.222h-27.8a3.211,3.211,0,0,1-3.2-3.222V5.636a3.208,3.208,0,0,1,3.2-3.22H54.116l.009.038c.3,1.079.981,1.779,1.741,1.779H56.3c.76,0,1.443-.7,1.741-1.779l.011-.038H69.984a3.211,3.211,0,0,1,3.2,3.222Z" transform="translate(-37.397 -1.257)" fill="#fff" stroke="#263238" stroke-width="0.361"/>
        <g id="Group_6793" data-name="Group 6793" transform="translate(13.029 14.257)">
          <path id="Path_2789" data-name="Path 2789" d="M67.682,27.447l-5.216,3.8H72.9Z" transform="translate(-61.732 -27.447)" fill="#083273"/>
          <rect id="Rectangle_3585" data-name="Rectangle 3585" width="10.64" height="0.747" transform="translate(0.631 4.205)" fill="#083273"/>
          <path id="Path_2790" data-name="Path 2790" d="M72.908,43.187h-.389V37.837H71.273v5.351H69.656V37.837H68.412v5.351H66.793V37.837H65.55v5.351H63.932V37.837H62.687v5.351h-.419v.747h10.64Z" transform="translate(-61.637 -32.45)" fill="#083273"/>
          <rect id="Rectangle_3586" data-name="Rectangle 3586" width="11.9" height="1.05" transform="translate(0 11.891)" fill="#083273"/>
        </g>
        <g id="Group_6794" data-name="Group 6794" transform="translate(7.981 35.997)">
          <rect id="Rectangle_3587" data-name="Rectangle 3587" width="21.551" height="3.655" fill="#fff" stroke="#263238" stroke-linecap="round" stroke-linejoin="round" stroke-width="0.361"/>
          <rect id="Rectangle_3588" data-name="Rectangle 3588" width="21.551" height="3.655" transform="translate(0 6.806)" fill="#fff" stroke="#263238" stroke-linecap="round" stroke-linejoin="round" stroke-width="0.361"/>
          <rect id="Rectangle_3589" data-name="Rectangle 3589" width="11.73" height="3.655" rx="1.748" transform="translate(5.134 14.257)" fill="#083273" stroke="#083273" stroke-linecap="round" stroke-linejoin="round" stroke-width="0.361"/>
        </g>
        <g id="Group_6795" data-name="Group 6795" transform="translate(1.591 1.159)">
          <path id="Path_2791" data-name="Path 2791" d="M73.185,8.608V5.614a3.2,3.2,0,0,0-3.2-3.2H58.059l-.011.037c-.3,1.071-.983,1.766-1.741,1.766H55.87c-.76,0-1.443-.7-1.741-1.766l-.009-.037H42.188a3.2,3.2,0,0,0-3.2,3.2v3Z" transform="translate(-38.99 -2.416)" fill="#dbdbdb" stroke="#263238" stroke-linecap="round" stroke-linejoin="round" stroke-width="0.361"/>
          <path id="Path_2792" data-name="Path 2792" d="M38.989,131.711v.5a3.2,3.2,0,0,0,3.2,3.2h27.8a3.2,3.2,0,0,0,3.2-3.2v-.5Z" transform="translate(-38.989 -64.144)" fill="#dbdbdb" stroke="#263238" stroke-linecap="round" stroke-linejoin="round" stroke-width="0.361"/>
        </g>
        <g id="Group_6800" data-name="Group 6800">
          <path id="Path_2793" data-name="Path 2793" d="M73.879,20.043V13.572H73.3V5.287A5.088,5.088,0,0,0,68.228.181H40.989a5.088,5.088,0,0,0-5.07,5.106V71.123a5.088,5.088,0,0,0,5.07,5.106H68.226a5.088,5.088,0,0,0,5.07-5.106V25.56h.58V21.736H73.3V20.045h.58ZM71.7,67.472a5.09,5.09,0,0,1-5.072,5.108H42.582a5.09,5.09,0,0,1-5.072-5.108V6.454a5.09,5.09,0,0,1,5.072-5.106H52.638l.009.038c.3,1.079.981,1.778,1.741,1.778h.436c.76,0,1.443-.7,1.741-1.778l.011-.038H66.631A5.09,5.09,0,0,1,71.7,6.454V67.474Z" transform="translate(-35.919 -0.181)" fill="#083273" stroke="#263238" stroke-linecap="round" stroke-linejoin="round" stroke-width="0.361"/>
          <path id="Path_2794" data-name="Path 2794" d="M68.364,1.528H41.94a4.907,4.907,0,0,0-4.89,4.926v64.8a4.907,4.907,0,0,0,4.89,4.926H68.364a4.907,4.907,0,0,0,4.89-4.926V6.453A4.907,4.907,0,0,0,68.364,1.528Zm3.885,66.78a4.908,4.908,0,0,1-4.89,4.926H42.947a4.908,4.908,0,0,1-4.89-4.926V6.917a4.906,4.906,0,0,1,4.888-4.924H53.182l.009.038c.3,1.079.981,1.778,1.741,1.778h.436c.76,0,1.443-.7,1.741-1.778l.011-.038H67.357a4.908,4.908,0,0,1,4.89,4.926V68.308Z" transform="translate(-36.463 -0.829)" fill="#083273" stroke="#263238" stroke-linecap="round" stroke-linejoin="round" stroke-width="0.361"/>
          <path id="Path_2795" data-name="Path 2795" d="M71.8,2.444a.476.476,0,1,0-.476.476A.476.476,0,0,0,71.8,2.444Z" transform="translate(-52.74 -1.041)" fill="#fff"/>
          <g id="Group_6799" data-name="Group 6799" transform="translate(3.913 2.627)">
            <g id="Group_6796" data-name="Group 6796" transform="translate(0 0.195)">
              <path id="Path_2796" data-name="Path 2796" d="M44.186,6.031c0,.481-.541.655-.543,1.022v.024h.524V7.24h-.7V7.1c0-.517.541-.616.541-1.065,0-.165-.054-.251-.187-.251s-.187.094-.187.236v.142h-.167V6.036c0-.243.112-.406.358-.406s.361.159.361.4Z" transform="translate(-43.467 -5.626)" fill="#263238"/>
              <path id="Path_2797" data-name="Path 2797" d="M45.872,6.025v.041a.318.318,0,0,1-.195.33.318.318,0,0,1,.195.331v.124c0,.243-.114.4-.361.4s-.358-.159-.358-.4v-.11h.167v.122c0,.144.06.23.187.23s.187-.084.187-.247V6.722c0-.157-.066-.232-.2-.238h-.1V6.325h.1a.191.191,0,0,0,.191-.219V6.033c0-.165-.058-.249-.187-.249s-.187.088-.187.232V6.1h-.167V6.025c0-.243.114-.4.358-.4s.361.157.361.4Z" transform="translate(-44.279 -5.623)" fill="#263238"/>
              <path id="Path_2798" data-name="Path 2798" d="M47.046,6.634v.221h-.17V6.634Zm0,.869v.221h-.17V7.5Z" transform="translate(-45.109 -6.11)" fill="#263238"/>
              <path id="Path_2799" data-name="Path 2799" d="M47.729,6.3a.258.258,0,0,1,.238-.133c.206,0,.3.15.3.378v.313c0,.243-.116.4-.361.4s-.358-.159-.358-.4V6.755h.167v.118c0,.144.06.23.187.23s.187-.086.187-.23V6.562c0-.144-.06-.23-.187-.23a.171.171,0,0,0-.18.17v.037h-.167l.043-.887h.629v.159h-.47l-.024.491Z" transform="translate(-45.43 -5.637)" fill="#263238"/>
              <path id="Path_2800" data-name="Path 2800" d="M49.968,6.025v.03H49.8V6.014c0-.144-.06-.228-.189-.228s-.195.086-.195.258V6.4a.257.257,0,0,1,.258-.17c.206,0,.3.148.3.378v.242c0,.243-.122.4-.365.4s-.367-.159-.367-.4V6.037c0-.253.114-.41.367-.41s.361.155.361.4Zm-.55.6v.24c0,.144.06.23.189.23s.189-.086.189-.23v-.24c0-.144-.062-.23-.189-.23S49.417,6.478,49.417,6.623Z" transform="translate(-46.248 -5.625)" fill="#263238"/>
            </g>
            <g id="Group_6798" data-name="Group 6798" transform="translate(20.713)">
              <rect id="Rectangle_3590" data-name="Rectangle 3590" width="0.451" height="1.127" transform="translate(0 0.665)" fill="#263238"/>
              <rect id="Rectangle_3591" data-name="Rectangle 3591" width="0.451" height="1.354" transform="translate(0.601 0.44)" fill="#263238"/>
              <rect id="Rectangle_3592" data-name="Rectangle 3592" width="0.451" height="1.515" transform="translate(1.202 0.279)" fill="#263238"/>
              <rect id="Rectangle_3593" data-name="Rectangle 3593" width="0.451" height="1.794" transform="translate(1.805)" fill="#263238"/>
              <g id="Group_6797" data-name="Group 6797" transform="translate(5.13 0.109)">
                <path id="Path_2801" data-name="Path 2801" d="M96.022,7.11H93.315V5.457h2.707V7.112Zm-2.556-.15h2.406V5.607H93.467Z" transform="translate(-93.315 -5.457)" fill="#263238"/>
                <rect id="Rectangle_3594" data-name="Rectangle 3594" width="1.429" height="1.026" transform="translate(0.376 0.313)" fill="#263238"/>
                <rect id="Rectangle_3595" data-name="Rectangle 3595" width="0.341" height="0.389" transform="translate(2.614 0.631)" fill="#263238"/>
              </g>
              <path id="Path_2802" data-name="Path 2802" d="M90.337,7.609a.094.094,0,0,1-.052-.015.789.789,0,0,0-.931-.011.1.1,0,0,1-.142-.009.1.1,0,0,1,.009-.142.982.982,0,0,1,1.166-.011.1.1,0,0,1,.036.139.1.1,0,0,1-.086.049Z" transform="translate(-86.197 -6.207)" fill="#263238"/>
              <path id="Path_2803" data-name="Path 2803" d="M90.348,6.9a.094.094,0,0,1-.052-.015,1.142,1.142,0,0,0-1.337-.011.1.1,0,0,1-.133-.152A1.344,1.344,0,0,1,90.4,6.709a.1.1,0,0,1,.036.139.1.1,0,0,1-.086.049Z" transform="translate(-86.006 -5.835)" fill="#263238"/>
              <path id="Path_2804" data-name="Path 2804" d="M90.362,6.082a.094.094,0,0,1-.052-.015A1.444,1.444,0,0,0,88.6,6.056a.1.1,0,0,1-.142-.009.1.1,0,0,1,.009-.142,1.66,1.66,0,0,1,1.943-.011.1.1,0,0,1,.036.139.1.1,0,0,1-.086.049Z" transform="translate(-85.835 -5.414)" fill="#263238"/>
              <path id="Path_2805" data-name="Path 2805" d="M90.346,8.043a.253.253,0,1,1-.253-.253A.253.253,0,0,1,90.346,8.043Z" transform="translate(-86.512 -6.472)" fill="#263238"/>
            </g>
          </g>
        </g>
      </g>
    </g>
    <g id="Money" transform="translate(0 0)">
      <g id="Group_6802" data-name="Group 6802" transform="translate(0 9.567)">
        <path id="Path_2806" data-name="Path 2806" d="M11.085,31.786v-.693A1.479,1.479,0,0,1,9.937,30.6a2.265,2.265,0,0,1-.41-1.38l1.05-.18a2.992,2.992,0,0,0,.079.623.768.768,0,0,0,.191.373.451.451,0,0,0,.328.124.333.333,0,0,0,.316-.15.665.665,0,0,0,.086-.343,1.094,1.094,0,0,0-.176-.637,2.639,2.639,0,0,0-.481-.519l-.633-.545a4.361,4.361,0,0,1-.388-.41,1.658,1.658,0,0,1-.271-.477,1.8,1.8,0,0,1-.1-.633,1.457,1.457,0,0,1,.4-1.092,1.659,1.659,0,0,1,1.069-.444v-.663h.358v.663a1.376,1.376,0,0,1,.659.183,1.1,1.1,0,0,1,.391.4,1.906,1.906,0,0,1,.195.53,3.989,3.989,0,0,1,.075.556l-1.065.157a3.572,3.572,0,0,0-.045-.489.693.693,0,0,0-.135-.331.352.352,0,0,0-.3-.112.378.378,0,0,0-.316.165.6.6,0,0,0-.109.35.866.866,0,0,0,.165.552,3.542,3.542,0,0,0,.373.4l.618.537a4.127,4.127,0,0,1,.455.485,2.278,2.278,0,0,1,.335.579,1.949,1.949,0,0,1,.127.726,1.569,1.569,0,0,1-.161.719,1.333,1.333,0,0,1-.462.526,1.5,1.5,0,0,1-.711.238v.7h-.358Z" transform="translate(-3.978 -20.764)" fill="none" stroke="#263238" stroke-linecap="round" stroke-linejoin="round" stroke-width="0.361"/>
        <circle id="Ellipse_556" data-name="Ellipse 556" cx="5.978" cy="5.978" r="5.978" transform="translate(0 2.746) rotate(-13.28)" fill="none" stroke="#263238" stroke-linecap="round" stroke-linejoin="round" stroke-width="0.361"/>
        <circle id="Ellipse_557" data-name="Ellipse 557" cx="4.913" cy="4.913" r="4.913" transform="matrix(0.773, -0.634, 0.634, 0.773, 0.28, 6.507)" fill="none" stroke="#263238" stroke-linecap="round" stroke-linejoin="round" stroke-width="0.361"/>
      </g>
      <g id="Group_6803" data-name="Group 6803" transform="translate(7.074)">
        <path id="Path_2807" data-name="Path 2807" d="M20.381,8.271V7.824a.956.956,0,0,1-.741-.318,1.46,1.46,0,0,1-.264-.889l.678-.116a1.858,1.858,0,0,0,.051.4.491.491,0,0,0,.124.24.293.293,0,0,0,.212.079.216.216,0,0,0,.2-.1A.431.431,0,0,0,20.7,6.9a.724.724,0,0,0-.112-.412,1.632,1.632,0,0,0-.311-.333l-.408-.35a2.739,2.739,0,0,1-.251-.264,1.1,1.1,0,0,1-.176-.307,1.159,1.159,0,0,1-.066-.408.945.945,0,0,1,.256-.7,1.066,1.066,0,0,1,.691-.286V3.409h.23v.429a.883.883,0,0,1,.425.118.715.715,0,0,1,.253.26,1.216,1.216,0,0,1,.125.341,2.513,2.513,0,0,1,.049.358l-.687.1a2.452,2.452,0,0,0-.028-.315.468.468,0,0,0-.086-.213.229.229,0,0,0-.193-.073.246.246,0,0,0-.2.107.386.386,0,0,0-.069.227.555.555,0,0,0,.107.356,2.376,2.376,0,0,0,.24.26l.4.346a2.582,2.582,0,0,1,.294.313,1.506,1.506,0,0,1,.217.373,1.257,1.257,0,0,1,.082.468,1.014,1.014,0,0,1-.1.464.867.867,0,0,1-.3.339.962.962,0,0,1-.459.154v.451h-.23Z" transform="translate(-15.794 -1.161)" fill="none" stroke="#263238" stroke-linecap="round" stroke-linejoin="round" stroke-width="0.361"/>
        <circle id="Ellipse_558" data-name="Ellipse 558" cx="3.857" cy="3.857" r="3.857" transform="translate(0 1.772) rotate(-13.28)" fill="none" stroke="#263238" stroke-linecap="round" stroke-linejoin="round" stroke-width="0.361"/>
        <circle id="Ellipse_559" data-name="Ellipse 559" cx="3.17" cy="3.17" r="3.17" transform="translate(0.827 2.283) rotate(-13.28)" fill="none" stroke="#263238" stroke-linecap="round" stroke-linejoin="round" stroke-width="0.361"/>
      </g>
      <g id="Group_6804" data-name="Group 6804" transform="translate(73.006 60.039)">
        <path id="Path_2808" data-name="Path 2808" d="M147.653,121.536v-.447a.956.956,0,0,1-.741-.318,1.46,1.46,0,0,1-.264-.889l.678-.116a1.859,1.859,0,0,0,.051.4.491.491,0,0,0,.124.24.293.293,0,0,0,.212.079.216.216,0,0,0,.2-.1.431.431,0,0,0,.056-.221.724.724,0,0,0-.112-.412,1.632,1.632,0,0,0-.311-.333l-.408-.35a2.736,2.736,0,0,1-.251-.264,1.1,1.1,0,0,1-.176-.307,1.166,1.166,0,0,1-.066-.408.945.945,0,0,1,.257-.7,1.066,1.066,0,0,1,.691-.286v-.429h.23v.429a.883.883,0,0,1,.425.118.714.714,0,0,1,.253.26,1.216,1.216,0,0,1,.125.341,2.517,2.517,0,0,1,.049.358l-.687.1a2.45,2.45,0,0,0-.028-.315.468.468,0,0,0-.086-.213.227.227,0,0,0-.193-.073.246.246,0,0,0-.2.107.386.386,0,0,0-.069.227.555.555,0,0,0,.107.356,2.376,2.376,0,0,0,.24.26l.4.346a2.581,2.581,0,0,1,.294.313,1.507,1.507,0,0,1,.217.373,1.258,1.258,0,0,1,.082.468,1.014,1.014,0,0,1-.1.464.867.867,0,0,1-.3.339.962.962,0,0,1-.459.154v.451h-.23Z" transform="translate(-143.853 -115.208)" fill="none" stroke="#263238" stroke-linecap="round" stroke-linejoin="round" stroke-width="0.361"/>
        <circle id="Ellipse_560" data-name="Ellipse 560" cx="3.857" cy="3.857" r="3.857" fill="none" stroke="#263238" stroke-linecap="round" stroke-linejoin="round" stroke-width="0.361"/>
        <circle id="Ellipse_561" data-name="Ellipse 561" cx="3.17" cy="3.17" r="3.17" transform="matrix(0.973, -0.231, 0.231, 0.973, 0.038, 1.509)" fill="none" stroke="#263238" stroke-linecap="round" stroke-linejoin="round" stroke-width="0.361"/>
      </g>
    </g>
    <g id="Text" transform="translate(31.26 30.787)">
      <g id="Group_6807" data-name="Group 6807" transform="translate(2.299 6.862)">
        <g id="Group_6805" data-name="Group 6805" transform="translate(0.144)">
          <path id="Path_2809" data-name="Path 2809" d="M65,72.777a.441.441,0,0,1-.27-.069.352.352,0,0,1-.127-.2,1.159,1.159,0,0,1-.034-.3V71.145h.215v1.082a1.427,1.427,0,0,0,.013.189.251.251,0,0,0,.062.137A.184.184,0,0,0,65,72.6a.189.189,0,0,0,.142-.051.263.263,0,0,0,.06-.137,1.184,1.184,0,0,0,.013-.189V71.145h.213v1.071a1.159,1.159,0,0,1-.034.3.352.352,0,0,1-.127.2.439.439,0,0,1-.268.069Z" transform="translate(-64.565 -71.13)" fill="#ccc"/>
          <path id="Path_2810" data-name="Path 2810" d="M67.016,72.763a.423.423,0,0,1-.232-.06.378.378,0,0,1-.14-.165.7.7,0,0,1-.056-.245l.2-.054a.917.917,0,0,0,.026.165.294.294,0,0,0,.069.131.175.175,0,0,0,.133.051.178.178,0,0,0,.133-.049.2.2,0,0,0,.045-.14.281.281,0,0,0-.051-.176.916.916,0,0,0-.125-.135l-.271-.24a.427.427,0,0,1-.155-.358.366.366,0,0,1,.1-.275.382.382,0,0,1,.277-.1.515.515,0,0,1,.169.024.3.3,0,0,1,.122.077.407.407,0,0,1,.079.131.8.8,0,0,1,.039.185l-.191.052a.679.679,0,0,0-.024-.146.218.218,0,0,0-.064-.109.218.218,0,0,0-.26,0,.175.175,0,0,0-.047.133.261.261,0,0,0,.024.122.363.363,0,0,0,.081.1l.273.24a.807.807,0,0,1,.161.191.476.476,0,0,1,.069.262.4.4,0,0,1-.051.206.333.333,0,0,1-.137.133.433.433,0,0,1-.2.047Z" transform="translate(-65.539 -71.116)" fill="#ccc"/>
          <path id="Path_2811" data-name="Path 2811" d="M68.5,72.76V71.145h.627v.168h-.4v.535h.326v.159h-.326V72.6h.4v.161H68.5Z" transform="translate(-66.46 -71.13)" fill="#ccc"/>
          <path id="Path_2812" data-name="Path 2812" d="M70.068,72.76V71.145h.326a.728.728,0,0,1,.268.043.294.294,0,0,1,.157.139.53.53,0,0,1,.051.249.685.685,0,0,1-.021.17.348.348,0,0,1-.064.129.24.24,0,0,1-.116.077l.23.811h-.217L70.471,72h-.176v.758H70.07Zm.225-.919h.086a.4.4,0,0,0,.155-.024.165.165,0,0,0,.088-.082.377.377,0,0,0,.028-.161.314.314,0,0,0-.052-.2.265.265,0,0,0-.206-.064h-.1Z" transform="translate(-67.215 -71.13)" fill="#ccc"/>
          <path id="Path_2813" data-name="Path 2813" d="M72.065,72.76V71.145h.154l.459,1.075V71.145h.187V72.76h-.144l-.464-1.1v1.1Z" transform="translate(-68.177 -71.13)" fill="#ccc"/>
          <path id="Path_2814" data-name="Path 2814" d="M73.927,72.76l.343-1.616h.217l.344,1.616h-.213l-.073-.406h-.33l-.079.406h-.212Zm.32-.569h.27l-.135-.728-.133.728Z" transform="translate(-69.073 -71.13)" fill="#ccc"/>
          <path id="Path_2815" data-name="Path 2815" d="M75.982,72.76l.03-1.616h.221l.285,1.311.288-1.311h.219l.03,1.616h-.182l-.019-1.174-.273,1.174h-.127l-.271-1.174-.019,1.174H75.98Z" transform="translate(-70.062 -71.13)" fill="#ccc"/>
          <path id="Path_2816" data-name="Path 2816" d="M78.534,72.76V71.145h.627v.168h-.4v.535h.326v.159H78.76V72.6h.4v.161h-.631Z" transform="translate(-71.292 -71.13)" fill="#ccc"/>
        </g>
        <g id="Group_6806" data-name="Group 6806" transform="translate(0 6.686)">
          <path id="Path_2817" data-name="Path 2817" d="M64.287,85.658V84.041h.4a.44.44,0,0,1,.232.052.314.314,0,0,1,.127.154.666.666,0,0,1,.039.242.506.506,0,0,1-.045.221.33.33,0,0,1-.133.144.431.431,0,0,1-.219.051h-.178v.753h-.225Zm.225-.914h.1a.422.422,0,0,0,.154-.022.147.147,0,0,0,.081-.077.421.421,0,0,0,.024-.155.719.719,0,0,0-.017-.178.128.128,0,0,0-.071-.086.42.42,0,0,0-.169-.024h-.107v.541Z" transform="translate(-64.287 -84.026)" fill="#ccc"/>
          <path id="Path_2818" data-name="Path 2818" d="M65.816,85.658l.343-1.618h.217l.344,1.618h-.213l-.073-.406H66.1l-.079.406h-.212Zm.32-.569h.27l-.135-.728-.133.728Z" transform="translate(-65.022 -84.026)" fill="#ccc"/>
          <path id="Path_2819" data-name="Path 2819" d="M68.218,85.667a.423.423,0,0,1-.232-.06.378.378,0,0,1-.14-.165.7.7,0,0,1-.056-.245l.2-.054a.918.918,0,0,0,.026.165.294.294,0,0,0,.069.131.175.175,0,0,0,.133.051.178.178,0,0,0,.133-.049.2.2,0,0,0,.045-.14.281.281,0,0,0-.051-.176.917.917,0,0,0-.125-.135l-.271-.24a.427.427,0,0,1-.155-.358.366.366,0,0,1,.1-.275.382.382,0,0,1,.277-.1.571.571,0,0,1,.168.024.3.3,0,0,1,.122.077.407.407,0,0,1,.079.131.8.8,0,0,1,.039.185l-.191.052a.7.7,0,0,0-.024-.146.218.218,0,0,0-.064-.109.191.191,0,0,0-.129-.041.183.183,0,0,0-.131.045.175.175,0,0,0-.047.133.261.261,0,0,0,.024.122.362.362,0,0,0,.081.1l.273.24a.806.806,0,0,1,.161.191.476.476,0,0,1,.069.262.4.4,0,0,1-.051.206.345.345,0,0,1-.137.133.432.432,0,0,1-.2.045Z" transform="translate(-65.974 -84.015)" fill="#ccc"/>
          <path id="Path_2820" data-name="Path 2820" d="M70.038,85.667a.423.423,0,0,1-.232-.06.378.378,0,0,1-.14-.165.7.7,0,0,1-.056-.245l.2-.054a.918.918,0,0,0,.026.165.294.294,0,0,0,.069.131.175.175,0,0,0,.133.051.178.178,0,0,0,.133-.049.2.2,0,0,0,.045-.14.281.281,0,0,0-.051-.176.917.917,0,0,0-.125-.135l-.271-.24a.427.427,0,0,1-.155-.358.366.366,0,0,1,.1-.275.382.382,0,0,1,.277-.1.571.571,0,0,1,.168.024.3.3,0,0,1,.122.077.407.407,0,0,1,.079.131.8.8,0,0,1,.039.185l-.191.052a.7.7,0,0,0-.024-.146.218.218,0,0,0-.064-.109.191.191,0,0,0-.129-.041.183.183,0,0,0-.131.045.175.175,0,0,0-.047.133.261.261,0,0,0,.024.122.363.363,0,0,0,.081.1l.273.24a.806.806,0,0,1,.161.191.476.476,0,0,1,.069.262.4.4,0,0,1-.051.206.345.345,0,0,1-.137.133.432.432,0,0,1-.2.045Z" transform="translate(-66.85 -84.015)" fill="#ccc"/>
          <path id="Path_2821" data-name="Path 2821" d="M71.683,85.657l-.264-1.618h.187L71.78,85.2,72,84.045h.159l.219,1.161.17-1.168h.183l-.26,1.618h-.163l-.225-1.2-.228,1.2h-.172Z" transform="translate(-67.721 -84.024)" fill="#ccc"/>
          <path id="Path_2822" data-name="Path 2822" d="M74.683,85.663a.473.473,0,0,1-.262-.064.349.349,0,0,1-.14-.183.834.834,0,0,1-.041-.279v-.612a.8.8,0,0,1,.043-.275.338.338,0,0,1,.14-.176.579.579,0,0,1,.52,0,.344.344,0,0,1,.139.176.79.79,0,0,1,.043.273v.614a.817.817,0,0,1-.043.275.371.371,0,0,1-.139.183.457.457,0,0,1-.26.066Zm0-.178a.21.21,0,0,0,.135-.037.192.192,0,0,0,.062-.1.653.653,0,0,0,.017-.157V84.48a.626.626,0,0,0-.017-.155.175.175,0,0,0-.062-.1.227.227,0,0,0-.135-.036.224.224,0,0,0-.137.036.168.168,0,0,0-.064.1.626.626,0,0,0-.017.155v.708a.653.653,0,0,0,.017.157.177.177,0,0,0,.064.1A.22.22,0,0,0,74.683,85.485Z" transform="translate(-69.08 -84.012)" fill="#ccc"/>
          <path id="Path_2823" data-name="Path 2823" d="M76.374,85.658V84.041H76.7a.729.729,0,0,1,.268.043.294.294,0,0,1,.157.139.53.53,0,0,1,.051.249.685.685,0,0,1-.021.17.348.348,0,0,1-.064.129.24.24,0,0,1-.116.077l.23.811h-.217l-.212-.758H76.6v.758h-.225Zm.225-.919h.086a.4.4,0,0,0,.155-.024.165.165,0,0,0,.088-.082.376.376,0,0,0,.028-.161.314.314,0,0,0-.052-.2A.265.265,0,0,0,76.7,84.2h-.1Z" transform="translate(-70.108 -84.026)" fill="#ccc"/>
          <path id="Path_2824" data-name="Path 2824" d="M78.371,85.658V84.041h.352a.631.631,0,0,1,.285.054.322.322,0,0,1,.15.165.726.726,0,0,1,.045.273v.6a.822.822,0,0,1-.045.29.338.338,0,0,1-.146.178.513.513,0,0,1-.27.062h-.369ZM78.6,85.5h.127a.251.251,0,0,0,.176-.049.224.224,0,0,0,.064-.14,1.862,1.862,0,0,0,.011-.221v-.524a1.183,1.183,0,0,0-.015-.2.174.174,0,0,0-.069-.114.308.308,0,0,0-.17-.036H78.6V85.5Z" transform="translate(-71.069 -84.026)" fill="#ccc"/>
        </g>
      </g>
      <g id="Group_6808" data-name="Group 6808">
        <path id="Path_2825" data-name="Path 2825" d="M60.3,60.205v-.9l-.444-1.372h.436l.245.8.227-.8h.421L60.743,59.3v.9H60.3Z" transform="translate(-59.852 -57.904)" fill="#263238"/>
        <path id="Path_2826" data-name="Path 2826" d="M63.317,60.213a.755.755,0,0,1-.4-.09.508.508,0,0,1-.21-.257,1.153,1.153,0,0,1-.064-.4v-.848a1.1,1.1,0,0,1,.064-.4.492.492,0,0,1,.21-.253.776.776,0,0,1,.4-.086.794.794,0,0,1,.4.088.49.49,0,0,1,.21.253,1.089,1.089,0,0,1,.064.4v.848a1.117,1.117,0,0,1-.064.4.5.5,0,0,1-.21.256.765.765,0,0,1-.4.09Zm0-.335a.178.178,0,0,0,.131-.041.2.2,0,0,0,.056-.11.75.75,0,0,0,.013-.148V58.5a.718.718,0,0,0-.013-.146.209.209,0,0,0-.056-.109.178.178,0,0,0-.131-.041.174.174,0,0,0-.127.041.209.209,0,0,0-.056.109.714.714,0,0,0-.015.146v1.077a.75.75,0,0,0,.013.148.206.206,0,0,0,.054.11.176.176,0,0,0,.129.041Z" transform="translate(-61.198 -57.88)" fill="#263238"/>
        <path id="Path_2827" data-name="Path 2827" d="M66.459,60.239a.771.771,0,0,1-.4-.088.47.47,0,0,1-.2-.255,1.234,1.234,0,0,1-.058-.406V57.934h.457v1.619a.983.983,0,0,0,.013.167.269.269,0,0,0,.056.133.164.164,0,0,0,.133.051.175.175,0,0,0,.137-.051.253.253,0,0,0,.054-.133,1.2,1.2,0,0,0,.011-.167V57.934h.457V59.49a1.235,1.235,0,0,1-.058.406.471.471,0,0,1-.2.255A.775.775,0,0,1,66.459,60.239Z" transform="translate(-62.716 -57.906)" fill="#263238"/>
        <path id="Path_2828" data-name="Path 2828" d="M68.965,60.205V57.93h.59a1.294,1.294,0,0,1,.4.052.464.464,0,0,1,.253.183.658.658,0,0,1,.088.365,1.111,1.111,0,0,1-.024.249.5.5,0,0,1-.084.187.413.413,0,0,1-.17.127l.315,1.108h-.476l-.26-1.03h-.163V60.2h-.464Zm.464-1.307h.135a.371.371,0,0,0,.178-.036.207.207,0,0,0,.092-.11.568.568,0,0,0,.026-.183.408.408,0,0,0-.058-.24.249.249,0,0,0-.215-.082h-.157V58.9Z" transform="translate(-64.24 -57.904)" fill="#263238"/>
        <path id="Path_2829" data-name="Path 2829" d="M73.463,60.205V57.93h.577a1.407,1.407,0,0,1,.275.024.606.606,0,0,1,.223.09.406.406,0,0,1,.148.178.7.7,0,0,1,.052.3.618.618,0,0,1-.039.234.353.353,0,0,1-.112.154.413.413,0,0,1-.18.077.476.476,0,0,1,.223.09.426.426,0,0,1,.135.185.771.771,0,0,1,.045.279.942.942,0,0,1-.043.3.5.5,0,0,1-.335.33.943.943,0,0,1-.286.041h-.68Zm.464-1.357h.114a.375.375,0,0,0,.183-.036.19.19,0,0,0,.086-.107.587.587,0,0,0,.024-.176.329.329,0,0,0-.036-.167.207.207,0,0,0-.107-.092.507.507,0,0,0-.182-.028h-.084v.6Zm0,1.03h.129a.282.282,0,0,0,.24-.086.435.435,0,0,0,.066-.262.62.62,0,0,0-.03-.215.216.216,0,0,0-.1-.118.372.372,0,0,0-.183-.037h-.12v.719Z" transform="translate(-66.407 -57.904)" fill="#263238"/>
        <path id="Path_2830" data-name="Path 2830" d="M76.345,60.205l.44-2.275H77.3l.438,2.275h-.429l-.082-.5h-.359l-.086.5Zm.565-.784h.273l-.139-.917Z" transform="translate(-67.794 -57.904)" fill="#263238"/>
        <path id="Path_2831" data-name="Path 2831" d="M79.444,60.205V57.93h.324l.505,1.185V57.93h.382v2.275h-.309l-.506-1.258v1.258h-.4Z" transform="translate(-69.287 -57.904)" fill="#263238"/>
        <path id="Path_2832" data-name="Path 2832" d="M82.443,60.205V57.93h.464v.96l.41-.96h.449l-.427,1.022.457,1.253H83.33l-.352-1.018-.073.129v.889h-.464Z" transform="translate(-70.73 -57.904)" fill="#263238"/>
      </g>
      <g id="Group_6809" data-name="Group 6809" transform="translate(3.078 20.855)">
        <path id="Path_2833" data-name="Path 2833" d="M66.332,100.073a.612.612,0,0,1-.3-.066.406.406,0,0,1-.178-.2.912.912,0,0,1-.069-.335l.337-.056a1.082,1.082,0,0,0,.024.2.235.235,0,0,0,.062.118.144.144,0,0,0,.1.039.108.108,0,0,0,.1-.047.209.209,0,0,0,.028-.109.335.335,0,0,0-.058-.2,1.022,1.022,0,0,0-.154-.165l-.2-.172a.782.782,0,0,1-.174-.2.54.54,0,0,1-.067-.279.47.47,0,0,1,.139-.363.542.542,0,0,1,.38-.127.509.509,0,0,1,.236.047.367.367,0,0,1,.144.127.516.516,0,0,1,.071.172,1.048,1.048,0,0,1,.024.185l-.333.051a1.526,1.526,0,0,0-.015-.154.207.207,0,0,0-.043-.1.113.113,0,0,0-.1-.037.111.111,0,0,0-.1.051.2.2,0,0,0-.034.112.274.274,0,0,0,.047.167.829.829,0,0,0,.127.137l.195.17a1.1,1.1,0,0,1,.208.238.592.592,0,0,1,.086.33.48.48,0,0,1-.062.243.431.431,0,0,1-.172.17.52.52,0,0,1-.26.062Z" transform="translate(-65.789 -98.107)" fill="#fff"/>
        <path id="Path_2834" data-name="Path 2834" d="M68.71,100.092a.636.636,0,0,1-.339-.075A.4.4,0,0,1,68.2,99.8a1.07,1.07,0,0,1-.049-.343V98.147h.386v1.367a.888.888,0,0,0,.011.14.221.221,0,0,0,.047.11.141.141,0,0,0,.112.043.145.145,0,0,0,.114-.043.221.221,0,0,0,.047-.11,1.129,1.129,0,0,0,.009-.14V98.147h.386v1.312a1.07,1.07,0,0,1-.049.343.39.39,0,0,1-.169.215.636.636,0,0,1-.339.075Z" transform="translate(-66.928 -98.126)" fill="#fff"/>
        <path id="Path_2835" data-name="Path 2835" d="M70.82,100.066V98.147H71.3a1.275,1.275,0,0,1,.232.021.563.563,0,0,1,.189.075.354.354,0,0,1,.125.15.594.594,0,0,1,.043.249.524.524,0,0,1-.034.2.308.308,0,0,1-.1.129.348.348,0,0,1-.152.064.376.376,0,0,1,.187.077.37.37,0,0,1,.114.155.626.626,0,0,1,.037.234.778.778,0,0,1-.037.251.432.432,0,0,1-.109.176.443.443,0,0,1-.176.1.784.784,0,0,1-.242.034h-.573Zm.391-1.144h.1a.305.305,0,0,0,.154-.03.166.166,0,0,0,.073-.09.477.477,0,0,0,.021-.148.279.279,0,0,0-.03-.14.173.173,0,0,0-.09-.077.439.439,0,0,0-.154-.024h-.071v.509Zm0,.869h.109a.241.241,0,0,0,.2-.073.359.359,0,0,0,.056-.221.525.525,0,0,0-.026-.182.178.178,0,0,0-.084-.1.331.331,0,0,0-.155-.032h-.1v.607Z" transform="translate(-68.21 -98.126)" fill="#fff"/>
        <path id="Path_2836" data-name="Path 2836" d="M73.431,100.066l.034-1.919h.414l.236,1.209.253-1.209h.4l.034,1.919h-.285l-.03-1.3-.243,1.3H74l-.256-1.309-.026,1.309Z" transform="translate(-69.469 -98.126)" fill="#fff"/>
        <path id="Path_2837" data-name="Path 2837" d="M76.591,100.066V98.147h.388v1.919Z" transform="translate(-70.991 -98.126)" fill="#fff"/>
        <path id="Path_2838" data-name="Path 2838" d="M77.977,100.066V98.439h-.3v-.292h.981v.292H78.37v1.627Z" transform="translate(-71.516 -98.126)" fill="#fff"/>
      </g>
    </g>
    <g id="Character" transform="translate(57.935 18.055)">
      <g id="Group_6817" data-name="Group 6817">
        <path id="Path_2839" data-name="Path 2839" d="M117.314,83.447s.088,13.4.133,13.579-.266,2.123-.178,4.113.974,8.492.974,8.492l-.708.929.532,1.636a18.036,18.036,0,0,1-1.062,2.743c-.487.841-1.017,1.239-.532,1.681s1.947.266,2.432.221.929-.088,1.106-.4a11.4,11.4,0,0,0,.532-1.947,6.516,6.516,0,0,0,.133-1.681,6.915,6.915,0,0,1,.266-1.327,9.119,9.119,0,0,0-.266-2.078c0-.264.575-11.368.575-11.368l1.327-7.918.487.753.62,7.165.487,3.14a27.43,27.43,0,0,0,.178,3.892c.221.974.62,4.733.62,4.733s-.575.575-.62.929a3.712,3.712,0,0,0,.309,1.194.572.572,0,0,0-.045.487c.088.309.178.8.178.8s-.487,2.477-.178,2.786a7.389,7.389,0,0,0,1.593.886,6.757,6.757,0,0,0,1.99.266c.4-.088.974-.088.753-.8a12.344,12.344,0,0,0-1.062-1.857c-.133-.309-.442-1.37-.442-1.37a7.482,7.482,0,0,0,.354-1.282c-.045-.133-.045-1.15-.133-1.5s-.354-.663-.354-.974,1.15-5.927.886-6.989a40.6,40.6,0,0,1-.178-5.353l-.266-11.456-.133-1.194-10.307-.929Z" transform="translate(-114.158 -57.221)" fill="#263238" stroke="#263238" stroke-width="0.361"/>
        <g id="Group_6810" data-name="Group 6810" transform="translate(2.776 8.587)">
          <path id="Path_2840" data-name="Path 2840" d="M122.133,49.426l-.848.322-.7,7.9L117.54,66.92a10.581,10.581,0,0,0,2.252,2.018,11.585,11.585,0,0,0,2.778,1.374l.614-1.434.176,1.492s1.258-.088,2.106-.2,2.692-.526,2.692-.526l-1.14-13.808.526-6.055Z" transform="translate(-117.54 -49.426)" fill="#fff" stroke="#263238" stroke-width="0.361"/>
          <line id="Line_225" data-name="Line 225" x1="0.204" y2="2.836" transform="translate(6.377 3.424)" fill="none" stroke="#263238" stroke-width="0.361"/>
          <line id="Line_226" data-name="Line 226" x1="0.022" y2="0.747" transform="translate(5.705 17.275)" fill="none" stroke="#263238" stroke-width="0.361"/>
          <line id="Line_227" data-name="Line 227" x1="0.193" y2="6.008" transform="translate(5.746 10.679)" fill="none" stroke="#263238" stroke-width="0.361"/>
          <line id="Line_228" data-name="Line 228" x2="2.398" y2="2.194" transform="translate(1.872 14.628)" fill="none" stroke="#263238" stroke-width="0.361"/>
          <line id="Line_229" data-name="Line 229" x2="1.93" y2="0.79" transform="translate(2.106 14.306)" fill="none" stroke="#263238" stroke-width="0.361"/>
        </g>
        <path id="Path_2841" data-name="Path 2841" d="M126.139,48.069s-.412.073-.507.217a2.623,2.623,0,0,0-.193.751c0,.073-.073,2.879-.073,2.879l1.814-1.065,1.4-.122,1.6,1.524a14.643,14.643,0,0,0,.58-3.411,1.942,1.942,0,0,0-.992-1.041,17.222,17.222,0,0,0-3.63.266Z" transform="translate(-118.533 -40.051)" fill="#fff" stroke="#263238" stroke-width="0.361"/>
        <g id="Group_6811" data-name="Group 6811" transform="translate(7.348 7.316)">
          <path id="Path_2842" data-name="Path 2842" d="M126.473,46.973a6.049,6.049,0,0,0-.024,2.009c.217.315,1.839,2.323,2.009,2.2s1.451-1.67,1.621-1.887a4.507,4.507,0,0,0,.388-.919V47.168l-3.993-.193Z" transform="translate(-126.358 -46.973)" fill="#c2c2c2" stroke="#263238" stroke-width="0.361"/>
          <path id="Path_2843" data-name="Path 2843" d="M128.076,49.373l-1.612-.116s-.058-.421-.069-.736a4.982,4.982,0,0,1,.161-.977l1.518,1.829Z" transform="translate(-126.375 -47.248)" fill="#263238" stroke="#263238" stroke-width="0.361"/>
        </g>
        <g id="Group_6812" data-name="Group 6812" transform="translate(6.524)">
          <path id="Path_2844" data-name="Path 2844" d="M131.279,34.793s-.007.069-.019.193a48.586,48.586,0,0,1-.867,5.574,8.2,8.2,0,0,1-1.737,1.762c-.228.154-.47.137-.9-.015a8.388,8.388,0,0,1-1.958-2.469c-.051-.318-.051-4.394-.067-4.832a2.014,2.014,0,0,1,.893-1.634,3.1,3.1,0,0,1,3.046-.195s1.488.567,1.606,1.619Z" transform="translate(-125.233 -32.863)" fill="#c2c2c2" stroke="#263238" stroke-width="0.361"/>
          <path id="Path_2845" data-name="Path 2845" d="M125.733,35a2.014,2.014,0,0,1,.893-1.634,3.1,3.1,0,0,1,3.046-.195s1.488.567,1.606,1.619c0,0-.007.069-.019.193-.041.4-.142,1.384-.264,2.38l-.049.024a1.032,1.032,0,0,1-.208-.476c-.009-.219-.139-1.8-.139-1.8a4.267,4.267,0,0,1-1.878.813,4.845,4.845,0,0,1-2.207-1.032,14.271,14.271,0,0,1-.234,1.584c-.067.133-.4.878-.528,1.161-.009-1.166-.013-2.4-.022-2.63Z" transform="translate(-125.233 -32.862)" fill="#263238" stroke="#263238" stroke-width="0.361"/>
          <path id="Path_2846" data-name="Path 2846" d="M133.339,43.357a3.39,3.39,0,0,0-1.245.1" transform="translate(-128.297 -37.909)" fill="none" stroke="#263238" stroke-width="0.361"/>
          <path id="Path_2847" data-name="Path 2847" d="M129.086,43.3a1.708,1.708,0,0,0-1.185-.06" transform="translate(-126.278 -37.816)" fill="none" stroke="#263238" stroke-width="0.361"/>
          <path id="Path_2848" data-name="Path 2848" d="M128.946,44.586a.85.85,0,0,1-.99-.047" transform="translate(-126.304 -38.485)" fill="none" stroke="#263238" stroke-width="0.361"/>
          <path id="Path_2849" data-name="Path 2849" d="M133,44.771a.781.781,0,0,1-.85.011" transform="translate(-128.323 -38.597)" fill="none" stroke="#263238" stroke-width="0.361"/>
          <path id="Path_2850" data-name="Path 2850" d="M130.825,47.179s-.271.393-.579.3a1.4,1.4,0,0,1-.554-.38" transform="translate(-127.141 -39.717)" fill="none" stroke="#263238" stroke-width="0.361"/>
          <path id="Path_2851" data-name="Path 2851" d="M130.9,48.051a1.434,1.434,0,0,1-1.02.363,1.171,1.171,0,0,1-.711-.56" transform="translate(-126.888 -40.082)" fill="none" stroke="#263238" stroke-width="0.361"/>
          <path id="Path_2852" data-name="Path 2852" d="M135.714,41.332s.356-.554.459.06-.644,1.215-.644,1.215l.187-1.275Z" transform="translate(-129.951 -36.83)" fill="#c2c2c2" stroke="#263238" stroke-width="0.361"/>
          <path id="Path_2853" data-name="Path 2853" d="M125.289,40.746s-.245-.648-.474-.155.485,1.369.485,1.369l-.011-1.213Z" transform="translate(-124.77 -36.495)" fill="#c2c2c2" stroke="#263238" stroke-width="0.361"/>
        </g>
        <g id="Group_6813" data-name="Group 6813" transform="translate(0 8.552)">
          <path id="Path_2854" data-name="Path 2854" d="M119.209,49.359s-.058,7.191-.174,8.062a26.528,26.528,0,0,1-2.059,6.032c-.7.987-.929,1.363-.929,1.363l-.58,1.855.058,1.015h-1.769a20.266,20.266,0,0,1-1.333-3.48,7.892,7.892,0,0,1-.116-3.248c.2-.813,2.522-8.062,2.552-8.236s-.2-1.913,0-2.146a40.2,40.2,0,0,1,4.349-1.219Z" transform="translate(-112.185 -49.357)" fill="#083273" stroke="#263238" stroke-width="0.361"/>
          <path id="Path_2855" data-name="Path 2855" d="M113.736,82.423s-.725,6.266-.64,6.716a2.012,2.012,0,0,0,2.132,1.065,2.467,2.467,0,0,0,1.79-1.258L115.8,82.419l-2.065,0Z" transform="translate(-112.62 -65.279)" fill="#8a8a8a" stroke="#263238" stroke-width="0.361"/>
          <path id="Path_2856" data-name="Path 2856" d="M113.1,89.139a1.465,1.465,0,0,0,.85.846c-.041-.144-.084-.315-.129-.515a57.3,57.3,0,0,1,.725-6.18l-.174-.867h-.631S113.011,88.691,113.1,89.139Z" transform="translate(-112.62 -65.281)" fill="#8a8a8a" stroke="#263238" stroke-width="0.361"/>
          <path id="Path_2857" data-name="Path 2857" d="M114.131,71.684a3.8,3.8,0,0,1,2.323.511" transform="translate(-113.122 -60.104)" fill="none" stroke="#263238" stroke-width="0.361"/>
          <path id="Path_2858" data-name="Path 2858" d="M115.612,70.708a2.747,2.747,0,0,1,1.365.468" transform="translate(-113.835 -59.639)" fill="none" stroke="#263238" stroke-width="0.361"/>
          <line id="Line_230" data-name="Line 230" x2="0.064" y2="0.773" transform="translate(3.055 7.075)" fill="none" stroke="#263238" stroke-width="0.361"/>
          <line id="Line_231" data-name="Line 231" x2="0.268" y2="3.29" transform="translate(2.735 3.138)" fill="none" stroke="#263238" stroke-width="0.361"/>
          <path id="Path_2859" data-name="Path 2859" d="M123.335,50.032s-.348,3.451-.29,4.581.725,4.523.755,4.669" transform="translate(-117.412 -49.682)" fill="none" stroke="#263238" stroke-width="0.361"/>
        </g>
        <g id="Group_6814" data-name="Group 6814" transform="translate(0.854 8.96)">
          <path id="Path_2860" data-name="Path 2860" d="M118.79,50.288l-2.9,17.459,1.015-.03,2.7-17.573Z" transform="translate(-114.823 -50.144)" fill="#8a8a8a" stroke="#263238" stroke-width="0.361"/>
          <path id="Path_2861" data-name="Path 2861" d="M115.659,75a4.666,4.666,0,0,0-1.077.537,8.707,8.707,0,0,0-.749,1.46,7.255,7.255,0,0,0,.9.942s.769.769.942.749.481-.116.193-.5a6.455,6.455,0,0,0-.635-.711L115.659,75Z" transform="translate(-113.832 -62.115)" fill="#c2c2c2" stroke="#263238" stroke-width="0.361"/>
          <line id="Line_232" data-name="Line 232" x1="0.595" y1="1.077" transform="translate(0.809 14.291)" fill="none" stroke="#263238" stroke-width="0.361"/>
          <path id="Path_2862" data-name="Path 2862" d="M114,79.267s-.212.653-.116.749.884.635,1.018.77.614.326.73.193.058-.23.058-.23-.346-.23-.4-.288S114,79.268,114,79.268Z" transform="translate(-113.845 -64.169)" fill="#c2c2c2" stroke="#263238" stroke-width="0.361"/>
          <path id="Path_2863" data-name="Path 2863" d="M114.463,81.269s.019.6.23.749a2.53,2.53,0,0,0,1.018.307c.154-.019.212-.384.212-.384a.939.939,0,0,1-.73-.193,3.423,3.423,0,0,0-.73-.481Z" transform="translate(-114.136 -65.132)" fill="#c2c2c2" stroke="#263238" stroke-width="0.361"/>
          <path id="Path_2864" data-name="Path 2864" d="M114.907,82.715a.518.518,0,0,0,.135.365,1.462,1.462,0,0,0,.769.346c.174,0-.039-.4-.039-.4Z" transform="translate(-114.349 -65.83)" fill="#c2c2c2" stroke="#263238" stroke-width="0.361"/>
          <path id="Path_2865" data-name="Path 2865" d="M118.58,76a9.07,9.07,0,0,0,.788.826c.172.116.27.923.288,1.1s-1.479,1.4-1.479,1.4l-.154-.019L118.582,76Z" transform="translate(-115.851 -62.597)" fill="#c2c2c2" stroke="#263238" stroke-width="0.361"/>
          <path id="Path_2866" data-name="Path 2866" d="M118.244,80.089a4.575,4.575,0,0,1,1.018-1.23" transform="translate(-115.957 -63.972)" fill="none" stroke="#263238" stroke-width="0.361"/>
        </g>
        <path id="Path_2867" data-name="Path 2867" d="M134.4,48.884a32.224,32.224,0,0,0-1.183,5.493c-.1,1.908.034,8.65.034,8.65l.526,6.117a4.7,4.7,0,0,0,1.842,1.151c1.12.361,1.874.56,1.874.56l-1.217-9.21.264-1.743,4.078-.034s-.921-5.755-1.118-6.807-.526-2.63-.856-2.73-4.242-1.447-4.242-1.447Z" transform="translate(-122.293 -40.578)" fill="#083273" stroke="#263238" stroke-width="0.361"/>
        <path id="Path_2868" data-name="Path 2868" d="M135.642,50.09s-.461,2.368-.987,4.211-1.348,3.98-1.348,3.98" transform="translate(-122.357 -41.159)" fill="none" stroke="#263238" stroke-width="0.361"/>
        <line id="Line_233" data-name="Line 233" x2="0.953" y2="4.538" transform="translate(13.089 14.161)" fill="none" stroke="#263238" stroke-width="0.361"/>
        <path id="Path_2869" data-name="Path 2869" d="M142.1,52.3a22.455,22.455,0,0,0-1.316,4.827" transform="translate(-125.959 -42.225)" fill="none" stroke="#263238" stroke-width="0.361"/>
        <path id="Path_2870" data-name="Path 2870" d="M140.524,66.623c-.037.238-.064.442-.073.593" transform="translate(-125.797 -49.12)" fill="none" stroke="#263238" stroke-width="0.361"/>
        <path id="Path_2871" data-name="Path 2871" d="M141.312,60.43s-.376,1.616-.59,2.812" transform="translate(-125.928 -46.138)" fill="none" stroke="#263238" stroke-width="0.361"/>
        <g id="Group_6816" data-name="Group 6816" transform="translate(8.998 15.503)">
          <path id="Path_2872" data-name="Path 2872" d="M137.276,73l-.44-2.52,1.082.116S137.656,72.678,137.276,73Z" transform="translate(-133.054 -66.479)" fill="#fff" stroke="#263238" stroke-width="0.361"/>
          <path id="Path_2873" data-name="Path 2873" d="M141.53,68.534l-3.651-.427a24.6,24.6,0,0,1-.034,2.63,8.853,8.853,0,0,1-.165,1.118,26.933,26.933,0,0,0,3.881-.066c.987-.2,1.479-.56,1.578-1.183a6.545,6.545,0,0,0-.492-2.138" transform="translate(-133.461 -65.338)" fill="#083273" stroke="#263238" stroke-width="0.361"/>
          <path id="Path_2874" data-name="Path 2874" d="M130.127,65.035l-.586-2.269,2.417.1.44,2.344Z" transform="translate(-129.541 -62.766)" fill="#263238" stroke="#263238" stroke-width="0.361"/>
          <g id="Group_6815" data-name="Group 6815" transform="translate(0.027 0.953)">
            <path id="Path_2875" data-name="Path 2875" d="M133.987,66.42l-.565-.717s-.337-.586-.41-.732-.908-.367-.908-.367l.161.777s-1.26.073-1.494.03-.44-.088-.455.118,0,.292.264.322,1.215.206,1.215.206-1.348-.043-1.509-.088-.629-.219-.674-.03,0,.264.058.307.352.191.352.191-.1.292,0,.44a3.406,3.406,0,0,0,.747.513c.073.03.4.4.6.586a1.061,1.061,0,0,0,.777.161,5.565,5.565,0,0,0,.777-.1c.131-.015,1.1.1,1.1.1l-.034-1.713Z" transform="translate(-129.594 -64.604)" fill="#c2c2c2" stroke="#263238" stroke-width="0.361"/>
            <path id="Path_2876" data-name="Path 2876" d="M133.838,66.991a1.959,1.959,0,0,0,.528.015c.118-.043.176-.249.131-.455" transform="translate(-131.638 -65.542)" fill="none" stroke="#263238" stroke-width="0.361"/>
            <path id="Path_2877" data-name="Path 2877" d="M130.418,68.133s.865.307,1.127.425a3.744,3.744,0,0,0,1.069.088" transform="translate(-129.991 -66.303)" fill="none" stroke="#263238" stroke-width="0.361"/>
            <path id="Path_2878" data-name="Path 2878" d="M131.859,69.971s.644.206.762.234a3.02,3.02,0,0,0,.528,0" transform="translate(-130.685 -67.189)" fill="none" stroke="#263238" stroke-width="0.361"/>
          </g>
        </g>
      </g>
    </g>
  </g>
</svg>
