<svg id="brandbook" xmlns="http://www.w3.org/2000/svg" width="47.97" height="9.257" viewBox="0 0 47.97 9.257">
  <g id="bg-1.2" transform="translate(0 0)">
    <g id="logo-with-tagline-h" transform="translate(0 0)">
      <g id="logo_tagline_color" data-name="logo/tagline/color" transform="translate(0 0)">
        <g id="Group" transform="translate(0 1.254)">
          <g id="e-logo" transform="translate(0 0)">
            <path id="letter" d="M3.52,0c.152.007.3,0,.455,0A3.669,3.669,0,0,1,6.3,1.094a3.781,3.781,0,0,1,1.02,1.868,3.988,3.988,0,0,1,.069,1,1.179,1.179,0,0,1-.067.5.409.409,0,0,1-.275.207,2.338,2.338,0,0,1-.607.05H3.93a.658.658,0,0,1-.646-.67h0q0-.1,0-.173,0-.1,0-.224h0a.658.658,0,0,1,.646-.67H5.278A1.765,1.765,0,0,0,4.239,1.946a1.8,1.8,0,0,0-1.121.042,1.732,1.732,0,0,0-.989,1,2.785,2.785,0,0,0,0,1.774,2.14,2.14,0,0,0,.389.746A1.763,1.763,0,0,0,3.9,6.1q.332,0,.571,0-.04.125-.049.163a1.776,1.776,0,0,0-.049.475,1.722,1.722,0,0,0,.16.684,3.233,3.233,0,0,0,.344.493,4.783,4.783,0,0,1-2.613-.284A4,4,0,0,1,.376,5.716,4.113,4.113,0,0,1,.039,3.407,4.084,4.084,0,0,1,1.4.854,3.593,3.593,0,0,1,3.52,0Z" fill="#02a7e1" fill-rule="evenodd"/>
            <path id="dot" d="M1.879.127a1.321,1.321,0,0,1,.683.767,1.438,1.438,0,0,1,.033.719c-.012.042-.024.084-.036.126a1.554,1.554,0,0,1-.313.51,1.351,1.351,0,0,1-1.868,0,1.486,1.486,0,0,1-.35-.639,1.591,1.591,0,0,1,0-.591C.04.978.052.936.063.894A1.338,1.338,0,0,1,.731.132,1.34,1.34,0,0,1,1.879.127Z" transform="translate(5.079 5.362)" fill="#f69414" fill-rule="evenodd"/>
          </g>
        </g>
        <path id="logotype" d="M3.223,9.234a2.939,2.939,0,0,0,1.021-.177,3.672,3.672,0,0,0,.887-.469.955.955,0,0,0,.156-.131.265.265,0,0,0,.072-.192.221.221,0,0,0-.022-.082.785.785,0,0,0-.047-.092h0l-.554-.866a.42.42,0,0,0-.143-.154.328.328,0,0,0-.153-.036.508.508,0,0,0-.1.013.342.342,0,0,0-.131.064,2.364,2.364,0,0,1-.47.261,1.366,1.366,0,0,1-.529.1,1.309,1.309,0,0,1-.573-.126,1.357,1.357,0,0,1-.447-.341A1.574,1.574,0,0,1,1.9,6.5a1.959,1.959,0,0,1,0-1.258,1.7,1.7,0,0,1,.289-.523,1.356,1.356,0,0,1,.447-.356,1.266,1.266,0,0,1,.573-.131,1.483,1.483,0,0,1,.531.095,2.225,2.225,0,0,1,.467.243.61.61,0,0,0,.143.079.333.333,0,0,0,.109.023A.4.4,0,0,0,4.8,4.42h0l.44-.774a.364.364,0,0,0,.059-.19.373.373,0,0,0-.064-.223.584.584,0,0,0-.173-.156h0l.015.015a3.045,3.045,0,0,0-.858-.441,3.2,3.2,0,0,0-1-.149,3.107,3.107,0,0,0-.858.118,3.147,3.147,0,0,0-.769.333,3.264,3.264,0,0,0-.652.52,3.217,3.217,0,0,0-.5.677A3.568,3.568,0,0,0,.116,6.77a3.554,3.554,0,0,0,.324.807,3.189,3.189,0,0,0,.5.679A3.339,3.339,0,0,0,1.6,8.78a3.106,3.106,0,0,0,1.626.454ZM7.611.977h.02A.244.244,0,0,1,7.715,1a.366.366,0,0,1,.1.078A.447.447,0,0,1,7.9,1.2a.371.371,0,0,1,.032.156h0V8.895a.36.36,0,0,1-.106.262.389.389,0,0,1-.274.1H6.375a.315.315,0,0,1-.247-.1.452.452,0,0,1-.079-.289h0V1.33a.442.442,0,0,1,.078-.243A.312.312,0,0,1,6.4.977H7.611ZM11.742,2.5a2.809,2.809,0,0,1,.794.113,3.029,3.029,0,0,1,.723.318,3.156,3.156,0,0,1,.619.492,3.306,3.306,0,0,1,.483.628,3.09,3.09,0,0,1,.313.728,2.879,2.879,0,0,1,.111.8q0,.267-.007.436a.507.507,0,0,1-.076.269.37.37,0,0,1-.229.138A2.163,2.163,0,0,1,14,6.462H10.449l.008.046a1.253,1.253,0,0,0,.54.854,1.362,1.362,0,0,0,.419.187,1.705,1.705,0,0,0,.419.056,1.814,1.814,0,0,0,.365-.038,2.536,2.536,0,0,0,.363-.1,2.013,2.013,0,0,0,.321-.149,1.069,1.069,0,0,0,.234-.177,1.03,1.03,0,0,1,.136-.1.235.235,0,0,1,.121-.033.23.23,0,0,1,.131.046,1.042,1.042,0,0,1,.15.133h0l.523.615.015.019a.315.315,0,0,1,.054.1.415.415,0,0,1,.015.11.292.292,0,0,1-.054.177.633.633,0,0,1-.128.131,3.274,3.274,0,0,1-.977.649,2.879,2.879,0,0,1-1.149.233,3.226,3.226,0,0,1-1.278-.256,3.316,3.316,0,0,1-1.056-.71A3.412,3.412,0,0,1,8.9,7.185a3.333,3.333,0,0,1-.266-1.338,3.581,3.581,0,0,1,.106-.874,3.529,3.529,0,0,1,.3-.792A3.358,3.358,0,0,1,9.514,3.5a3,3,0,0,1,1.374-.874A2.917,2.917,0,0,1,11.742,2.5Zm-.035,1.564a.913.913,0,0,0-.372.079A1.4,1.4,0,0,0,11,4.359a1.8,1.8,0,0,0-.284.3,1.87,1.87,0,0,0-.2.344h2.521a3.04,3.04,0,0,0-.224-.369,1.555,1.555,0,0,0-.276-.3,1.18,1.18,0,0,0-.355-.2A1.378,1.378,0,0,0,11.707,4.067Zm7.021,5.166a2.939,2.939,0,0,0,1.021-.177,3.672,3.672,0,0,0,.887-.469.957.957,0,0,0,.156-.131.265.265,0,0,0,.072-.192.221.221,0,0,0-.022-.082.784.784,0,0,0-.047-.092h0l-.554-.866A.42.42,0,0,0,20.1,7.07a.328.328,0,0,0-.153-.036.508.508,0,0,0-.1.013.342.342,0,0,0-.131.064,2.364,2.364,0,0,1-.47.261,1.366,1.366,0,0,1-.529.1,1.309,1.309,0,0,1-.573-.126,1.357,1.357,0,0,1-.447-.341,1.573,1.573,0,0,1-.289-.51,1.959,1.959,0,0,1,0-1.258,1.7,1.7,0,0,1,.289-.523,1.356,1.356,0,0,1,.447-.356,1.266,1.266,0,0,1,.573-.131,1.483,1.483,0,0,1,.531.095,2.224,2.224,0,0,1,.467.243.609.609,0,0,0,.143.079.333.333,0,0,0,.109.023A.4.4,0,0,0,20.3,4.42h0l.44-.774a.364.364,0,0,0,.059-.19.373.373,0,0,0-.064-.223.584.584,0,0,0-.173-.156h0l.015.015a3.045,3.045,0,0,0-.858-.441,3.2,3.2,0,0,0-1-.149,3.107,3.107,0,0,0-.858.118,3.148,3.148,0,0,0-.769.333,3.265,3.265,0,0,0-.652.52,3.217,3.217,0,0,0-.5.677,3.569,3.569,0,0,0-.324,2.619,3.553,3.553,0,0,0,.324.807,3.189,3.189,0,0,0,.5.679,3.34,3.34,0,0,0,.652.523,3.106,3.106,0,0,0,1.626.454Zm5.219.007a.429.429,0,0,0,.3-.1.381.381,0,0,0,.109-.295l0-4.326h.677a.346.346,0,0,0,.257-.1.434.434,0,0,0,.1-.315V3.115a.393.393,0,0,0-.1-.292.351.351,0,0,0-.257-.1h-.677l0-1.41a.59.59,0,0,0-.062-.29.255.255,0,0,0-.245-.11h-.042a.232.232,0,0,0-.047.005l-1.122.4a1.126,1.126,0,0,0-.289.151.284.284,0,0,0-.1.238l0,1.01h-.509a.34.34,0,0,0-.381.39V4.1q0,.415.381.415h.509l0,4.326q0,.395.381.395Zm3.6-7.4a.354.354,0,0,0,.205-.093.663.663,0,0,0,.121-.147.828.828,0,0,0,.077-.162.448.448,0,0,0,.027-.142V.3q0-.215-.106-.273a.361.361,0,0,0-.279,0l-1.147.35a.528.528,0,0,0-.277.174.539.539,0,0,0-.089.332V1.5c0,.284.127.341.366.341Zm.03,7.412a.411.411,0,0,0,.3-.1.391.391,0,0,0,.1-.295h0V3.147a.319.319,0,0,0-.042-.164.53.53,0,0,0-.1-.126.435.435,0,0,0-.129-.082.342.342,0,0,0-.128-.028H26.443a.324.324,0,0,0-.277.118.455.455,0,0,0-.089.282h0V8.863q0,.395.366.395h1.132Zm4.368-.024a2.939,2.939,0,0,0,1.021-.177,3.672,3.672,0,0,0,.887-.469.955.955,0,0,0,.156-.131.265.265,0,0,0,.072-.192.221.221,0,0,0-.022-.082.78.78,0,0,0-.047-.092h0l-.554-.866a.42.42,0,0,0-.143-.154.328.328,0,0,0-.153-.036.508.508,0,0,0-.1.013.341.341,0,0,0-.131.064,2.364,2.364,0,0,1-.47.261,1.366,1.366,0,0,1-.529.1,1.309,1.309,0,0,1-.573-.126,1.358,1.358,0,0,1-.447-.341,1.574,1.574,0,0,1-.289-.51,1.959,1.959,0,0,1,0-1.258,1.7,1.7,0,0,1,.289-.523,1.357,1.357,0,0,1,.447-.356,1.266,1.266,0,0,1,.573-.131,1.483,1.483,0,0,1,.531.095,2.225,2.225,0,0,1,.467.243.609.609,0,0,0,.143.079.333.333,0,0,0,.109.023.4.4,0,0,0,.336-.251h0l.44-.774a.364.364,0,0,0,.059-.19.373.373,0,0,0-.064-.223.584.584,0,0,0-.173-.156h0l.015.015a3.045,3.045,0,0,0-.858-.441,3.2,3.2,0,0,0-1-.149,3.107,3.107,0,0,0-.858.118,3.148,3.148,0,0,0-.769.333,3.264,3.264,0,0,0-.652.52,3.217,3.217,0,0,0-.5.677,3.568,3.568,0,0,0-.324,2.619,3.556,3.556,0,0,0,.324.807,3.189,3.189,0,0,0,.5.679,3.339,3.339,0,0,0,.652.523,3.106,3.106,0,0,0,1.626.454Zm5.207,0a3.43,3.43,0,0,0,1.006-.143,2.431,2.431,0,0,0,.808-.412,1.918,1.918,0,0,0,.536-.667,2.016,2.016,0,0,0,.2-.9,2.167,2.167,0,0,0-.151-.855,1.757,1.757,0,0,0-.423-.6,2.479,2.479,0,0,0-.643-.425,7.552,7.552,0,0,0-.816-.321q-.119-.036-.259-.064a1.817,1.817,0,0,1-.267-.074.684.684,0,0,1-.213-.12.286.286,0,0,1-.1-.206.269.269,0,0,1,.133-.265.742.742,0,0,1,.386-.087,1.411,1.411,0,0,1,.415.069.858.858,0,0,1,.4.267.434.434,0,0,0,.089.087.329.329,0,0,0,.1.051.233.233,0,0,0,.114,0,.272.272,0,0,0,.119-.064q.188-.193.363-.351t.368-.321a.266.266,0,0,0,.111-.191.323.323,0,0,0-.086-.191,3.861,3.861,0,0,0-.467-.43,2.545,2.545,0,0,0-.482-.3,2.272,2.272,0,0,0-.519-.168,3.265,3.265,0,0,0-1.517.081,2.175,2.175,0,0,0-.722.382,1.689,1.689,0,0,0-.465.593A1.781,1.781,0,0,0,35,4.382a2.6,2.6,0,0,0,.089.687,1.683,1.683,0,0,0,.314.608,2.211,2.211,0,0,0,.61.512A4,4,0,0,0,37,6.581q.188.061.339.107a1.276,1.276,0,0,1,.255.1.442.442,0,0,1,.158.143.413.413,0,0,1,.054.227.312.312,0,0,1-.1.244.576.576,0,0,1-.23.125,1.249,1.249,0,0,1-.279.046q-.146.008-.24.008a.8.8,0,0,1-.148-.025,1.717,1.717,0,0,1-.252-.084,2.16,2.16,0,0,1-.3-.153,1.446,1.446,0,0,1-.289-.232.7.7,0,0,0-.235-.173.221.221,0,0,0-.21.071h0l-.638.657a.273.273,0,0,0-.087.109.385.385,0,0,0-.03.14.432.432,0,0,0,.025.155.533.533,0,0,0,.082.15,2.242,2.242,0,0,0,.474.476A2.753,2.753,0,0,0,35.914,9a2.863,2.863,0,0,0,.613.181A3.568,3.568,0,0,0,37.149,9.234Z" transform="translate(8.275)" fill="#fff" fill-rule="evenodd"/>
      </g>
    </g>
  </g>
</svg>
