<svg xmlns="http://www.w3.org/2000/svg" width="31.743" height="50.879" viewBox="0 0 31.743 50.879">
  <g id="Group_4440" data-name="Group 4440" transform="translate(-148.257 -263)">
    <path id="location-pointer" d="M17.195.8A15.889,15.889,0,0,0,1.323,16.654a15.691,15.691,0,0,0,12.1,15.06l3.769,6.576,3.757-6.576a15.708,15.708,0,0,0,12.114-15.06A15.889,15.889,0,0,0,17.195.8Zm0,5.766a10.088,10.088,0,1,1-10.1,10.092,10.112,10.112,0,0,1,10.1-10.092Zm0,2.887a7.2,7.2,0,0,0-2.89,13.8v-1.26A1.713,1.713,0,0,1,16,20.246H18.38a1.713,1.713,0,0,1,1.693,1.74v1.266a7.2,7.2,0,0,0-2.879-13.8Zm-.006,4.881a2.412,2.412,0,1,1-2.408,2.414,2.411,2.411,0,0,1,2.408-2.414Z" transform="translate(146.934 262.204)" fill="#f69414"/>
    <line id="Line_29" data-name="Line 29" y2="19.379" transform="translate(164.5 293.5)" fill="none" stroke="#f69414" stroke-linecap="round" stroke-width="2"/>
  </g>
</svg>
