<svg xmlns="http://www.w3.org/2000/svg" width="58.898" height="51" viewBox="0 0 58.898 51">
  <path id="add-photo" d="M51.866,23.917a2.677,2.677,0,0,0-2.677,2.677v18.74a2.677,2.677,0,0,1-2.677,2.677H9.031a2.677,2.677,0,0,1-2.677-2.677V23.917A2.677,2.677,0,0,1,9.031,21.24h5.354a2.677,2.677,0,0,0,2.677-1.82l1.446-4.391a2.677,2.677,0,0,1,2.543-1.82H35.8a2.677,2.677,0,1,0,0-5.354H20.918a8.031,8.031,0,0,0-7.6,5.488l-.857,2.677H9.031A8.031,8.031,0,0,0,1,24.051V45.468A8.031,8.031,0,0,0,9.031,53.5h37.48a8.031,8.031,0,0,0,8.031-8.031V26.728a2.677,2.677,0,0,0-2.677-2.811ZM27.772,21.24A10.709,10.709,0,1,0,38.48,31.949,10.709,10.709,0,0,0,27.772,21.24Zm0,16.063a5.354,5.354,0,1,1,5.354-5.354A5.354,5.354,0,0,1,27.772,37.3ZM57.22,7.854H54.543V5.177a2.677,2.677,0,1,0-5.354,0V7.854H46.512a2.677,2.677,0,1,0,0,5.354h2.677v2.677a2.677,2.677,0,1,0,5.354,0V13.209H57.22a2.677,2.677,0,1,0,0-5.354Z" transform="translate(-1 -2.5)" fill="#083273"/>
</svg>
