<svg id="keyboard-voice" xmlns="http://www.w3.org/2000/svg" width="32" height="32" viewBox="0 0 32 32">
  <path id="Path_1836" data-name="Path 1836" d="M0,0H32V32H0Z" fill="none"/>
  <path id="Path_1837" data-name="Path 1837" d="M16,20.053a4.485,4.485,0,0,0,4.7-4.263l.016-8.526A4.5,4.5,0,0,0,16,3a4.5,4.5,0,0,0-4.714,4.263v8.526A4.5,4.5,0,0,0,16,20.053ZM14.114,7.121A1.808,1.808,0,0,1,16,5.416a1.808,1.808,0,0,1,1.886,1.705l-.016,8.811a1.887,1.887,0,0,1-3.756,0V7.121Zm10.214,8.668c0,4.263-3.991,7.247-8.329,7.247s-8.329-2.984-8.329-7.247H5c0,4.846,4.274,8.853,9.429,9.549V30h3.143V25.339C22.726,24.657,27,20.649,27,15.789Z" transform="translate(0)" fill="#083273"/>
</svg>
