<svg xmlns="http://www.w3.org/2000/svg" width="32" height="32" viewBox="0 0 32 32">
  <g id="face_recognition" data-name="face recognition" transform="translate(-3 -3)">
    <path id="Path_1834" data-name="Path 1834" d="M4.231,12.846a1.231,1.231,0,0,0,1.231-1.231V5.462h6.154a1.231,1.231,0,0,0,0-2.462H5.462A2.462,2.462,0,0,0,3,5.462v6.154A1.231,1.231,0,0,0,4.231,12.846ZM32.538,3H26.385a1.231,1.231,0,0,0,0,2.462h6.154v6.154a1.231,1.231,0,0,0,2.462,0V5.462A2.462,2.462,0,0,0,32.538,3Zm1.231,22.154a1.231,1.231,0,0,0-1.231,1.231v6.154H26.385a1.231,1.231,0,0,0,0,2.462h6.154A2.462,2.462,0,0,0,35,32.538V26.385A1.231,1.231,0,0,0,33.769,25.154ZM11.615,32.538H5.462V26.385a1.231,1.231,0,0,0-2.462,0v6.154A2.462,2.462,0,0,0,5.462,35h6.154a1.231,1.231,0,0,0,0-2.462Zm0-24.615a1.231,1.231,0,0,0-1.231,1.231v2.462a1.231,1.231,0,0,0,2.462,0V9.154A1.231,1.231,0,0,0,11.615,7.923Zm14.769,4.923a1.231,1.231,0,0,0,1.231-1.231V9.154a1.231,1.231,0,0,0-2.462,0v2.462A1.231,1.231,0,0,0,26.385,12.846Zm-9.846,9.846h1.231a2.462,2.462,0,0,0,2.462-2.462V9.154a1.231,1.231,0,1,0-2.462,0V20.231H16.538a1.231,1.231,0,0,0,0,2.462Z" transform="translate(0)" fill="#083273"/>
    <path id="Path_1835" data-name="Path 1835" d="M30,20c0-.552-.616-1-1.375-1s-1.375.448-1.375,1c0,1.42-3.383,3-8.25,3s-8.25-1.58-8.25-3c0-.552-.616-1-1.375-1S8,19.448,8,20c0,2.8,4.826,5,11,5S30,22.8,30,20Z" transform="translate(0 4.8)" fill="#083273"/>
  </g>
</svg>
