<svg xmlns="http://www.w3.org/2000/svg" xmlns:xlink="http://www.w3.org/1999/xlink" width="40" height="40" viewBox="0 0 40 40">
  <defs>
    <clipPath id="clip-path">
      <rect id="Rectangle_3641" data-name="Rectangle 3641" width="24" height="24" transform="translate(32 304)" fill="#1aa7e1" stroke="#707070" stroke-width="1"/>
    </clipPath>
  </defs>
  <g id="Group_6918" data-name="Group 6918" transform="translate(-24 -296)">
    <circle id="Ellipse_438" data-name="Ellipse 438" cx="20" cy="20" r="20" transform="translate(24 296)" fill="#fff"/>
    <g id="Mask_Group_142" data-name="Mask Group 142" clip-path="url(#clip-path)">
      <g id="hra-calculator" transform="translate(31.913 303.826)">
        <path id="Path_3193" data-name="Path 3193" d="M23.112,24.174H1.062a.354.354,0,1,1,0-.708H23.112a.354.354,0,1,1,0,.708Z" fill="#1aa7e1"/>
        <path id="Path_3194" data-name="Path 3194" d="M10.671,15.7H6.846a1.064,1.064,0,0,0-1.062,1.062V20.1a1.064,1.064,0,0,0,1.062,1.062h3.824A1.064,1.064,0,0,0,11.733,20.1V16.761A1.064,1.064,0,0,0,10.671,15.7Zm.354,4.4a.354.354,0,0,1-.354.354H6.846a.354.354,0,0,1-.354-.354V16.761a.354.354,0,0,1,.354-.354h3.824a.354.354,0,0,1,.354.354ZM9.866,11.907H9.113v-.754a.354.354,0,0,0-.708,0v.754H7.651a.354.354,0,0,0,0,.708H8.4v.754a.354.354,0,0,0,.708,0v-.754h.754a.354.354,0,1,0,0-.708Zm.1,6.167H7.554a.354.354,0,0,0,0,.708H9.962a.354.354,0,1,0,0-.708Zm-1.2-.354a.354.354,0,1,0-.354-.354A.354.354,0,0,0,8.758,17.72Zm0,1.416a.354.354,0,1,0,.354.354A.354.354,0,0,0,8.758,19.137Zm5.453-6.522H16.62a.354.354,0,0,0,0-.708H14.212a.354.354,0,0,0,0,.708ZM10.576,6.374a1.511,1.511,0,1,0,1.511-1.511A1.511,1.511,0,0,0,10.576,6.374Zm2.314,0a.8.8,0,1,1-.8-.8.8.8,0,0,1,.8.8ZM22.78,11a.687.687,0,0,0,.686-.685v-1.1a1.069,1.069,0,0,0-.413-.841L12.707.386a1.015,1.015,0,0,0-1.241,0L1.121,8.372a1.069,1.069,0,0,0-.413.841v1.1a.685.685,0,0,0,1.1.542l.951-.734V22.4a1.761,1.761,0,0,0,.355,1.062H1.062a.354.354,0,0,0,0,.708H23.112a.354.354,0,1,0,0-.708H21.057a1.761,1.761,0,0,0,.355-1.062V10.125l.951.734A.682.682,0,0,0,22.78,11ZM20.7,22.4a1.064,1.064,0,0,1-1.062,1.062H4.533A1.064,1.064,0,0,1,3.47,22.4V9.578l8.617-6.652L20.7,9.578ZM12.3,2.2a.354.354,0,0,0-.433,0L1.416,10.269V9.213a.356.356,0,0,1,.138-.28L11.9.946a.307.307,0,0,1,.375,0L22.62,8.933a.356.356,0,0,1,.138.28v1.056ZM10.671,9.532H6.846a1.064,1.064,0,0,0-1.062,1.062v3.334a1.064,1.064,0,0,0,1.062,1.062h3.824a1.064,1.064,0,0,0,1.062-1.062V10.594a1.064,1.064,0,0,0-1.062-1.062Zm.354,4.4a.354.354,0,0,1-.354.354H6.846a.354.354,0,0,1-.354-.354V10.594a.354.354,0,0,1,.354-.354h3.824a.354.354,0,0,1,.354.354Zm1.416-3.334v3.334A1.064,1.064,0,0,0,13.5,14.991h3.824a1.064,1.064,0,0,0,1.062-1.062V10.594a1.064,1.064,0,0,0-1.062-1.062H13.5A1.064,1.064,0,0,0,12.441,10.594Zm5.241,0v3.334a.354.354,0,0,1-.354.354H13.5a.354.354,0,0,1-.354-.354V10.594a.354.354,0,0,1,.354-.354h3.824a.354.354,0,0,1,.354.354ZM17.328,15.7H13.5a1.064,1.064,0,0,0-1.062,1.062V20.1A1.064,1.064,0,0,0,13.5,21.158h3.824A1.064,1.064,0,0,0,18.39,20.1V16.761A1.064,1.064,0,0,0,17.328,15.7Zm.354,4.4a.354.354,0,0,1-.354.354H13.5a.354.354,0,0,1-.354-.354V16.761a.354.354,0,0,1,.354-.354h3.824a.354.354,0,0,1,.354.354Zm-.895-3.039a.354.354,0,0,0-.5,0l-.871.871-.871-.871a.354.354,0,1,0-.5.5l.871.871-.871.871a.354.354,0,1,0,.5.5l.871-.871.871.871a.354.354,0,1,0,.5-.5l-.871-.871.871-.871a.354.354,0,0,0,0-.5Z" fill="#1aa7e1"/>
      </g>
    </g>
  </g>
</svg>
