<svg xmlns="http://www.w3.org/2000/svg" xmlns:xlink="http://www.w3.org/1999/xlink" width="40" height="40" viewBox="0 0 40 40">
  <defs>
    <clipPath id="clip-path">
      <rect id="Rectangle_3641" data-name="Rectangle 3641" width="24" height="24" transform="translate(32 400)" fill="#1aa7e1" stroke="#707070" stroke-width="1"/>
    </clipPath>
  </defs>
  <g id="Group_6923" data-name="Group 6923" transform="translate(-24 -392)">
    <circle id="Ellipse_438" data-name="Ellipse 438" cx="20" cy="20" r="20" transform="translate(24 392)" fill="#fff"/>
    <g id="Mask_Group_146" data-name="Mask Group 146" clip-path="url(#clip-path)">
      <g id="car-loan_1_" data-name="car-loan (1)" transform="translate(30.983 398.982)">
        <path id="Path_3197" data-name="Path 3197" d="M18.508,17.913h1.424a.407.407,0,1,0,0-.814h-.814v-.407a.407.407,0,1,0-.814,0V17.1c0,.007,0,.013,0,.02a1.422,1.422,0,0,0,.2,2.827h.407a.61.61,0,1,1,0,1.22H17.492a.407.407,0,1,0,0,.814h1.22v.407a.407.407,0,1,0,.814,0v-.55a1.424,1.424,0,0,0-.61-2.7h-.407a.61.61,0,1,1,0-1.22Z" fill="#1aa7e1"/>
        <path id="Path_3198" data-name="Path 3198" d="M21.576,15.119a1.22,1.22,0,0,0-.823-1.637,2.444,2.444,0,0,0,.46-1.289,1.629,1.629,0,0,0,1.364-1.6V7.337A1.629,1.629,0,0,0,20.949,5.71H20.42l-1.238-3.4a1.631,1.631,0,0,0-1.529-1.071H12.041a1.631,1.631,0,0,0-1.529,1.071L9.275,5.71H8.746A1.629,1.629,0,0,0,7.119,7.337H5.94A1.631,1.631,0,0,0,4.411,8.408l-1.238,3.4H2.644a1.627,1.627,0,0,0-1.627,1.627v3.254A1.627,1.627,0,0,0,2.644,18.32h.407v.407a1.629,1.629,0,0,0,1.627,1.627h.814a1.629,1.629,0,0,0,1.627-1.627V18.32h3.254v.407A1.627,1.627,0,0,0,12,20.354c-.007,5.863,12.705,5.919,13.013.2A6.783,6.783,0,0,0,21.576,15.119Zm-.834-.175a.443.443,0,0,1-.293.122H16.381a.407.407,0,1,1,0-.814h4.068a.411.411,0,0,1,.293.692Zm-.45-2.312-.445.807H16.982l-.449-.807a.831.831,0,0,1,.722-1.227H19.57a.828.828,0,0,1,.721,1.227ZM11.277,2.585a.816.816,0,0,1,.765-.535h5.612a.816.816,0,0,1,.765.535L19.555,5.71H10.14ZM8.746,6.524h12.2a.815.815,0,0,1,.814.814v3.254A.859.859,0,0,1,21,11.42a1.621,1.621,0,0,0-1.427-.829H17.256a1.645,1.645,0,0,0-1.627,1.428,2.427,2.427,0,0,0-1.31-.208l-1.238-3.4a1.631,1.631,0,0,0-1.529-1.071H7.932a.815.815,0,0,1,.814-.814ZM5.175,8.686a.816.816,0,0,1,.765-.535h5.612a.816.816,0,0,1,.765.535l1.137,3.126H4.038ZM1.831,16.693V13.439a.816.816,0,0,1,.814-.814h12.2a.816.816,0,0,1,.814.814v.236a1.229,1.229,0,0,0-.37,1.534c-.186.116-.362.247-.537.38a1.624,1.624,0,1,0-1.1,1.04,7.477,7.477,0,0,0-.669.878H2.644A.816.816,0,0,1,1.831,16.693Zm11.39-.814a.814.814,0,1,1,.814-.814.814.814,0,0,1-.814.814ZM6.305,18.727a.815.815,0,0,1-.814.814H4.678a.815.815,0,0,1-.814-.814V18.32H6.305ZM12,19.541a.816.816,0,0,1-.814-.814V18.32h1.346a5.938,5.938,0,0,0-.419,1.22Zm6.508,4.475c-3.14,0-5.695-1.55-5.695-3.458a6.047,6.047,0,0,1,3.1-4.772,44.687,44.687,0,0,0,4.532.094,1.211,1.211,0,0,0,.565-.138A6.035,6.035,0,0,1,24.2,20.558C24.2,22.465,21.649,24.015,18.508,24.015Z" fill="#1aa7e1"/>
        <path id="Path_3199" data-name="Path 3199" d="M5.9,15.066a1.627,1.627,0,1,0-1.627,1.627A1.627,1.627,0,0,0,5.9,15.066Zm-2.441,0a.814.814,0,1,1,.814.814.814.814,0,0,1-.814-.814Zm17.492-6.1a1.627,1.627,0,1,0-1.627,1.627,1.627,1.627,0,0,0,1.627-1.627Zm-1.627.814a.814.814,0,1,1,.814-.814.814.814,0,0,1-.814.814Z" fill="#1aa7e1"/>
      </g>
    </g>
  </g>
</svg>
