<svg xmlns="http://www.w3.org/2000/svg" width="12.727" height="14" viewBox="0 0 12.727 14">
  <path id="calendar" d="M8.364,12.455a.636.636,0,1,0-.636-.636A.636.636,0,0,0,8.364,12.455Zm3.182,0a.636.636,0,1,0-.636-.636A.636.636,0,0,0,11.545,12.455Zm0-2.545a.636.636,0,1,0-.636-.636A.636.636,0,0,0,11.545,9.909Zm-3.182,0a.636.636,0,1,0-.636-.636A.636.636,0,0,0,8.364,9.909Zm4.455-7.636h-.636V1.636a.636.636,0,1,0-1.273,0v.636H5.818V1.636a.636.636,0,1,0-1.273,0v.636H3.909A1.909,1.909,0,0,0,2,4.182v8.909A1.909,1.909,0,0,0,3.909,15h8.909a1.909,1.909,0,0,0,1.909-1.909V4.182A1.909,1.909,0,0,0,12.818,2.273Zm.636,10.818a.636.636,0,0,1-.636.636H3.909a.636.636,0,0,1-.636-.636V7.364H13.455Zm0-7H3.273V4.182a.636.636,0,0,1,.636-.636h.636v.636a.636.636,0,0,0,1.273,0V3.545h5.091v.636a.636.636,0,1,0,1.273,0V3.545h.636a.636.636,0,0,1,.636.636ZM5.182,9.909a.636.636,0,1,0-.636-.636A.636.636,0,0,0,5.182,9.909Zm0,2.545a.636.636,0,1,0-.636-.636A.636.636,0,0,0,5.182,12.455Z" transform="translate(-2 -1)" fill="#083273"/>
</svg>
