<svg id="Group" xmlns="http://www.w3.org/2000/svg" width="33.688" height="35.153" viewBox="0 0 33.688 35.153">
  <g id="e-logo" transform="translate(0 0)">
    <path id="letter" d="M15.468.1c.662.031,1.324.01,1.986,0A15.969,15.969,0,0,1,27.618,4.917a16.674,16.674,0,0,1,4.455,8.221,17.683,17.683,0,0,1,.3,4.409,5.226,5.226,0,0,1-.294,2.212,1.786,1.786,0,0,1-1.2.912,10.129,10.129,0,0,1-2.651.219H17.258a2.887,2.887,0,0,1-2.822-2.948h0q0-.425,0-.76,0-.425,0-.987h0a2.887,2.887,0,0,1,2.821-2.949q3.737,0,5.885-.006a7.738,7.738,0,0,0-4.536-4.573,7.8,7.8,0,0,0-4.9.186,7.6,7.6,0,0,0-4.317,4.392,12.347,12.347,0,0,0,0,7.808,9.442,9.442,0,0,0,1.7,3.284,7.669,7.669,0,0,0,6.022,2.6q1.449-.01,2.494,0-.174.551-.215.719a7.872,7.872,0,0,0-.212,2.091,7.625,7.625,0,0,0,.7,3.011,14.228,14.228,0,0,0,1.5,2.171c-3.611.442-7.909.469-11.41-1.25a17.529,17.529,0,0,1-8.229-8.424A18.225,18.225,0,0,1,.267,15.1,18.015,18.015,0,0,1,6.2,3.862,15.623,15.623,0,0,1,15.468.1Z" transform="translate(-0.098 -0.104)" fill="#02a7e1" fill-rule="evenodd"/>
    <path id="dot" d="M57.137,49.229a5.956,5.956,0,0,1,3.079,3.459,6.485,6.485,0,0,1,.151,3.243c-.056.189-.108.379-.162.568a7.005,7.005,0,0,1-1.414,2.3,6.092,6.092,0,0,1-8.423,0,6.7,6.7,0,0,1-1.58-2.88,7.172,7.172,0,0,1,0-2.667c.057-.189.108-.377.158-.566a5.934,5.934,0,0,1,8.19-3.461Z" transform="translate(-26.817 -25.345)" fill="#f69414" fill-rule="evenodd"/>
  </g>
</svg>
