<svg xmlns="http://www.w3.org/2000/svg" xmlns:xlink="http://www.w3.org/1999/xlink" width="40" height="40" viewBox="0 0 40 40">
  <defs>
    <clipPath id="clip-path">
      <rect id="Rectangle_3642" data-name="Rectangle 3642" width="24" height="24" transform="translate(32 408)" fill="#1aa7e1" stroke="#707070" stroke-width="1"/>
    </clipPath>
  </defs>
  <g id="Group_6917" data-name="Group 6917" transform="translate(-24 -400)">
    <circle id="Ellipse_438" data-name="Ellipse 438" cx="20" cy="20" r="20" transform="translate(24 400)" fill="#fff"/>
    <g id="Mask_Group_144" data-name="Mask Group 144" clip-path="url(#clip-path)">
      <g id="calculator_2_" data-name="calculator (2)" transform="translate(32 408)">
        <path id="Path_3195" data-name="Path 3195" d="M21.422,0H2.578A2.581,2.581,0,0,0,0,2.578V21.422A2.581,2.581,0,0,0,2.578,24H21.422A2.581,2.581,0,0,0,24,21.422V2.578A2.581,2.581,0,0,0,21.422,0Zm1.172,2.578V11.3H12.7V1.406h8.719a1.172,1.172,0,0,1,1.172,1.172ZM2.578,1.406H11.3V11.3H1.406V2.578A1.172,1.172,0,0,1,2.578,1.406ZM1.406,21.422V12.7H11.3v9.891H2.578a1.172,1.172,0,0,1-1.172-1.172Zm20.016,1.172H12.7V12.7h9.891v8.719a1.172,1.172,0,0,1-1.172,1.172Z" fill="#1aa7e1"/>
        <path id="Path_3196" data-name="Path 3196" d="M3.563,7.078H5.672V9.188a.7.7,0,0,0,1.406,0V7.078H9.188a.7.7,0,1,0,0-1.406H7.078V3.563a.7.7,0,1,0-1.406,0V5.672H3.563a.7.7,0,0,0,0,1.406Zm11.25,0h5.625a.7.7,0,1,0,0-1.406H14.813a.7.7,0,0,0,0,1.406ZM7.346,17.625l1.847-1.846a.7.7,0,0,0-.995-.995L6.352,16.631,4.505,14.784a.7.7,0,1,0-.995.995l1.847,1.846L3.51,19.471a.7.7,0,1,0,.995.995l1.846-1.847L8.2,20.466a.7.7,0,0,0,.995-.995Zm10.3,2.086a.7.7,0,0,0-.7.7v.047a.7.7,0,1,0,1.406,0v-.047a.7.7,0,0,0-.7-.7Zm0-4.125a.7.7,0,0,0,.7-.7v-.047a.7.7,0,1,0-1.406,0v.047a.7.7,0,0,0,.7.7Zm2.813,1.359H14.836a.7.7,0,0,0,0,1.406h5.625a.7.7,0,1,0,0-1.406Z" fill="#1aa7e1"/>
      </g>
    </g>
  </g>
</svg>
