<svg xmlns="http://www.w3.org/2000/svg" width="77" height="78" viewBox="0 0 77 78">
  <g id="Cards" transform="translate(0 0)">
    <g id="Background_Complete" transform="translate(2.137 0)">
      <g id="Group_6819" data-name="Group 6819" transform="translate(13.621 2.232)">
        <g id="Group_6818" data-name="Group 6818">
          <path id="Path_2879" data-name="Path 2879" d="M44.322,9.576A5.821,5.821,0,1,1,37.7,4.7a5.818,5.818,0,0,1,6.622,4.874Z" transform="translate(-32.744 -4.636)" fill="#f5f5f5"/>
          <path id="Path_2880" data-name="Path 2880" d="M44.444,11.267A4.437,4.437,0,1,1,39.4,7.552a4.433,4.433,0,0,1,5.047,3.715Z" transform="translate(-34.235 -6.122)" fill="#ebebeb"/>
          <path id="Path_2881" data-name="Path 2881" d="M44.335,10.946a2.531,2.531,0,0,1-.2-.51,4.708,4.708,0,0,0-.708-1.269,4.422,4.422,0,0,0-1.673-1.3,4.386,4.386,0,0,0-1.208-.341,4.284,4.284,0,0,0-.664-.036,4.654,4.654,0,0,0-.681.07,4.524,4.524,0,0,0-.663.177A4.174,4.174,0,0,0,37.934,8a4.082,4.082,0,0,0-.542.345,4.147,4.147,0,0,0-.467.4,4.393,4.393,0,0,0-.7.9,4.6,4.6,0,0,0-.4.912A4.689,4.689,0,0,0,35.61,12a2.736,2.736,0,0,1,0,.545A1.335,1.335,0,0,1,35.477,12a4.1,4.1,0,0,1,.114-1.51A4.435,4.435,0,0,1,36.7,8.529,4.5,4.5,0,0,1,38.43,7.415a4.954,4.954,0,0,1,.713-.192,4.732,4.732,0,0,1,.736-.073,4.358,4.358,0,0,1,.717.044,4.534,4.534,0,0,1,1.294.387,4.512,4.512,0,0,1,1.023.663,4.415,4.415,0,0,1,.712.781,4.115,4.115,0,0,1,.642,1.373,1.344,1.344,0,0,1,.07.55Z" transform="translate(-34.148 -5.939)" fill="#e0e0e0"/>
        </g>
        <path id="Path_2882" data-name="Path 2882" d="M43.594,15.908l.126.763-.681.112-.122-.742a3.278,3.278,0,0,1-1.785-.263l.236-.892a2.787,2.787,0,0,0,1.4.265l-.189-1.136c-.787-.058-1.672-.17-1.833-1.145-.119-.722.3-1.427,1.357-1.728l-.126-.756.681-.112.122.742a3.11,3.11,0,0,1,1.451.187l-.2.894a2.841,2.841,0,0,0-1.1-.182l.192,1.157c.785.051,1.656.166,1.816,1.126.117.708-.3,1.407-1.345,1.712Zm-1.179-2.9-.16-.967c-.347.141-.457.362-.42.588s.265.335.581.379Zm1.442,1.447c-.039-.238-.258-.335-.567-.389l.156.939c.328-.131.448-.333.413-.55Z" transform="translate(-36.883 -7.559)" fill="#e0e0e0"/>
      </g>
      <g id="Group_6821" data-name="Group 6821" transform="translate(52.967 35.718)">
        <g id="Group_6820" data-name="Group 6820">
          <path id="Path_2883" data-name="Path 2883" d="M121.614,77.21a3.572,3.572,0,1,1-4.063-2.992A3.567,3.567,0,0,1,121.614,77.21Z" transform="translate(-114.509 -74.178)" fill="#f5f5f5"/>
          <path id="Path_2884" data-name="Path 2884" d="M121.689,78.251a2.722,2.722,0,1,1-3.1-2.28A2.719,2.719,0,0,1,121.689,78.251Z" transform="translate(-115.425 -75.092)" fill="#ebebeb"/>
          <path id="Path_2885" data-name="Path 2885" d="M121.626,78.052a1.552,1.552,0,0,1-.121-.313,2.885,2.885,0,0,0-.435-.778,2.718,2.718,0,0,0-1.026-.8,2.67,2.67,0,0,0-.741-.209,2.686,2.686,0,0,0-.408-.022,2.623,2.623,0,0,0-.824.151,2.543,2.543,0,0,0-.374.165,2.635,2.635,0,0,0-.333.211,2.669,2.669,0,0,0-.715.8,2.782,2.782,0,0,0-.248.559,2.87,2.87,0,0,0-.131.882,1.9,1.9,0,0,1,0,.335.815.815,0,0,1-.08-.33,2.527,2.527,0,0,1,.07-.928,2.714,2.714,0,0,1,.24-.6,2.76,2.76,0,0,1,.443-.6,2.574,2.574,0,0,1,.3-.27,2.722,2.722,0,0,1,.355-.233,2.852,2.852,0,0,1,.4-.18,3.078,3.078,0,0,1,.438-.117,3.158,3.158,0,0,1,.452-.046,2.7,2.7,0,0,1,.44.027,2.533,2.533,0,0,1,.414.092,2.653,2.653,0,0,1,.379.146,2.825,2.825,0,0,1,.627.406,2.689,2.689,0,0,1,.437.479,2.5,2.5,0,0,1,.394.843.8.8,0,0,1,.042.338Z" transform="translate(-115.373 -74.978)" fill="#e0e0e0"/>
        </g>
        <path id="Path_2886" data-name="Path 2886" d="M121.172,81.1l.078.467-.418.07-.075-.455a2.007,2.007,0,0,1-1.1-.161l.146-.547a1.707,1.707,0,0,0,.86.163l-.116-.7c-.482-.036-1.026-.105-1.125-.7-.073-.443.185-.877.832-1.06l-.076-.464.418-.07.075.455a1.926,1.926,0,0,1,.89.114l-.124.549a1.736,1.736,0,0,0-.674-.112l.117.71c.481.032,1.018.1,1.114.691.071.435-.183.863-.826,1.052Zm-.724-1.777-.1-.593c-.212.087-.28.223-.258.36s.163.206.357.233Zm.885.888c-.024-.146-.158-.206-.348-.238l.1.576C121.28,80.468,121.355,80.344,121.333,80.21Z" transform="translate(-117.053 -75.974)" fill="#e0e0e0"/>
      </g>
      <g id="Group_6823" data-name="Group 6823" transform="translate(0 38.123)">
        <g id="Group_6822" data-name="Group 6822">
          <path id="Path_2887" data-name="Path 2887" d="M14.077,83.286a4.846,4.846,0,1,1-5.512-4.06,4.841,4.841,0,0,1,5.512,4.06Z" transform="translate(-4.438 -79.171)" fill="#f5f5f5"/>
          <path id="Path_2888" data-name="Path 2888" d="M14.178,84.7a3.694,3.694,0,1,1-4.2-3.093A3.688,3.688,0,0,1,14.178,84.7Z" transform="translate(-5.679 -80.411)" fill="#ebebeb"/>
          <path id="Path_2889" data-name="Path 2889" d="M14.084,84.434a2.3,2.3,0,0,1-.163-.425,3.963,3.963,0,0,0-.589-1.057,3.749,3.749,0,0,0-.584-.591,3.656,3.656,0,0,0-.81-.494,3.385,3.385,0,0,0-.482-.175,3.566,3.566,0,0,0-1.075-.138,3.61,3.61,0,0,0-1.118.2,3.681,3.681,0,0,0-.506.223,3.634,3.634,0,0,0-.841.622A3.655,3.655,0,0,0,7,84.111a3.89,3.89,0,0,0-.177,1.2,2.34,2.34,0,0,1,0,.455,1.094,1.094,0,0,1-.109-.448,3.4,3.4,0,0,1,.1-1.257,3.792,3.792,0,0,1,.324-.819,3.726,3.726,0,0,1,.6-.817,3.572,3.572,0,0,1,.411-.367,3.515,3.515,0,0,1,.482-.314,3.6,3.6,0,0,1,.545-.245,4.028,4.028,0,0,1,.595-.16,4.19,4.19,0,0,1,.612-.061,3.839,3.839,0,0,1,.6.036,3.8,3.8,0,0,1,1.077.321,3.693,3.693,0,0,1,.851.552,3.782,3.782,0,0,1,.593.651,3.45,3.45,0,0,1,.535,1.143A1.1,1.1,0,0,1,14.084,84.434Z" transform="translate(-5.604 -80.261)" fill="#e0e0e0"/>
        </g>
        <path id="Path_2890" data-name="Path 2890" d="M13.472,88.562l.105.635-.567.093-.1-.618a2.718,2.718,0,0,1-1.486-.219l.2-.742a2.323,2.323,0,0,0,1.165.221l-.156-.946c-.654-.049-1.391-.143-1.525-.953-.1-.6.251-1.189,1.13-1.439l-.1-.629.567-.093.1.618a2.616,2.616,0,0,1,1.208.155l-.168.744a2.323,2.323,0,0,0-.916-.151l.16.963c.654.042,1.379.139,1.512.938.1.589-.248,1.17-1.121,1.425Zm-.982-2.411-.134-.805c-.289.117-.381.3-.35.489s.221.279.482.316Zm1.2,1.2c-.032-.2-.216-.279-.472-.324l.129.781c.273-.109.374-.277.343-.459Z" transform="translate(-7.885 -81.608)" fill="#e0e0e0"/>
      </g>
      <g id="Group_6826" data-name="Group 6826" transform="translate(36.119)">
        <path id="Path_2891" data-name="Path 2891" d="M110.147,30.314,80.551,21.1A1.442,1.442,0,0,1,79.6,19.3L85.294,1.014A1.44,1.44,0,0,1,87.1.066l29.6,9.212a1.442,1.442,0,0,1,.948,1.806l-5.691,18.282a1.44,1.44,0,0,1-1.806.948Z" transform="translate(-79.538 0)" fill="#e0e0e0"/>
        <g id="Group_6824" data-name="Group 6824" transform="translate(4.117 13.797)">
          <path id="Path_2892" data-name="Path 2892" d="M88.832,28.844l-.559,1.8-.185-.058.508-1.631-.423-.133.051-.165.608.189Z" transform="translate(-88.088 -28.653)" fill="#fff"/>
          <path id="Path_2893" data-name="Path 2893" d="M91,31.576l-.051.165-1.259-.392.041-.131.973-.5c.265-.138.341-.246.379-.369.065-.207-.042-.382-.316-.467a.638.638,0,0,0-.552.048l-.1-.153a.844.844,0,0,1,.717-.058c.364.114.539.37.445.671-.053.172-.155.309-.471.471l-.8.409.987.307Z" transform="translate(-88.92 -29.179)" fill="#fff"/>
          <path id="Path_2894" data-name="Path 2894" d="M94.86,32.585l-.358-.112-.146.472-.185-.058.146-.472L93.3,32.1l.042-.132,1.322-.894.206.065-1.279.873.78.243.129-.416.18.056-.129.416.358.112-.051.165Z" transform="translate(-90.791 -29.908)" fill="#fff"/>
          <path id="Path_2895" data-name="Path 2895" d="M100.577,34.365l-.358-.112-.148.472-.185-.058.148-.472-1.012-.316.041-.134,1.322-.894.206.065-1.279.873.78.243.129-.416.18.056-.129.416.358.112Z" transform="translate(-93.756 -30.83)" fill="#fff"/>
          <path id="Path_2896" data-name="Path 2896" d="M104.051,35.166c-.1.306-.382.477-.82.341a.965.965,0,0,1-.572-.431l.136-.119a.815.815,0,0,0,.488.379c.306.1.513,0,.581-.221s-.027-.42-.484-.561L103,34.436l.372-.871.982.306-.051.165-.82-.255-.24.554.231.071c.542.168.68.445.581.763Z" transform="translate(-95.642 -31.2)" fill="#fff"/>
          <path id="Path_2897" data-name="Path 2897" d="M107.828,36.423a.586.586,0,0,1-.785.36c-.477-.148-.634-.561-.457-1.126a.844.844,0,0,1,1.109-.673.879.879,0,0,1,.4.229l-.121.126a.665.665,0,0,0-.323-.194c-.387-.121-.713.051-.865.539-.014.041-.025.093-.037.148a.6.6,0,0,1,.646-.138.57.57,0,0,1,.438.727Zm-.183-.051a.414.414,0,0,0-.331-.528.414.414,0,1,0-.229.78.412.412,0,0,0,.561-.253Z" transform="translate(-97.642 -31.911)" fill="#fff"/>
          <path id="Path_2898" data-name="Path 2898" d="M112.83,37.864c-.093.3-.384.464-.817.328a.97.97,0,0,1-.574-.431l.136-.119a.825.825,0,0,0,.493.381c.3.093.5.005.574-.217s-.041-.4-.374-.508l-.127-.039.042-.136.691-.469-.919-.285.051-.165,1.155.358-.041.131-.707.481c.379.141.508.4.418.69Z" transform="translate(-100.195 -32.568)" fill="#fff"/>
          <path id="Path_2899" data-name="Path 2899" d="M116.669,39.173a.585.585,0,0,1-.785.36c-.477-.148-.634-.561-.457-1.128a.844.844,0,0,1,1.109-.673.879.879,0,0,1,.4.229l-.121.126a.665.665,0,0,0-.323-.194c-.387-.121-.713.051-.865.539a1.164,1.164,0,0,0-.037.148.6.6,0,0,1,.646-.138.57.57,0,0,1,.438.727Zm-.183-.051a.414.414,0,0,0-.331-.528.414.414,0,1,0-.229.781.413.413,0,0,0,.561-.253Z" transform="translate(-102.226 -33.336)" fill="#fff"/>
          <path id="Path_2900" data-name="Path 2900" d="M120.7,38.786l-.041.131-1.271,1.43-.2-.063,1.247-1.4-.924-.287-.105.336-.182-.056.156-.5,1.318.411Z" transform="translate(-104.211 -33.695)" fill="#fff"/>
          <path id="Path_2901" data-name="Path 2901" d="M126.032,40.447l-.041.131-1.271,1.43-.2-.063,1.247-1.4-.924-.287-.105.336-.182-.056.156-.5,1.318.411Z" transform="translate(-106.977 -34.556)" fill="#fff"/>
          <path id="Path_2902" data-name="Path 2902" d="M128.969,43.025c-.1.318-.43.431-.858.3s-.632-.413-.532-.73a.469.469,0,0,1,.484-.333.425.425,0,0,1-.16-.482c.092-.292.4-.4.776-.279s.578.379.486.673a.427.427,0,0,1-.409.306.474.474,0,0,1,.214.55Zm-.189-.061c.068-.221-.078-.418-.4-.518s-.549-.019-.617.2.075.42.392.52S128.711,43.188,128.781,42.964Zm-.352-.664c.28.087.486.014.547-.182s-.076-.381-.345-.465-.482-.015-.544.185.063.374.343.462Z" transform="translate(-108.55 -35.289)" fill="#fff"/>
          <path id="Path_2903" data-name="Path 2903" d="M132.76,43.74a.845.845,0,0,1-1.109.673.879.879,0,0,1-.4-.229l.121-.126a.665.665,0,0,0,.323.194c.387.121.713-.051.865-.539a1.168,1.168,0,0,0,.037-.148.6.6,0,0,1-.646.138.57.57,0,0,1-.438-.727.586.586,0,0,1,.785-.36c.477.148.634.561.457,1.128Zm-.143-.435a.436.436,0,0,0-.355-.532.411.411,0,1,0-.229.781.437.437,0,0,0,.584-.248Z" transform="translate(-110.469 -35.873)" fill="#fff"/>
          <path id="Path_2904" data-name="Path 2904" d="M137.933,44.128l-.559,1.8-.185-.058.508-1.632-.423-.133.051-.165.608.189Z" transform="translate(-113.545 -36.577)" fill="#fff"/>
          <path id="Path_2905" data-name="Path 2905" d="M140.1,46.863l-.051.165-1.259-.392.041-.131.973-.5c.265-.138.341-.246.379-.369.065-.207-.042-.382-.316-.467a.638.638,0,0,0-.552.048l-.1-.153a.844.844,0,0,1,.717-.058c.364.114.537.37.445.671-.054.172-.155.309-.471.471l-.8.409.987.307Z" transform="translate(-114.378 -37.105)" fill="#fff"/>
          <path id="Path_2906" data-name="Path 2906" d="M143.586,47.439c-.093.3-.384.464-.817.328a.98.98,0,0,1-.574-.431l.136-.119a.819.819,0,0,0,.493.381c.3.093.5.005.574-.217s-.041-.4-.374-.508l-.127-.039.042-.136.691-.469-.919-.285.051-.165,1.155.36-.041.131-.707.481c.379.141.508.4.418.69Z" transform="translate(-116.141 -37.532)" fill="#fff"/>
        </g>
        <rect id="Rectangle_3597" data-name="Rectangle 3597" width="0.817" height="15.065" transform="translate(16.958 22.037) rotate(-72.71)" fill="#fff"/>
        <rect id="Rectangle_3598" data-name="Rectangle 3598" width="0.817" height="7.726" transform="translate(23.48 25.776) rotate(-72.71)" fill="#fff"/>
        <g id="Group_6825" data-name="Group 6825" transform="translate(4.247 7.589)" opacity="0.5">
          <path id="Path_2907" data-name="Path 2907" d="M.843,0H5.477a.842.842,0,0,1,.843.843V3.878a.842.842,0,0,1-.843.843H.843A.842.842,0,0,1,0,3.878V.843A.842.842,0,0,1,.843,0Z" transform="translate(1.403 0) rotate(17.29)" fill="#ebebeb"/>
        </g>
        <path id="Path_2908" data-name="Path 2908" d="M89.164,20.508l.09-.289,3.107.967a.681.681,0,0,0,.4-1.3l-3.107-.968.09-.289,3.107.967a.984.984,0,1,1-.584,1.879L89.164,20.5Z" transform="translate(-84.529 -9.658)" fill="#e0e0e0"/>
        <rect id="Rectangle_3599" data-name="Rectangle 3599" width="0.302" height="2.234" transform="translate(8.781 11.267) rotate(-72.66)" fill="#e0e0e0"/>
        <rect id="Rectangle_3600" data-name="Rectangle 3600" width="16.257" height="1.395" transform="translate(7.519 4.099) rotate(17.29)" fill="#fff"/>
        <rect id="Rectangle_3601" data-name="Rectangle 3601" width="3.272" height="3.272" rx="1.111" transform="translate(31.316 10.524) rotate(17.29)" fill="#fff"/>
      </g>
    </g>
    <g id="Floor" transform="translate(0 75.101)">
      <path id="Path_2909" data-name="Path 2909" d="M77,156.329c0,.024-17.238.044-38.5.044S0,156.353,0,156.329s17.234-.044,38.5-.044S77,156.306,77,156.329Z" transform="translate(0 -156.285)" fill="#263238"/>
    </g>
    <g id="Wallet" transform="translate(1.496 51.726)">
      <g id="Group_6831" data-name="Group 6831">
        <path id="Path_2910" data-name="Path 2910" d="M6.163,107.741H29.9a1.489,1.489,0,0,1,1.488,1.488v20.438a1.489,1.489,0,0,1-1.488,1.488H6.163a1.489,1.489,0,0,1-1.488-1.488V109.23A1.489,1.489,0,0,1,6.163,107.741Z" transform="translate(-3.919 -107.741)" fill="#455a64"/>
        <g id="Group_6827" data-name="Group 6827" transform="translate(0.755 14.676)" opacity="0.3">
          <path id="Path_2911" data-name="Path 2911" d="M4.674,138.9H14.4a.678.678,0,0,0,.678-.678H4.7Z" transform="translate(-4.674 -138.219)"/>
        </g>
        <g id="Group_6828" data-name="Group 6828" transform="translate(0 8.64)">
          <rect id="Rectangle_3602" data-name="Rectangle 3602" width="11.524" height="6.076" rx="1.76" transform="translate(0.04 0.044)" fill="#455a64"/>
          <path id="Path_2912" data-name="Path 2912" d="M13.823,131.8a.782.782,0,0,0,.33-.076.875.875,0,0,0,.321-.25.843.843,0,0,0,.178-.516c0-.858-.008-2.091-.014-3.615v-.586a2.146,2.146,0,0,0-.01-.3.8.8,0,0,0-.093-.28.815.815,0,0,0-.462-.379.952.952,0,0,0-.313-.039h-.333c-.9,0-1.857,0-2.866,0-2.018,0-4.238,0-6.567,0a.807.807,0,0,0-.686.386.775.775,0,0,0-.116.386c0,.139,0,.284,0,.425v3.292c0,.262-.005.53,0,.78a.808.808,0,0,0,.707.717c.116.012.245,0,.367.007h.727c.477,0,.943,0,1.391,0l2.5.005,3.615.014.984.008.255.005a.558.558,0,0,1,.087.005s-.029,0-.087.005-.146,0-.255.005l-.984.008-3.615.014c-.764,0-1.6,0-2.5.005q-.673,0-1.391,0H4.268c-.124,0-.243.007-.375-.007a.9.9,0,0,1-.369-.129.889.889,0,0,1-.411-.657c-.01-.267,0-.522-.005-.788v-3.292c0-.143,0-.282,0-.428a.875.875,0,0,1,.129-.428A.892.892,0,0,1,4,125.684c2.329,0,4.548,0,6.567,0,1.009,0,1.969,0,2.866,0h.333a.982.982,0,0,1,.335.044.882.882,0,0,1,.5.413.855.855,0,0,1,.1.3,2.356,2.356,0,0,1,.008.307v.586c-.007,1.524-.01,2.759-.014,3.617a.855.855,0,0,1-.527.783.924.924,0,0,1-.25.061H13.83Z" transform="translate(-3.106 -125.684)" fill="#263238"/>
        </g>
        <g id="Group_6829" data-name="Group 6829" transform="translate(7.018 10.675)" opacity="0.3">
          <circle id="Ellipse_562" data-name="Ellipse 562" cx="1.706" cy="1.706" r="1.706"/>
        </g>
        <g id="Group_6830" data-name="Group 6830" transform="translate(6.312 9.374)">
          <circle id="Ellipse_563" data-name="Ellipse 563" cx="1.706" cy="1.706" r="1.706" transform="translate(0 2.412) rotate(-45)" fill="#ebebeb"/>
          <path id="Path_2913" data-name="Path 2913" d="M21.043,130.34a3.758,3.758,0,0,0-.07-.413,1.691,1.691,0,0,0-.623-.919,1.664,1.664,0,0,0-1.58-.233,1.54,1.54,0,0,0-.421.228,1.614,1.614,0,0,0-.352.353,1.657,1.657,0,0,0,0,1.965,1.677,1.677,0,0,0,.773.581,1.664,1.664,0,0,0,1.58-.233,1.71,1.71,0,0,0,.623-.919,3.757,3.757,0,0,0,.07-.413,1.3,1.3,0,0,1-.037.421,1.689,1.689,0,0,1-.618.96,1.715,1.715,0,0,1-.729.331,1.748,1.748,0,0,1-.917-.071,1.739,1.739,0,0,1-.814-.606,1.738,1.738,0,0,1,0-2.069,1.665,1.665,0,0,1,.37-.37,1.619,1.619,0,0,1,.443-.236,1.748,1.748,0,0,1,.917-.071,1.724,1.724,0,0,1,1.347,1.291,1.362,1.362,0,0,1,.037.421Z" transform="translate(-16.926 -127.928)" fill="#263238"/>
        </g>
      </g>
    </g>
    <g id="Coins" transform="translate(58.31 60.402)">
      <g id="Group_6844" data-name="Group 6844">
        <g id="Group_6833" data-name="Group 6833" transform="translate(0.559)">
          <rect id="Rectangle_3603" data-name="Rectangle 3603" width="12.544" height="2.529" transform="translate(12.549 2.575) rotate(180)" fill="#083273"/>
          <path id="Path_2914" data-name="Path 2914" d="M146.673,125.945a13.866,13.866,0,0,0,0,2.453,13.862,13.862,0,0,0,0-2.453Z" transform="translate(-134.931 -125.855)" fill="#263238"/>
          <path id="Path_2915" data-name="Path 2915" d="M144.257,125.945a13.866,13.866,0,0,0,0,2.453,13.858,13.858,0,0,0,0-2.453Z" transform="translate(-133.678 -125.855)" fill="#263238"/>
          <path id="Path_2916" data-name="Path 2916" d="M141.872,125.945a13.862,13.862,0,0,0,0,2.453,13.862,13.862,0,0,0,0-2.453Z" transform="translate(-132.442 -125.855)" fill="#263238"/>
          <path id="Path_2917" data-name="Path 2917" d="M139.494,125.945a13.862,13.862,0,0,0,0,2.453,13.866,13.866,0,0,0,0-2.453Z" transform="translate(-131.209 -125.855)" fill="#263238"/>
          <path id="Path_2918" data-name="Path 2918" d="M137.12,125.945a13.862,13.862,0,0,0,0,2.453,13.862,13.862,0,0,0,0-2.453Z" transform="translate(-129.978 -125.855)" fill="#263238"/>
          <path id="Path_2919" data-name="Path 2919" d="M134.745,125.945a13.862,13.862,0,0,0,0,2.453,13.866,13.866,0,0,0,0-2.453Z" transform="translate(-128.747 -125.855)" fill="#263238"/>
          <path id="Path_2920" data-name="Path 2920" d="M132.371,125.945a13.862,13.862,0,0,0,0,2.453,13.866,13.866,0,0,0,0-2.453Z" transform="translate(-127.516 -125.855)" fill="#263238"/>
          <path id="Path_2921" data-name="Path 2921" d="M130,125.945a13.862,13.862,0,0,0,0,2.453,13.866,13.866,0,0,0,0-2.453Z" transform="translate(-126.285 -125.855)" fill="#263238"/>
          <path id="Path_2922" data-name="Path 2922" d="M127.623,125.945a13.864,13.864,0,0,0,0,2.453,13.862,13.862,0,0,0,0-2.453Z" transform="translate(-125.054 -125.855)" fill="#263238"/>
          <path id="Path_2923" data-name="Path 2923" d="M125.248,125.945a13.864,13.864,0,0,0,0,2.453,13.862,13.862,0,0,0,0-2.453Z" transform="translate(-123.823 -125.855)" fill="#263238"/>
          <path id="Path_2924" data-name="Path 2924" d="M122.874,125.945a13.864,13.864,0,0,0,0,2.453,13.862,13.862,0,0,0,0-2.453Z" transform="translate(-122.592 -125.855)" fill="#263238"/>
          <g id="Group_6832" data-name="Group 6832" transform="translate(0.204 0.049)" opacity="0.3">
            <path id="Path_2925" data-name="Path 2925" d="M134.913,125.861a45.764,45.764,0,0,1-12.143,0Z" transform="translate(-122.77 -125.861)"/>
          </g>
          <path id="Path_2926" data-name="Path 2926" d="M122.347,125.813c0,.031,2.8.054,6.26.054s6.262-.024,6.262-.054-2.8-.054-6.262-.054-6.26.024-6.26.054Z" transform="translate(-122.347 -125.758)" fill="#263238"/>
        </g>
        <g id="Group_6835" data-name="Group 6835" transform="translate(0.279 2.489)">
          <rect id="Rectangle_3604" data-name="Rectangle 3604" width="12.544" height="2.529" transform="translate(12.547 2.575) rotate(180)" fill="#083273"/>
          <path id="Path_2927" data-name="Path 2927" d="M146.087,131.11a13.862,13.862,0,0,0,0,2.453,13.862,13.862,0,0,0,0-2.453Z" transform="translate(-134.347 -131.022)" fill="#263238"/>
          <path id="Path_2928" data-name="Path 2928" d="M143.671,131.11a13.866,13.866,0,0,0,0,2.453,13.862,13.862,0,0,0,0-2.453Z" transform="translate(-133.094 -131.022)" fill="#263238"/>
          <path id="Path_2929" data-name="Path 2929" d="M141.286,131.11a13.866,13.866,0,0,0,0,2.453,13.858,13.858,0,0,0,0-2.453Z" transform="translate(-131.858 -131.022)" fill="#263238"/>
          <path id="Path_2930" data-name="Path 2930" d="M138.912,131.11a13.862,13.862,0,0,0,0,2.453,13.866,13.866,0,0,0,0-2.453Z" transform="translate(-130.627 -131.022)" fill="#263238"/>
          <path id="Path_2931" data-name="Path 2931" d="M136.538,131.11a13.862,13.862,0,0,0,0,2.453,13.866,13.866,0,0,0,0-2.453Z" transform="translate(-129.396 -131.022)" fill="#263238"/>
          <path id="Path_2932" data-name="Path 2932" d="M134.163,131.11a13.862,13.862,0,0,0,0,2.453,13.866,13.866,0,0,0,0-2.453Z" transform="translate(-128.165 -131.022)" fill="#263238"/>
          <path id="Path_2933" data-name="Path 2933" d="M131.789,131.11a13.866,13.866,0,0,0,0,2.453,13.862,13.862,0,0,0,0-2.453Z" transform="translate(-126.934 -131.022)" fill="#263238"/>
          <path id="Path_2934" data-name="Path 2934" d="M129.411,131.11a13.862,13.862,0,0,0,0,2.453,13.862,13.862,0,0,0,0-2.453Z" transform="translate(-125.701 -131.022)" fill="#263238"/>
          <path id="Path_2935" data-name="Path 2935" d="M127.037,131.11a13.866,13.866,0,0,0,0,2.453,13.862,13.862,0,0,0,0-2.453Z" transform="translate(-124.47 -131.022)" fill="#263238"/>
          <path id="Path_2936" data-name="Path 2936" d="M124.663,131.11a13.864,13.864,0,0,0,0,2.453,13.864,13.864,0,0,0,0-2.453Z" transform="translate(-123.239 -131.022)" fill="#263238"/>
          <path id="Path_2937" data-name="Path 2937" d="M122.288,131.11a13.864,13.864,0,0,0,0,2.453,13.864,13.864,0,0,0,0-2.453Z" transform="translate(-122.008 -131.022)" fill="#263238"/>
          <g id="Group_6834" data-name="Group 6834" transform="translate(0.202 0.049)" opacity="0.3">
            <path id="Path_2938" data-name="Path 2938" d="M134.327,131.029a45.764,45.764,0,0,1-12.143,0Z" transform="translate(-122.185 -131.029)"/>
          </g>
          <path id="Path_2939" data-name="Path 2939" d="M121.765,130.981c0,.031,2.8.054,6.26.054s6.262-.024,6.262-.054-2.8-.054-6.262-.054S121.765,130.951,121.765,130.981Z" transform="translate(-121.765 -130.927)" fill="#263238"/>
        </g>
        <g id="Group_6837" data-name="Group 6837" transform="translate(1.469 4.937)">
          <rect id="Rectangle_3605" data-name="Rectangle 3605" width="12.544" height="2.529" transform="translate(12.545 2.575) rotate(180)" fill="#083273"/>
          <path id="Path_2940" data-name="Path 2940" d="M148.561,136.194a13.862,13.862,0,0,0,0,2.453,13.866,13.866,0,0,0,0-2.453Z" transform="translate(-136.82 -136.106)" fill="#263238"/>
          <path id="Path_2941" data-name="Path 2941" d="M146.144,136.194a13.866,13.866,0,0,0,0,2.453,13.858,13.858,0,0,0,0-2.453Z" transform="translate(-135.567 -136.106)" fill="#263238"/>
          <path id="Path_2942" data-name="Path 2942" d="M143.759,136.194a13.862,13.862,0,0,0,0,2.453,13.866,13.866,0,0,0,0-2.453Z" transform="translate(-134.331 -136.106)" fill="#263238"/>
          <path id="Path_2943" data-name="Path 2943" d="M141.385,136.194a13.862,13.862,0,0,0,0,2.453,13.862,13.862,0,0,0,0-2.453Z" transform="translate(-133.1 -136.106)" fill="#263238"/>
          <path id="Path_2944" data-name="Path 2944" d="M139.011,136.194a13.866,13.866,0,0,0,0,2.453,13.862,13.862,0,0,0,0-2.453Z" transform="translate(-131.869 -136.106)" fill="#263238"/>
          <path id="Path_2945" data-name="Path 2945" d="M136.636,136.194a13.862,13.862,0,0,0,0,2.453,13.866,13.866,0,0,0,0-2.453Z" transform="translate(-130.638 -136.106)" fill="#263238"/>
          <path id="Path_2946" data-name="Path 2946" d="M134.262,136.194a13.862,13.862,0,0,0,0,2.453,13.866,13.866,0,0,0,0-2.453Z" transform="translate(-129.407 -136.106)" fill="#263238"/>
          <path id="Path_2947" data-name="Path 2947" d="M131.888,136.194a13.862,13.862,0,0,0,0,2.453,13.862,13.862,0,0,0,0-2.453Z" transform="translate(-128.176 -136.106)" fill="#263238"/>
          <path id="Path_2948" data-name="Path 2948" d="M129.513,136.194a13.862,13.862,0,0,0,0,2.453,13.866,13.866,0,0,0,0-2.453Z" transform="translate(-126.945 -136.106)" fill="#263238"/>
          <path id="Path_2949" data-name="Path 2949" d="M127.139,136.194a13.862,13.862,0,0,0,0,2.453,13.866,13.866,0,0,0,0-2.453Z" transform="translate(-125.714 -136.106)" fill="#263238"/>
          <path id="Path_2950" data-name="Path 2950" d="M124.761,136.194a13.864,13.864,0,0,0,0,2.453,13.862,13.862,0,0,0,0-2.453Z" transform="translate(-124.481 -136.106)" fill="#263238"/>
          <g id="Group_6836" data-name="Group 6836" transform="translate(0.202 0.048)" opacity="0.3">
            <path id="Path_2951" data-name="Path 2951" d="M136.8,136.109a45.764,45.764,0,0,1-12.143,0Z" transform="translate(-124.658 -136.109)"/>
          </g>
          <path id="Path_2952" data-name="Path 2952" d="M124.238,136.065c0,.031,2.8.054,6.26.054s6.262-.024,6.262-.054-2.8-.054-6.262-.054S124.238,136.034,124.238,136.065Z" transform="translate(-124.238 -136.01)" fill="#263238"/>
        </g>
        <g id="Group_6839" data-name="Group 6839" transform="translate(0 7.446)">
          <rect id="Rectangle_3606" data-name="Rectangle 3606" width="12.544" height="2.433" transform="translate(12.547 2.48) rotate(180)" fill="#083273"/>
          <path id="Path_2953" data-name="Path 2953" d="M145.509,141.4a12.81,12.81,0,0,0,0,2.358,12.813,12.813,0,0,0,0-2.358Z" transform="translate(-133.769 -141.316)" fill="#263238"/>
          <path id="Path_2954" data-name="Path 2954" d="M143.092,141.4a12.81,12.81,0,0,0,0,2.358,12.81,12.81,0,0,0,0-2.358Z" transform="translate(-132.516 -141.316)" fill="#263238"/>
          <path id="Path_2955" data-name="Path 2955" d="M140.707,141.4a12.81,12.81,0,0,0,0,2.358,12.813,12.813,0,0,0,0-2.358Z" transform="translate(-131.279 -141.316)" fill="#263238"/>
          <path id="Path_2956" data-name="Path 2956" d="M138.333,141.4a12.81,12.81,0,0,0,0,2.358,12.813,12.813,0,0,0,0-2.358Z" transform="translate(-130.048 -141.316)" fill="#263238"/>
          <path id="Path_2957" data-name="Path 2957" d="M135.959,141.4a12.81,12.81,0,0,0,0,2.358,12.81,12.81,0,0,0,0-2.358Z" transform="translate(-128.817 -141.316)" fill="#263238"/>
          <path id="Path_2958" data-name="Path 2958" d="M133.585,141.4a12.813,12.813,0,0,0,0,2.358,12.81,12.81,0,0,0,0-2.358Z" transform="translate(-127.586 -141.316)" fill="#263238"/>
          <path id="Path_2959" data-name="Path 2959" d="M131.21,141.4a12.81,12.81,0,0,0,0,2.358,12.813,12.813,0,0,0,0-2.358Z" transform="translate(-126.355 -141.316)" fill="#263238"/>
          <path id="Path_2960" data-name="Path 2960" d="M128.836,141.4a12.81,12.81,0,0,0,0,2.358,12.813,12.813,0,0,0,0-2.358Z" transform="translate(-125.124 -141.316)" fill="#263238"/>
          <path id="Path_2961" data-name="Path 2961" d="M126.462,141.4a12.812,12.812,0,0,0,0,2.358,12.81,12.81,0,0,0,0-2.358Z" transform="translate(-123.893 -141.316)" fill="#263238"/>
          <path id="Path_2962" data-name="Path 2962" d="M124.084,141.4a12.812,12.812,0,0,0,0,2.358,12.812,12.812,0,0,0,0-2.358Z" transform="translate(-122.661 -141.316)" fill="#263238"/>
          <path id="Path_2963" data-name="Path 2963" d="M121.71,141.4a12.812,12.812,0,0,0,0,2.358,12.812,12.812,0,0,0,0-2.358Z" transform="translate(-121.43 -141.316)" fill="#263238"/>
          <g id="Group_6838" data-name="Group 6838" transform="translate(0.202 0.049)" opacity="0.3">
            <path id="Path_2964" data-name="Path 2964" d="M133.749,141.323a35.889,35.889,0,0,1-12.143,0Z" transform="translate(-121.606 -141.323)"/>
          </g>
          <path id="Path_2965" data-name="Path 2965" d="M121.186,141.275c0,.031,2.8.054,6.26.054s6.262-.024,6.262-.054-2.8-.054-6.262-.054-6.26.024-6.26.054Z" transform="translate(-121.186 -141.221)" fill="#263238"/>
        </g>
        <g id="Group_6841" data-name="Group 6841" transform="translate(0.805 9.88)">
          <rect id="Rectangle_3607" data-name="Rectangle 3607" width="12.544" height="2.433" transform="translate(12.549 2.48) rotate(180)" fill="#083273"/>
          <path id="Path_2966" data-name="Path 2966" d="M147.185,146.46a12.813,12.813,0,0,0,0,2.358,12.81,12.81,0,0,0,0-2.358Z" transform="translate(-135.443 -146.372)" fill="#263238"/>
          <path id="Path_2967" data-name="Path 2967" d="M144.768,146.46a12.813,12.813,0,0,0,0,2.358,12.81,12.81,0,0,0,0-2.358Z" transform="translate(-134.19 -146.372)" fill="#263238"/>
          <path id="Path_2968" data-name="Path 2968" d="M142.383,146.46a12.81,12.81,0,0,0,0,2.358,12.813,12.813,0,0,0,0-2.358Z" transform="translate(-132.953 -146.372)" fill="#263238"/>
          <path id="Path_2969" data-name="Path 2969" d="M140.005,146.46a12.81,12.81,0,0,0,0,2.358,12.813,12.813,0,0,0,0-2.358Z" transform="translate(-131.721 -146.372)" fill="#263238"/>
          <path id="Path_2970" data-name="Path 2970" d="M137.631,146.46a12.81,12.81,0,0,0,0,2.358,12.81,12.81,0,0,0,0-2.358Z" transform="translate(-130.49 -146.372)" fill="#263238"/>
          <path id="Path_2971" data-name="Path 2971" d="M135.257,146.46a12.813,12.813,0,0,0,0,2.358,12.81,12.81,0,0,0,0-2.358Z" transform="translate(-129.259 -146.372)" fill="#263238"/>
          <path id="Path_2972" data-name="Path 2972" d="M132.883,146.46a12.81,12.81,0,0,0,0,2.358,12.813,12.813,0,0,0,0-2.358Z" transform="translate(-128.028 -146.372)" fill="#263238"/>
          <path id="Path_2973" data-name="Path 2973" d="M130.508,146.46a12.81,12.81,0,0,0,0,2.358,12.813,12.813,0,0,0,0-2.358Z" transform="translate(-126.797 -146.372)" fill="#263238"/>
          <path id="Path_2974" data-name="Path 2974" d="M128.134,146.46a12.81,12.81,0,0,0,0,2.358,12.813,12.813,0,0,0,0-2.358Z" transform="translate(-125.566 -146.372)" fill="#263238"/>
          <path id="Path_2975" data-name="Path 2975" d="M125.76,146.46a12.812,12.812,0,0,0,0,2.358,12.81,12.81,0,0,0,0-2.358Z" transform="translate(-124.335 -146.372)" fill="#263238"/>
          <path id="Path_2976" data-name="Path 2976" d="M123.386,146.46a12.812,12.812,0,0,0,0,2.358,12.812,12.812,0,0,0,0-2.358Z" transform="translate(-123.104 -146.372)" fill="#263238"/>
          <g id="Group_6840" data-name="Group 6840" transform="translate(0.204 0.049)" opacity="0.3">
            <path id="Path_2977" data-name="Path 2977" d="M135.424,146.379a31.775,31.775,0,0,1-12.143,0Z" transform="translate(-123.282 -146.379)"/>
          </g>
          <path id="Path_2978" data-name="Path 2978" d="M122.858,146.331c0,.031,2.8.054,6.26.054s6.262-.024,6.262-.054-2.8-.054-6.262-.054-6.26.024-6.26.054Z" transform="translate(-122.858 -146.277)" fill="#263238"/>
        </g>
        <g id="Group_6843" data-name="Group 6843" transform="translate(0.088 12.28)">
          <rect id="Rectangle_3608" data-name="Rectangle 3608" width="12.544" height="2.433" transform="translate(12.549 2.48) rotate(180)" fill="#083273"/>
          <path id="Path_2979" data-name="Path 2979" d="M145.7,151.441a12.81,12.81,0,0,0,0,2.358,12.81,12.81,0,0,0,0-2.358Z" transform="translate(-133.954 -151.355)" fill="#263238"/>
          <path id="Path_2980" data-name="Path 2980" d="M143.279,151.441a12.81,12.81,0,0,0,0,2.358,12.813,12.813,0,0,0,0-2.358Z" transform="translate(-132.701 -151.355)" fill="#263238"/>
          <path id="Path_2981" data-name="Path 2981" d="M140.894,151.441a12.81,12.81,0,0,0,0,2.358,12.813,12.813,0,0,0,0-2.358Z" transform="translate(-131.465 -151.355)" fill="#263238"/>
          <path id="Path_2982" data-name="Path 2982" d="M138.52,151.441a12.81,12.81,0,0,0,0,2.358,12.813,12.813,0,0,0,0-2.358Z" transform="translate(-130.234 -151.355)" fill="#263238"/>
          <path id="Path_2983" data-name="Path 2983" d="M136.146,151.441a12.81,12.81,0,0,0,0,2.358,12.813,12.813,0,0,0,0-2.358Z" transform="translate(-129.003 -151.355)" fill="#263238"/>
          <path id="Path_2984" data-name="Path 2984" d="M133.772,151.441a12.813,12.813,0,0,0,0,2.358,12.81,12.81,0,0,0,0-2.358Z" transform="translate(-127.772 -151.355)" fill="#263238"/>
          <path id="Path_2985" data-name="Path 2985" d="M131.394,151.441a12.813,12.813,0,0,0,0,2.358,12.81,12.81,0,0,0,0-2.358Z" transform="translate(-126.539 -151.355)" fill="#263238"/>
          <path id="Path_2986" data-name="Path 2986" d="M129.02,151.441a12.81,12.81,0,0,0,0,2.358,12.813,12.813,0,0,0,0-2.358Z" transform="translate(-125.308 -151.355)" fill="#263238"/>
          <path id="Path_2987" data-name="Path 2987" d="M126.645,151.441a12.812,12.812,0,0,0,0,2.358,12.812,12.812,0,0,0,0-2.358Z" transform="translate(-124.077 -151.355)" fill="#263238"/>
          <path id="Path_2988" data-name="Path 2988" d="M124.271,151.441a12.812,12.812,0,0,0,0,2.358,12.81,12.81,0,0,0,0-2.358Z" transform="translate(-122.846 -151.355)" fill="#263238"/>
          <path id="Path_2989" data-name="Path 2989" d="M121.9,151.441a12.812,12.812,0,0,0,0,2.358,12.81,12.81,0,0,0,0-2.358Z" transform="translate(-121.615 -151.355)" fill="#263238"/>
          <g id="Group_6842" data-name="Group 6842" transform="translate(0.204 0.049)" opacity="0.3">
            <path id="Path_2990" data-name="Path 2990" d="M133.936,151.364a35.889,35.889,0,0,1-12.143,0Z" transform="translate(-121.793 -151.364)"/>
          </g>
          <path id="Path_2991" data-name="Path 2991" d="M121.37,151.316c0,.031,2.8.054,6.26.054s6.262-.024,6.262-.054-2.8-.054-6.262-.054S121.37,151.285,121.37,151.316Z" transform="translate(-121.37 -151.261)" fill="#263238"/>
        </g>
        <path id="Path_2992" data-name="Path 2992" d="M147.264,140.572a.187.187,0,0,1,0-.041c0-.032,0-.071,0-.122,0-.114,0-.272-.007-.474,0-.418-.007-1.016-.012-1.762v-.027h.027c.217,0,.448,0,.691,0l-.031.031c0-.71-.005-1.534-.007-2.434l.037.037h-.846v-.039c0-.753,0-1.568,0-2.414v-.041h1.51l-.041.041c0-.9,0-1.765,0-2.575l.039.039q-.619,0-1.191,0h-.037v-.037c0-.88.005-1.675.007-2.36v-.029h.336l-.027.027c0-.783-.005-1.413-.007-1.852,0-.212,0-.379,0-.5,0-.053,0-.1,0-.129a.129.129,0,0,1,0-.044.312.312,0,0,1,.005.044c0,.034,0,.076.005.129,0,.119.007.285.012.5.007.438.019,1.069.031,1.852v.027h-.335l.029-.029c0,.685.005,1.478.007,2.36l-.036-.036q.571,0,1.191,0h.039v.039c0,.81,0,1.677,0,2.575v.041h-1.51l.041-.041c0,.848,0,1.661,0,2.414l-.039-.039h.844v.037c0,.9-.005,1.724-.007,2.434v.031h-.031c-.243,0-.474,0-.691,0l.027-.027c-.005.746-.01,1.344-.012,1.762,0,.2-.005.36-.007.474,0,.051,0,.09,0,.122a.108.108,0,0,1,0,.041Z" transform="translate(-134.627 -125.813)" fill="#263238"/>
      </g>
    </g>
    <g id="Device" transform="translate(25.716 7.427)">
      <g id="Group_6857" data-name="Group 6857">
        <g id="Group_6845" data-name="Group 6845">
          <path id="Path_2993" data-name="Path 2993" d="M81.5,83.091l-23.011-.107A5.006,5.006,0,0,1,53.5,77.962L53.741,20.4a5.006,5.006,0,0,1,5.035-4.98l23.011.107a5.007,5.007,0,0,1,4.989,5.022l-.245,57.559a5.006,5.006,0,0,1-5.035,4.98Z" transform="translate(-53.497 -15.424)" fill="#263238"/>
          <path id="Path_2994" data-name="Path 2994" d="M83.4,19.667l-4.461-.02-13.029-.059-1.57-.007-3.905-.019a3.506,3.506,0,0,0-3.527,3.488l-.238,56.172a3.505,3.505,0,0,0,3.494,3.516l22.965.105a3.506,3.506,0,0,0,3.527-3.488l.238-56.172A3.505,3.505,0,0,0,83.4,19.667Z" transform="translate(-55.141 -17.569)" fill="#fafafa"/>
        </g>
        <g id="Group_6846" data-name="Group 6846" transform="translate(27.844 6.928)">
          <path id="Path_2995" data-name="Path 2995" d="M111.916,30.1a.288.288,0,1,1-.287-.289A.288.288,0,0,1,111.916,30.1Z" transform="translate(-111.331 -29.811)" fill="#263238"/>
          <path id="Path_2996" data-name="Path 2996" d="M111.905,32.244a.288.288,0,1,1-.287-.289A.288.288,0,0,1,111.905,32.244Z" transform="translate(-111.326 -30.923)" fill="#263238"/>
          <path id="Path_2997" data-name="Path 2997" d="M111.9,34.393a.288.288,0,1,1-.287-.289A.288.288,0,0,1,111.9,34.393Z" transform="translate(-111.322 -32.037)" fill="#263238"/>
        </g>
        <g id="Group_6852" data-name="Group 6852" transform="translate(4.242 15.137)">
          <rect id="Rectangle_3609" data-name="Rectangle 3609" width="24.479" height="15.53" rx="1.517" transform="translate(1.449 1.847)" fill="#ebebeb"/>
          <rect id="Rectangle_3610" data-name="Rectangle 3610" width="24.479" height="15.53" rx="1.517" transform="translate(0.776 0.839)" fill="#e0e0e0"/>
          <g id="Group_6850" data-name="Group 6850" transform="translate(0 0)">
            <rect id="Rectangle_3611" data-name="Rectangle 3611" width="24.479" height="15.53" rx="1.517" fill="#083273"/>
            <g id="Group_6847" data-name="Group 6847" transform="translate(2.976 2.713)">
              <path id="Path_2998" data-name="Path 2998" d="M69.542,53.421c0,.2-.158.314-.46.314h-.595V52.587h.562c.287,0,.435.121.435.3a.276.276,0,0,1-.153.253.284.284,0,0,1,.211.284Zm-.79-.635v.27h.265c.129,0,.2-.046.2-.136s-.071-.134-.2-.134Zm.522.608c0-.1-.073-.143-.212-.143H68.75v.284h.311C69.2,53.535,69.273,53.492,69.273,53.394Z" transform="translate(-68.487 -52.587)" fill="#fff"/>
              <path id="Path_2999" data-name="Path 2999" d="M71.687,53.489h-.533l-.1.246H70.78l.511-1.148h.263l.513,1.148h-.279Zm-.083-.2-.182-.44-.182.44h.365Z" transform="translate(-69.676 -52.587)" fill="#fff"/>
              <path id="Path_3000" data-name="Path 3000" d="M74.756,52.587v1.148h-.219l-.572-.7v.7H73.7V52.587h.221l.571.7v-.7Z" transform="translate(-71.19 -52.587)" fill="#fff"/>
              <path id="Path_3001" data-name="Path 3001" d="M76.872,53.283l-.155.161v.29h-.265V52.587h.265v.537l.51-.537h.3l-.476.511.5.637h-.311l-.367-.452Z" transform="translate(-72.617 -52.587)" fill="#fff"/>
            </g>
            <g id="Group_6848" data-name="Group 6848" transform="translate(2.901 7.541)">
              <path id="Path_3002" data-name="Path 3002" d="M69.245,63.4h-.211v.277h-.109V63.4h-.595v-.078l.559-.7h.121l-.54.681h.459v-.245h.105v.245h.211Z" transform="translate(-68.332 -62.62)" fill="#fff"/>
              <path id="Path_3003" data-name="Path 3003" d="M71.017,63.379c0,.177-.127.313-.382.313a.548.548,0,0,1-.381-.136l.053-.087a.462.462,0,0,0,.328.122c.175,0,.272-.082.272-.212s-.088-.209-.285-.209h-.075v-.08l.292-.367H70.3v-.1h.678V62.7l-.3.375C70.9,63.091,71.017,63.21,71.017,63.379Z" transform="translate(-69.328 -62.62)" fill="#fff"/>
              <path id="Path_3004" data-name="Path 3004" d="M72.79,63.373c0,.18-.126.319-.382.319a.544.544,0,0,1-.379-.136l.053-.087a.456.456,0,0,0,.324.122c.18,0,.273-.087.273-.216s-.085-.221-.353-.221H72.1l.054-.528h.578v.1h-.482l-.036.336h.136C72.669,63.06,72.79,63.186,72.79,63.373Z" transform="translate(-70.248 -62.62)" fill="#fff"/>
              <path id="Path_3005" data-name="Path 3005" d="M74.685,63.36a.329.329,0,0,1-.36.324c-.28,0-.433-.194-.433-.527,0-.358.2-.545.482-.545a.481.481,0,0,1,.25.058l-.044.087a.373.373,0,0,0-.206-.049c-.228,0-.374.146-.374.433a.545.545,0,0,0,.005.087.338.338,0,0,1,.323-.18.319.319,0,0,1,.355.316Zm-.107,0c0-.139-.1-.228-.265-.228a.244.244,0,0,0-.272.231c0,.116.1.226.279.226A.231.231,0,0,0,74.578,63.364Z" transform="translate(-71.214 -62.613)" fill="#fff"/>
              <path id="Path_3006" data-name="Path 3006" d="M79.6,63.969l-.251-.331-.253.331h-.121l.314-.406-.3-.386h.121l.238.311.238-.311H79.7l-.3.386.316.406H79.6Z" transform="translate(-73.85 -62.905)" fill="#fff"/>
              <path id="Path_3007" data-name="Path 3007" d="M81.273,63.969l-.251-.331-.253.331h-.121l.314-.406-.3-.386h.121l.238.311.238-.311h.117l-.3.386.316.406h-.122Z" transform="translate(-74.717 -62.905)" fill="#fff"/>
              <path id="Path_3008" data-name="Path 3008" d="M82.941,63.969l-.251-.331-.253.331h-.121l.314-.406-.3-.386h.121l.238.311.238-.311h.117l-.3.386.316.406h-.122Z" transform="translate(-75.582 -62.905)" fill="#fff"/>
              <path id="Path_3009" data-name="Path 3009" d="M84.613,63.969l-.251-.331-.253.331h-.121l.314-.406-.3-.386h.121l.238.311.238-.311h.117l-.3.386.316.406h-.122Z" transform="translate(-76.449 -62.905)" fill="#fff"/>
              <path id="Path_3010" data-name="Path 3010" d="M90.381,63.969l-.251-.331-.253.331h-.121l.314-.406-.3-.386h.121l.238.311.238-.311h.117l-.3.386.316.406H90.38Z" transform="translate(-79.44 -62.905)" fill="#fff"/>
              <path id="Path_3011" data-name="Path 3011" d="M92.054,63.969l-.251-.331-.253.331h-.121l.314-.406-.3-.386h.121l.238.311.238-.311h.117l-.3.386.316.406h-.122Z" transform="translate(-80.307 -62.905)" fill="#fff"/>
              <path id="Path_3012" data-name="Path 3012" d="M93.726,63.969l-.251-.331-.253.331H93.1l.314-.406-.3-.386h.121l.238.311.238-.311h.117l-.3.386.316.406h-.122Z" transform="translate(-81.174 -62.905)" fill="#fff"/>
              <path id="Path_3013" data-name="Path 3013" d="M95.395,63.969l-.251-.331-.253.331h-.121l.314-.406-.3-.386h.121l.238.311.238-.311H95.5l-.3.386.316.406h-.122Z" transform="translate(-82.039 -62.905)" fill="#fff"/>
              <path id="Path_3014" data-name="Path 3014" d="M100.866,62.63v1.055h-.109v-.958h-.248v-.1Z" transform="translate(-85.015 -62.622)" fill="#fff"/>
              <path id="Path_3015" data-name="Path 3015" d="M102.4,63.379c0,.177-.127.313-.382.313a.548.548,0,0,1-.381-.136l.053-.087a.462.462,0,0,0,.328.122c.175,0,.272-.082.272-.212s-.088-.209-.285-.209h-.075v-.08l.292-.367h-.54v-.1h.678V62.7l-.3.375C102.287,63.091,102.4,63.21,102.4,63.379Z" transform="translate(-85.6 -62.62)" fill="#fff"/>
              <path id="Path_3016" data-name="Path 3016" d="M104.415,63.4H104.2v.277H104.1V63.4H103.5v-.078l.559-.7h.121l-.54.681h.459v-.245h.105v.245h.211Z" transform="translate(-86.566 -62.62)" fill="#fff"/>
              <path id="Path_3017" data-name="Path 3017" d="M106.258,63.579v.1h-.741V63.6l.438-.43c.119-.117.141-.189.141-.26,0-.122-.085-.2-.246-.2a.354.354,0,0,0-.287.117l-.076-.066a.473.473,0,0,1,.374-.151c.214,0,.35.109.35.285a.435.435,0,0,1-.173.33l-.358.353h.581Z" transform="translate(-87.596 -62.613)" fill="#fff"/>
            </g>
            <g id="Group_6849" data-name="Group 6849" transform="translate(2.358 10.532)">
              <path id="Path_3018" data-name="Path 3018" d="M67.2,69.085a.259.259,0,0,1,.273-.26.265.265,0,0,1,.207.088l-.075.07a.162.162,0,0,0-.126-.059.161.161,0,1,0,0,.323.157.157,0,0,0,.126-.059l.075.07a.261.261,0,0,1-.207.09.258.258,0,0,1-.272-.26Z" transform="translate(-67.203 -68.825)" fill="#fff"/>
              <path id="Path_3019" data-name="Path 3019" d="M68.606,69.239h-.234l-.044.107h-.119l.224-.5h.116l.224.5H68.65l-.044-.107Zm-.037-.088-.08-.192-.08.192Z" transform="translate(-67.724 -68.835)" fill="#fff"/>
              <path id="Path_3020" data-name="Path 3020" d="M69.81,69.346l-.1-.141h-.107v.141h-.117v-.5h.217c.134,0,.219.07.219.183a.165.165,0,0,1-.1.16l.114.161H69.81Zm-.109-.408h-.1v.175h.1c.071,0,.107-.032.107-.088s-.036-.088-.107-.088Z" transform="translate(-68.388 -68.835)" fill="#fff"/>
              <path id="Path_3021" data-name="Path 3021" d="M70.508,69.287l.039-.088a.3.3,0,0,0,.166.053c.07,0,.1-.024.1-.054,0-.093-.292-.029-.292-.216,0-.085.07-.156.212-.156a.348.348,0,0,1,.175.044l-.036.088a.28.28,0,0,0-.139-.039c-.07,0-.1.025-.1.058,0,.093.292.029.292.214,0,.085-.07.156-.214.156a.368.368,0,0,1-.206-.058Z" transform="translate(-68.917 -68.825)" fill="#fff"/>
              <path id="Path_3022" data-name="Path 3022" d="M72.425,68.843v.5h-.117V69.14h-.229v.206h-.117v-.5h.117v.2h.229v-.2Z" transform="translate(-69.67 -68.835)" fill="#fff"/>
              <path id="Path_3023" data-name="Path 3023" d="M73.108,69.085a.276.276,0,1,1,.275.26A.261.261,0,0,1,73.108,69.085Zm.433,0a.158.158,0,1,0-.158.161A.154.154,0,0,0,73.541,69.085Z" transform="translate(-70.265 -68.825)" fill="#fff"/>
              <path id="Path_3024" data-name="Path 3024" d="M74.438,68.843h.117v.408h.253v.1H74.44v-.5Z" transform="translate(-70.954 -68.835)" fill="#fff"/>
              <path id="Path_3025" data-name="Path 3025" d="M75.341,68.843h.229a.253.253,0,1,1,0,.5h-.229Zm.223.408a.157.157,0,1,0,0-.313h-.107v.313Z" transform="translate(-71.422 -68.835)" fill="#fff"/>
              <path id="Path_3026" data-name="Path 3026" d="M76.965,69.252v.093h-.389v-.5h.381v.093h-.265v.109h.234v.09h-.234v.117Z" transform="translate(-72.063 -68.835)" fill="#fff"/>
              <path id="Path_3027" data-name="Path 3027" d="M77.9,69.346l-.1-.141H77.7v.141h-.116v-.5H77.8c.134,0,.219.07.219.183a.165.165,0,0,1-.1.16l.114.161H77.9Zm-.109-.408h-.1v.175h.1c.071,0,.107-.032.107-.088s-.036-.088-.107-.088Z" transform="translate(-72.584 -68.835)" fill="#fff"/>
            </g>
            <rect id="Rectangle_3612" data-name="Rectangle 3612" width="7.466" height="0.646" rx="0.323" transform="translate(2.242 12.296)" fill="#fff"/>
            <rect id="Rectangle_3613" data-name="Rectangle 3613" width="4.148" height="0.646" rx="0.323" transform="translate(17.901 12.296)" fill="#fff"/>
          </g>
          <g id="Group_6851" data-name="Group 6851" opacity="0.2">
            <path id="Path_3028" data-name="Path 3028" d="M85.973,46.953H63.116a.81.81,0,0,0-.81.81v4.1a6.791,6.791,0,0,0,5.188.815,29.487,29.487,0,0,0,5.886-2.363,10.813,10.813,0,0,1,6.144-1.21c1.971.338,3.651,1.566,5.433,2.475a10.616,10.616,0,0,0,1.83.737V47.765a.81.81,0,0,0-.81-.81Z" transform="translate(-62.306 -46.953)" fill="#fff"/>
          </g>
        </g>
        <path id="Path_3029" data-name="Path 3029" d="M86.573,86.752c0,.024-6.708.044-14.981.044s-14.983-.02-14.983-.044,6.707-.044,14.983-.044S86.573,86.729,86.573,86.752Z" transform="translate(-55.11 -52.459)" fill="#e0e0e0"/>
        <g id="Group_6854" data-name="Group 6854" transform="translate(6.868 45.555)">
          <rect id="Rectangle_3614" data-name="Rectangle 3614" width="19.542" height="6.589" rx="3.295" fill="#083273"/>
          <g id="Group_6853" data-name="Group 6853" transform="translate(8.076 2.443)">
            <path id="Path_3030" data-name="Path 3030" d="M85.843,115.876c0,.331-.25.537-.647.537h-.253v.381h-.411v-1.456H85.2c.4,0,.647.206.647.539Zm-.416,0c0-.136-.085-.214-.255-.214h-.229v.426h.229C85.342,116.088,85.427,116.01,85.427,115.876Z" transform="translate(-84.532 -115.335)" fill="#fff"/>
            <path id="Path_3031" data-name="Path 3031" d="M88.3,116.507H87.69l-.114.282h-.42l.642-1.456H88.2l.644,1.456H88.42l-.114-.282Zm-.121-.3L88,115.738l-.187.465h.374Z" transform="translate(-85.892 -115.333)" fill="#fff"/>
            <path id="Path_3032" data-name="Path 3032" d="M91.3,116.268v.522h-.411v-.528l-.555-.928h.435l.345.578.345-.578h.4Z" transform="translate(-87.539 -115.334)" fill="#fff"/>
          </g>
        </g>
        <circle id="Ellipse_564" data-name="Ellipse 564" cx="1.269" cy="1.269" r="1.269" transform="translate(3.617 9.654) rotate(-76.67)" fill="#083273"/>
        <rect id="Rectangle_3615" data-name="Rectangle 3615" width="9.503" height="1.113" rx="0.556" transform="translate(11.73 8.059)" fill="#e0e0e0"/>
        <rect id="Rectangle_3616" data-name="Rectangle 3616" width="19.398" height="1.296" transform="translate(7.903 54.033)" fill="#263238"/>
        <g id="Group_6855" data-name="Group 6855" transform="translate(8.811 54.641)">
          <path id="Path_3033" data-name="Path 3033" d="M71.814,129.233c.17.056,2.443.056,2.443,4.544S74.143,143.831,76.528,144s14.937,0,14.937,0V132.74a3.413,3.413,0,0,0-3.392-3.413Z" transform="translate(-71.805 -129.227)" fill="#fafafa"/>
          <path id="Path_3034" data-name="Path 3034" d="M71.8,129.226l9.435.029c1.464.005,3.066.012,4.787.017q.645,0,1.313.007a7.786,7.786,0,0,1,1.356.066,3.453,3.453,0,0,1,2.772,2.958,5.817,5.817,0,0,1,.029.749v10.984h-.044c-4.39.053-8.565.093-12.358.063-.474,0-.943-.012-1.4-.022A13.586,13.586,0,0,1,76.318,144a1.554,1.554,0,0,1-.615-.289,2.25,2.25,0,0,1-.442-.5,4.493,4.493,0,0,1-.506-1.187,13.272,13.272,0,0,1-.4-2.407c-.07-.78-.1-1.531-.117-2.246-.037-1.432-.008-2.727-.025-3.861a6.9,6.9,0,0,0-.549-2.828,3.09,3.09,0,0,0-.606-.858,2.358,2.358,0,0,0-.64-.428,3.075,3.075,0,0,0-.613-.173l.161.024a2.116,2.116,0,0,1,1.111.557,3.106,3.106,0,0,1,.62.861,6.9,6.9,0,0,1,.566,2.842c.022,1.136,0,2.431.037,3.86.02.715.051,1.464.122,2.241A13.194,13.194,0,0,0,74.823,142a4.441,4.441,0,0,0,.5,1.167,2.174,2.174,0,0,0,.426.482,1.48,1.48,0,0,0,.584.273c.435.058.9.054,1.357.07s.929.017,1.4.02c3.792.025,7.967-.017,12.357-.07l-.044.044v-10.94a6.235,6.235,0,0,0-.029-.739,3.359,3.359,0,0,0-2.706-2.893,7.7,7.7,0,0,0-1.339-.068c-.442,0-.878-.007-1.306-.008l-4.763-.037-9.467-.082Z" transform="translate(-71.796 -129.219)" fill="#263238"/>
        </g>
        <path id="Path_3035" data-name="Path 3035" d="M81.723,149.635s1.964,0,2.385-2.9c.5-3.452,0-6.474,2.669-6.588s9.826,0,9.826,0v9.484Z" transform="translate(-68.132 -80.219)" fill="#e0e0e0"/>
        <g id="Group_6856" data-name="Group 6856" transform="translate(18.311 59.826)">
          <path id="Path_3036" data-name="Path 3036" d="M91.524,140.167s2.152-.262,2.152,3.318.056,5.944,2.443,6.209,17.039,0,17.039,0a5.007,5.007,0,0,1-2.5-4.335c-.17-3.238-.851-5.212-3.18-5.276s-15.955.085-15.955.085Z" transform="translate(-91.524 -140.028)" fill="#fafafa"/>
          <path id="Path_3037" data-name="Path 3037" d="M91.524,140.126c.025,0,.063,0,.144-.007l.423-.008,1.631-.025,6.007-.066,4.152-.029q1.121,0,2.315,0c.4,0,.8,0,1.211.012a3.482,3.482,0,0,1,1.23.236,2.509,2.509,0,0,1,1,.8,4.162,4.162,0,0,1,.589,1.174,11.649,11.649,0,0,1,.448,2.66c.015.229.027.459.053.686l.034.343.065.34.032.17.046.168.1.335a5.954,5.954,0,0,0,.27.646,4.68,4.68,0,0,0,1.909,2.052l.149.082-.166,0-.406.007c-3.933.065-7.678.107-11.086.107-1.7,0-3.323-.008-4.838-.073a6.68,6.68,0,0,1-1.114-.121,2.255,2.255,0,0,1-.967-.486,2.383,2.383,0,0,1-.6-.849,4.52,4.52,0,0,1-.287-.951,12,12,0,0,1-.183-1.831c-.022-.581-.024-1.128-.024-1.639,0-.257,0-.5-.012-.739-.007-.119-.005-.234-.017-.348s-.027-.224-.041-.333l-.02-.161c-.012-.053-.024-.1-.034-.155-.022-.1-.046-.2-.068-.3s-.063-.185-.093-.275l-.046-.133c-.02-.041-.041-.082-.059-.122a2.1,2.1,0,0,0-.564-.756,1.655,1.655,0,0,0-.606-.335,1.637,1.637,0,0,0-.421-.078.833.833,0,0,0-.11,0h-.037a.2.2,0,0,1,.037-.005,1.04,1.04,0,0,1,.11,0,1.472,1.472,0,0,1,.426.07,1.65,1.65,0,0,1,.617.331,2.118,2.118,0,0,1,.578.761,5.782,5.782,0,0,1,.409,2.579c0,.511.007,1.058.031,1.638a12.033,12.033,0,0,0,.189,1.821,4.439,4.439,0,0,0,.285.938,2.288,2.288,0,0,0,.584.824,2.166,2.166,0,0,0,.938.469,6.639,6.639,0,0,0,1.1.116c1.512.061,3.133.063,4.835.065,3.408,0,7.153-.049,11.086-.114l.406-.007-.019.085a4.762,4.762,0,0,1-1.95-2.093,5.829,5.829,0,0,1-.273-.657l-.1-.34-.048-.17-.032-.173-.065-.345-.034-.348c-.025-.231-.037-.46-.053-.688a11.483,11.483,0,0,0-.442-2.64,4.013,4.013,0,0,0-.576-1.15,2.435,2.435,0,0,0-.965-.778,3.389,3.389,0,0,0-1.2-.231c-.408-.008-.812-.012-1.21-.014h-2.314c-1.493.007-2.883.012-4.152.019l-6.007.037-1.631.008h-.425c-.082,0-.119,0-.144,0Z" transform="translate(-91.524 -139.986)" fill="#263238"/>
        </g>
        <path id="Path_3038" data-name="Path 3038" d="M86.951,140.244c0,.01-.172-.007-.476.036a2.048,2.048,0,0,0-1.142.556,3.229,3.229,0,0,0-.848,1.687,14.374,14.374,0,0,0-.2,2.354,11.7,11.7,0,0,1-.274,2.363,5.869,5.869,0,0,1-.352.98A3.639,3.639,0,0,1,83.2,149a1.8,1.8,0,0,1-1.109.669,2.011,2.011,0,0,1-.355.032.691.691,0,0,1-.124,0,.553.553,0,0,1,.124-.014,2.621,2.621,0,0,0,.35-.049,1.947,1.947,0,0,0,.518-.2,1.9,1.9,0,0,0,.549-.481,3.635,3.635,0,0,0,.445-.773,5.854,5.854,0,0,0,.34-.97,11.986,11.986,0,0,0,.265-2.346,14.07,14.07,0,0,1,.209-2.368,3.257,3.257,0,0,1,.885-1.716,2.034,2.034,0,0,1,1.181-.545,1.314,1.314,0,0,1,.206-.014c.059,0,.11,0,.151,0a.65.65,0,0,1,.124.012Z" transform="translate(-68.073 -80.285)" fill="#263238"/>
        <path id="Path_3039" data-name="Path 3039" d="M94.312,134.587c0,.024-2.752.044-6.146.044s-6.146-.02-6.146-.044,2.752-.044,6.146-.044S94.312,134.563,94.312,134.587Z" transform="translate(-68.285 -77.338)" fill="#e0e0e0"/>
        <path id="Path_3040" data-name="Path 3040" d="M95.275,138.383c0,.024-2.66.044-5.942.044s-5.944-.02-5.944-.044,2.66-.044,5.944-.044S95.275,138.359,95.275,138.383Z" transform="translate(-68.995 -79.306)" fill="#e0e0e0"/>
        <path id="Path_3041" data-name="Path 3041" d="M112.244,145.767c0,.024-2.752.044-6.146.044s-6.146-.02-6.146-.044,2.752-.044,6.146-.044S112.244,145.743,112.244,145.767Z" transform="translate(-77.583 -83.135)" fill="#e0e0e0"/>
        <path id="Path_3042" data-name="Path 3042" d="M113.655,150.2c0,.024-2.524.044-5.638.044s-5.638-.02-5.638-.044,2.524-.044,5.638-.044S113.655,150.174,113.655,150.2Z" transform="translate(-78.841 -85.432)" fill="#e0e0e0"/>
      </g>
      <rect id="Rectangle_3617" data-name="Rectangle 3617" width="2.266" height="2.266" rx="1.111" transform="translate(22.811 17.296)" fill="#fff"/>
    </g>
    <g id="Speech_Bubble" transform="translate(0.577 14.183)">
      <g id="Group_6859" data-name="Group 6859">
        <g id="Group_6858" data-name="Group 6858">
          <path id="Path_3043" data-name="Path 3043" d="M9.083,37.61,7.96,37.474A4.324,4.324,0,1,1,9.071,36.4h0l.01,1.211Z" transform="translate(-1.231 -29.55)" fill="#fff"/>
          <path id="Path_3044" data-name="Path 3044" d="M9.051,37.58s0-.029,0-.082,0-.134-.005-.234c0-.207-.01-.508-.017-.9l.025.012h0s-.017.007-.022,0a.013.013,0,0,1,0-.019,4.3,4.3,0,0,0,.756-1.92,4.454,4.454,0,0,0-.036-1.361,4.3,4.3,0,0,0-.557-1.441,4.384,4.384,0,0,0-1.164-1.245,4.2,4.2,0,0,0-1.689-.73,4.386,4.386,0,0,0-1.954.085,4.2,4.2,0,0,0-1.779,1.012,4.362,4.362,0,0,0-.673.81c-.087.151-.177.3-.25.455l-.1.238-.051.119-.037.122a4.36,4.36,0,0,0-.177,1.967,4.167,4.167,0,0,0,.664,1.733,4.393,4.393,0,0,0,1.21,1.218,4.335,4.335,0,0,0,1.427.613l.357.063c.117.017.234.02.348.031a4.032,4.032,0,0,0,.659-.012,4.314,4.314,0,0,0,1.94-.688.011.011,0,0,1,.01,0l.827.109c.093.014.165.022.217.031l.076.012s-.024,0-.071-.005l-.214-.022-.839-.092h.01a4.306,4.306,0,0,1-1.952.71,3.935,3.935,0,0,1-.668.017c-.116-.01-.234-.012-.352-.029L4.6,38.1a4.346,4.346,0,0,1-1.451-.615A4.461,4.461,0,0,1,1.921,36.25a4.222,4.222,0,0,1-.68-1.762,4.422,4.422,0,0,1,.178-2l.039-.124.051-.121.1-.241c.075-.158.166-.311.255-.464a4.467,4.467,0,0,1,.685-.826,4.261,4.261,0,0,1,1.813-1.031A4.436,4.436,0,0,1,6.353,29.6a4.242,4.242,0,0,1,1.716.746,4.417,4.417,0,0,1,1.177,1.267A4.335,4.335,0,0,1,9.8,33.071a4.447,4.447,0,0,1,.029,1.378,4.294,4.294,0,0,1-.78,1.931l-.022-.022h0s.017-.007.022,0a.024.024,0,0,1,0,.01V37.5c0,.051,0,.076,0,.076Z" transform="translate(-1.198 -29.52)" fill="#263238"/>
        </g>
        <path id="Path_3045" data-name="Path 3045" d="M6.255,37.178,6.8,36.6l1.109.921,2.047-2.108.539.542L7.862,38.6Z" transform="translate(-3.82 -32.575)" fill="#083273"/>
      </g>
    </g>
    <g id="Character" transform="translate(6.818 12.397)">
      <g id="Group_6875" data-name="Group 6875">
        <g id="Group_6871" data-name="Group 6871">
          <g id="Group_6862" data-name="Group 6862" transform="translate(4.698)">
            <g id="Group_6860" data-name="Group 6860" transform="translate(0.454 1.464)">
              <path id="Path_3046" data-name="Path 3046" d="M25.4,31.867a3.259,3.259,0,0,1,3.459-2.754l.168.012c1.807.238,2.616,1.908,2.327,3.708l-.63,6.391L30.7,40.546l-4.306.391.092-2.789A2.1,2.1,0,0,1,24.863,36c.051-.844.3-2.572.539-4.135Z" transform="translate(-24.858 -29.104)" fill="#ffbf9d"/>
              <path id="Path_3047" data-name="Path 3047" d="M28.207,47.335a4.25,4.25,0,0,0,2.336-.5,2.1,2.1,0,0,1-2.337.975v-.472Z" transform="translate(-26.594 -38.296)" fill="#ff9a6c"/>
              <path id="Path_3048" data-name="Path 3048" d="M27.4,38.234a.25.25,0,0,0,.223.268.24.24,0,0,0,.274-.206.25.25,0,0,0-.221-.268.239.239,0,0,0-.273.206Z" transform="translate(-26.174 -33.73)" fill="#263238"/>
              <path id="Path_3049" data-name="Path 3049" d="M26.638,36.425c.029.034.228-.092.5-.071s.455.168.486.138c.015-.014-.012-.075-.093-.143a.691.691,0,0,0-.387-.151.662.662,0,0,0-.4.1c-.087.058-.119.114-.105.129Z" transform="translate(-25.778 -32.781)" fill="#263238"/>
              <path id="Path_3050" data-name="Path 3050" d="M32.614,38.731a.25.25,0,0,0,.223.268.24.24,0,0,0,.273-.206.25.25,0,0,0-.223-.268A.239.239,0,0,0,32.614,38.731Z" transform="translate(-28.879 -33.988)" fill="#263238"/>
              <path id="Path_3051" data-name="Path 3051" d="M32.1,36.926c.029.034.228-.092.5-.071s.455.168.486.138c.015-.014-.012-.075-.093-.143a.69.69,0,0,0-.386-.151.662.662,0,0,0-.4.1c-.087.058-.119.114-.105.129Z" transform="translate(-28.614 -33.041)" fill="#263238"/>
              <path id="Path_3052" data-name="Path 3052" d="M29.067,38.763a1.774,1.774,0,0,0-.43-.11c-.068-.012-.133-.031-.139-.078a.359.359,0,0,1,.061-.2c.076-.161.156-.33.241-.506a9.165,9.165,0,0,0,.554-1.33,8.965,8.965,0,0,0-.659,1.283c-.082.178-.158.348-.233.51a.388.388,0,0,0-.054.267.176.176,0,0,0,.105.109.476.476,0,0,0,.116.025,1.752,1.752,0,0,0,.442.032Z" transform="translate(-26.694 -32.958)" fill="#263238"/>
              <path id="Path_3053" data-name="Path 3053" d="M30.421,41.664c-.044-.005-.065.285-.33.474s-.572.134-.578.175c-.005.019.065.061.2.075a.728.728,0,0,0,.481-.129.634.634,0,0,0,.258-.4c.02-.121-.007-.2-.027-.2Z" transform="translate(-27.272 -35.616)" fill="#263238"/>
              <path id="Path_3054" data-name="Path 3054" d="M32.124,34.8c.02.075.292.059.6.121s.561.165.606.1c.02-.031-.019-.1-.116-.18a1.027,1.027,0,0,0-.442-.192,1.044,1.044,0,0,0-.481.02C32.176,34.714,32.114,34.768,32.124,34.8Z" transform="translate(-28.625 -31.973)" fill="#263238"/>
              <path id="Path_3055" data-name="Path 3055" d="M26.958,34.808c.042.065.233.015.455.027s.408.071.455.01c.02-.029,0-.093-.082-.156a.635.635,0,0,0-.362-.127.625.625,0,0,0-.372.1C26.97,34.717,26.939,34.776,26.958,34.808Z" transform="translate(-25.944 -31.934)" fill="#263238"/>
              <path id="Path_3056" data-name="Path 3056" d="M37.362,39.876a.476.476,0,0,1,.545-.42c.323.054.673.265.6.936a.9.9,0,0,1-1.293.785c0-.024.09-.805.146-1.3Z" transform="translate(-31.265 -34.468)" fill="#ffbf9d"/>
              <path id="Path_3057" data-name="Path 3057" d="M37.847,41.175a.3.3,0,0,0,.053.036.21.21,0,0,0,.155.019.511.511,0,0,0,.285-.435.7.7,0,0,0-.027-.3.235.235,0,0,0-.139-.175.108.108,0,0,0-.129.044c-.019.032-.014.056-.02.058s-.024-.022-.008-.071a.128.128,0,0,1,.054-.07.16.16,0,0,1,.117-.019.29.29,0,0,1,.2.207.718.718,0,0,1,.037.34.54.54,0,0,1-.357.482.227.227,0,0,1-.187-.051c-.034-.034-.037-.061-.032-.063Z" transform="translate(-31.591 -34.886)" fill="#ff9a6c"/>
            </g>
            <g id="Group_6861" data-name="Group 6861">
              <path id="Path_3058" data-name="Path 3058" d="M31.421,31.721c-.1.341-.063.909-.369.831-.6-.153-.46,1.089-.751.967s-.54-.474-.557-1.237c-.022-.97.367-1.67-.015-2.779a1.471,1.471,0,0,0-1.225-.761,1.5,1.5,0,0,0-1.286.681,1.5,1.5,0,0,0-.52-1.011.873.873,0,0,0-.963.08.709.709,0,0,0-.126.926.339.339,0,0,1-.381-.138.583.583,0,0,0,.151.435.534.534,0,0,1-.307-.214c.031.139.059.28.09.42A1.352,1.352,0,0,1,24.011,29a2.277,2.277,0,0,1,.323-1.931,2.1,2.1,0,0,1,1.74-1,1.614,1.614,0,0,1,1.558.984,2.259,2.259,0,0,1,1.882-.2,1.636,1.636,0,0,1,.931,1.3.974.974,0,0,1,.965.187l.065.056a1.453,1.453,0,0,1,.423,1.342c-.037.194-.1.4-.144.55-.117.464-.333,1.441-.333,1.441Z" transform="translate(-23.916 -26.064)" fill="#263238"/>
              <path id="Path_3059" data-name="Path 3059" d="M26.1,30.78a.46.46,0,0,1-.041-.032.691.691,0,0,1-.1-.11,1.016,1.016,0,0,1-.2-.506.968.968,0,0,1,.238-.764,1.042,1.042,0,0,1,.911-.343,1.192,1.192,0,0,1,.482.189,1.527,1.527,0,0,1,.355.326,1.9,1.9,0,0,1,.425,1.266c-.005.065-.008.114-.015.148a.206.206,0,0,1-.01.051,2.279,2.279,0,0,0-.07-.732,1.918,1.918,0,0,0-.367-.7,1.331,1.331,0,0,0-.809-.493,1,1,0,0,0-.866.324.935.935,0,0,0-.236.727,1.048,1.048,0,0,0,.18.5c.073.1.129.149.124.155Z" transform="translate(-24.866 -27.593)" fill="#455a64"/>
              <path id="Path_3060" data-name="Path 3060" d="M25.465,30.93a.666.666,0,0,1-.036-.058c-.022-.039-.054-.1-.093-.172a3.694,3.694,0,0,1-.28-.664,1.907,1.907,0,0,1-.078-.494,1.358,1.358,0,0,1,.1-.566,1.1,1.1,0,0,1,.409-.486,1.327,1.327,0,0,1,.647-.214,1.651,1.651,0,0,1,.674.107,2.085,2.085,0,0,1,.552.314,1.641,1.641,0,0,1,.6.875,1.193,1.193,0,0,1-.036.717,1.082,1.082,0,0,1-.088.175.227.227,0,0,1-.042.054,1.6,1.6,0,0,0,.112-.236,1.219,1.219,0,0,0,.019-.7,1.634,1.634,0,0,0-.6-.846,1.809,1.809,0,0,0-1.193-.408,1.289,1.289,0,0,0-.623.206,1.057,1.057,0,0,0-.392.462,1.342,1.342,0,0,0-.1.547,1.8,1.8,0,0,0,.071.486,4.086,4.086,0,0,0,.263.666l.085.177a.466.466,0,0,1,.027.063Z" transform="translate(-24.466 -27.209)" fill="#455a64"/>
              <path id="Path_3061" data-name="Path 3061" d="M38.627,33.792a2.16,2.16,0,0,0,.255-.262,1.75,1.75,0,0,0,.341-1.643c-.065-.216-.139-.336-.129-.341a.368.368,0,0,1,.056.082,1.441,1.441,0,0,1,.11.248,1.68,1.68,0,0,1-.348,1.678,1.449,1.449,0,0,1-.2.183c-.051.039-.082.056-.083.053Z" transform="translate(-31.543 -28.906)" fill="#455a64"/>
              <path id="Path_3062" data-name="Path 3062" d="M36.372,34.029a1.194,1.194,0,0,0,.155-.092.88.88,0,0,0,.3-.362l.051-.114-.012.124c-.015.168-.032.362-.051.571l-.039-.024a1.534,1.534,0,0,0,.389-.382,1.557,1.557,0,0,0,.267-.629,1.62,1.62,0,0,0,0-.561,2.244,2.244,0,0,0-.168-.493.207.207,0,0,1,.022.029c.014.02.031.051.053.092a1.423,1.423,0,0,1,.129.365,1.6,1.6,0,0,1,.015.576,1.579,1.579,0,0,1-.676,1.043l-.044.029.005-.053c.022-.209.042-.4.061-.569l.039.01a.846.846,0,0,1-.326.365.637.637,0,0,1-.121.059.127.127,0,0,1-.046.012Z" transform="translate(-30.374 -29.177)" fill="#455a64"/>
              <path id="Path_3063" data-name="Path 3063" d="M33.369,30.267a1.129,1.129,0,0,0-.275-.345,1,1,0,0,0-.43-.2,1.06,1.06,0,0,0-.574.053,1.228,1.228,0,0,0-.481.324,1.428,1.428,0,0,0-.258.4,3.018,3.018,0,0,0-.131.426.383.383,0,0,1,.008-.121,1.5,1.5,0,0,1,.087-.319,1.461,1.461,0,0,1,.257-.421,1.263,1.263,0,0,1,.5-.341,1.089,1.089,0,0,1,.6-.049,1.007,1.007,0,0,1,.443.219.9.9,0,0,1,.209.258.545.545,0,0,1,.036.083c.007.02.01.031.008.031Z" transform="translate(-27.702 -27.926)" fill="#455a64"/>
              <path id="Path_3064" data-name="Path 3064" d="M33.087,28.819a1.657,1.657,0,0,0-.33-.127,1.193,1.193,0,0,0-.819.116,1.476,1.476,0,0,0-.579.6c-.1.192-.136.326-.146.324a.284.284,0,0,1,.019-.1,1.48,1.48,0,0,1,.1-.246,1.437,1.437,0,0,1,.588-.632,1.175,1.175,0,0,1,.853-.105.912.912,0,0,1,.243.1c.053.034.078.056.076.059Z" transform="translate(-27.699 -27.388)" fill="#455a64"/>
            </g>
          </g>
          <g id="Group_6863" data-name="Group 6863" transform="translate(3.053 57.673)">
            <path id="Path_3065" data-name="Path 3065" d="M23.7,145.847l.121,3.267s-3.28,1.22-3.318,1.824l6.343-.005.022-5.1Z" transform="translate(-20.501 -145.836)" fill="#263238"/>
            <path id="Path_3066" data-name="Path 3066" d="M31.133,152.057a.262.262,0,0,1,.18.3.248.248,0,0,1-.29.18.272.272,0,0,1-.189-.314.26.26,0,0,1,.324-.155" transform="translate(-25.852 -149.055)" fill="#e0e0e0"/>
            <path id="Path_3067" data-name="Path 3067" d="M26.844,155.868l-.019-.515-6.075.2s-.282.122-.25.323Z" transform="translate(-20.499 -150.771)" fill="#263238"/>
            <path id="Path_3068" data-name="Path 3068" d="M27.179,152.548c0,.031.156.044.309.144s.234.229.262.217-.017-.192-.2-.307-.372-.082-.367-.053Z" transform="translate(-23.962 -149.301)" fill="#fff"/>
            <path id="Path_3069" data-name="Path 3069" d="M25.8,153.137c-.007.031.127.083.233.214s.136.27.166.268.051-.177-.083-.336-.314-.175-.316-.144Z" transform="translate(-23.245 -149.615)" fill="#fff"/>
            <path id="Path_3070" data-name="Path 3070" d="M24.745,154.229c.029.007.071-.148-.008-.318s-.224-.236-.238-.211.076.117.139.257.075.268.107.272Z" transform="translate(-22.572 -149.911)" fill="#fff"/>
            <path id="Path_3071" data-name="Path 3071" d="M27.291,150.905c.014.029.155-.015.33,0s.311.066.328.041-.116-.138-.321-.148S27.275,150.881,27.291,150.905Z" transform="translate(-24.02 -148.406)" fill="#fff"/>
          </g>
          <g id="Group_6865" data-name="Group 6865" transform="translate(13.073 57.984)">
            <path id="Path_3072" data-name="Path 3072" d="M41.765,146.481l.253,3.948-.7,3.18a.4.4,0,0,0,.336.488h0a.406.406,0,0,0,.352-.119,21.171,21.171,0,0,0,2.665-3.121c-.041-.333.01-4.181.01-4.181l-2.913-.194Z" transform="translate(-41.309 -146.481)" fill="#263238"/>
            <path id="Path_3073" data-name="Path 3073" d="M42.022,158.518l3.005-3.506.007.168a.61.61,0,0,1-.129.4c-.24.306-.917,1.133-2.521,2.818a.4.4,0,0,1-.364.119h0Z" transform="translate(-41.678 -150.904)" fill="#263238"/>
            <g id="Group_6864" data-name="Group 6864" transform="translate(2.394 2.823)" opacity="0.6">
              <path id="Path_3074" data-name="Path 3074" d="M46.373,152.386a.245.245,0,0,0-.054.323.236.236,0,0,0,.319.056.26.26,0,0,0,.056-.341.245.245,0,0,0-.338-.022" transform="translate(-46.281 -152.344)" fill="#fff"/>
            </g>
            <path id="Path_3075" data-name="Path 3075" d="M42.873,158.169a.87.87,0,0,0-.817-.362c0-.01.044-.042.138-.059a.644.644,0,0,1,.632.279c.049.08.058.138.048.141Z" transform="translate(-41.696 -152.318)" fill="#fff"/>
            <path id="Path_3076" data-name="Path 3076" d="M42.411,159.471c-.019.019-.149-.105-.357-.156a3.274,3.274,0,0,0-.387-.034.447.447,0,0,1,.409-.051c.236.058.355.228.336.24Z" transform="translate(-41.494 -153.08)" fill="#fff"/>
            <path id="Path_3077" data-name="Path 3077" d="M43.57,156.718a3.73,3.73,0,0,0-.535-.277,3.978,3.978,0,0,0-.591-.112,1.106,1.106,0,0,1,1.126.391Z" transform="translate(-41.897 -151.567)" fill="#fff"/>
            <path id="Path_3078" data-name="Path 3078" d="M43.72,154.519c-.01.024-.231-.058-.516-.056s-.506.078-.516.054a1.006,1.006,0,0,1,1.033,0Z" transform="translate(-42.023 -150.575)" fill="#fff"/>
            <path id="Path_3079" data-name="Path 3079" d="M43.606,152.089a2.036,2.036,0,0,0-.535-.073,1.953,1.953,0,0,0-.518.153c-.007-.008.034-.059.124-.116a.881.881,0,0,1,.792-.059c.1.042.144.087.139.1Z" transform="translate(-41.953 -149.305)" fill="#fff"/>
            <path id="Path_3080" data-name="Path 3080" d="M42.929,150.8a.524.524,0,0,1-.012-.149,1.056,1.056,0,0,1,.1-.4.454.454,0,0,1,.189-.228.162.162,0,0,1,.185.029.261.261,0,0,1,.07.177.572.572,0,0,1-.479.55.664.664,0,0,1-.666-.321.234.234,0,0,1-.019-.192.162.162,0,0,1,.163-.092.558.558,0,0,1,.267.124,1.157,1.157,0,0,1,.282.3.351.351,0,0,1,.066.134,1.808,1.808,0,0,0-.384-.381.53.53,0,0,0-.234-.1.087.087,0,0,0-.09.049.159.159,0,0,0,.02.126.6.6,0,0,0,.581.272.5.5,0,0,0,.414-.46.18.18,0,0,0-.044-.124.088.088,0,0,0-.1-.017.407.407,0,0,0-.163.19,1.572,1.572,0,0,0-.146.518Z" transform="translate(-41.815 -148.31)" fill="#fff"/>
          </g>
          <g id="Group_6866" data-name="Group 6866" transform="translate(2.843 29.446)">
            <path id="Path_3081" data-name="Path 3081" d="M20.92,87.841a14.048,14.048,0,0,0-.4,4.123c.048.878,2.871,26.28,2.871,26.28l3.593-.323-.622-23.749.151.134s2.14,9.992,2.281,11.57c.127,1.42,1.836,12.826,1.836,12.826l3.486-.166-.79-14.417L32.27,91.03l-.423-3.814-10.925.625Z" transform="translate(-20.29 -87.216)" fill="#263238"/>
            <path id="Path_3082" data-name="Path 3082" d="M31.944,93.9a1.642,1.642,0,0,1-.168.09,1.927,1.927,0,0,1-.5.161,1.08,1.08,0,0,1-.369-.005.743.743,0,0,1-.381-.194.914.914,0,0,1-.224-.414c-.044-.156-.066-.319-.1-.484-.112-.661-.185-1.266-.224-1.7-.02-.219-.032-.4-.039-.518a.707.707,0,0,1,0-.192.947.947,0,0,1,.034.189q.025.209.066.515c.056.435.138,1.035.25,1.7a1.589,1.589,0,0,0,.292.856.829.829,0,0,0,.686.2,2.3,2.3,0,0,0,.494-.132.914.914,0,0,1,.182-.059Z" transform="translate(-25.183 -88.992)" fill="#455a64"/>
            <path id="Path_3083" data-name="Path 3083" d="M31.439,90.9a.154.154,0,0,1,.083-.022.356.356,0,0,1,.223.076.4.4,0,0,1,.161.313.4.4,0,0,1-.68.238.4.4,0,0,1-.068-.345.353.353,0,0,1,.126-.2c.046-.034.078-.037.078-.034a.453.453,0,0,0-.146.245.348.348,0,0,0,.07.282.325.325,0,0,0,.544-.19A.353.353,0,0,0,31.709,91a.453.453,0,0,0-.267-.1Z" transform="translate(-25.809 -89.114)" fill="#455a64"/>
            <path id="Path_3084" data-name="Path 3084" d="M41.532,93.164a.908.908,0,0,1-.136.019,2.6,2.6,0,0,1-.375-.005,3.638,3.638,0,0,1-2.224-1,2.629,2.629,0,0,1-.253-.277c-.054-.07-.082-.11-.076-.114s.136.141.37.347a4.031,4.031,0,0,0,2.188.982c.311.037.5.031.506.046Z" transform="translate(-29.605 -89.586)" fill="#455a64"/>
            <path id="Path_3085" data-name="Path 3085" d="M22.307,90.914a1.677,1.677,0,0,1-.217.4,4.58,4.58,0,0,1-1.609,1.493,1.727,1.727,0,0,1-.418.187,4.276,4.276,0,0,1,.387-.238,5.549,5.549,0,0,0,1.59-1.475,4.348,4.348,0,0,1,.267-.369Z" transform="translate(-20.063 -89.133)" fill="#455a64"/>
          </g>
          <g id="Group_6870" data-name="Group 6870" transform="translate(0 11.344)">
            <g id="Group_6867" data-name="Group 6867">
              <path id="Path_3086" data-name="Path 3086" d="M15.682,61.117c-.535,1.558-.476,1.425-1.473,6.078a2.632,2.632,0,0,0,.916,2.616,2.286,2.286,0,0,0,2.611-.788L18.478,62l-2.794-.882Z" transform="translate(-14.159 -55.582)" fill="#ffbf9d"/>
              <path id="Path_3087" data-name="Path 3087" d="M29.048,63.6l-.02-3.7.015-.364,3.756-.877s-.737-2.429-1.413-5.04a4.045,4.045,0,0,0-2-2.429h0l-.068-.034h0L25.7,49.623a2.954,2.954,0,0,1-2.818,1.1,3.2,3.2,0,0,1-1.486-1.014l-2.438.836h0a3.172,3.172,0,0,0-1.685,1.366c-.51.9-2.139,5.037-2.168,5.13l3.017.272s-.535,9.787-.347,11.536a5.325,5.325,0,0,0,2.582.595c3.749.177,9.33-.09,9.33-.09-.087-.566-.178-1.508-.231-1.986L29.046,63.6Z" transform="translate(-14.649 -49.623)" fill="#083273"/>
              <path id="Path_3088" data-name="Path 3088" d="M21.134,58.03c.015,0-.065,2.334-.178,5.213s-.219,5.212-.234,5.212.065-2.334.178-5.213.219-5.212.234-5.21Z" transform="translate(-17.56 -53.982)" fill="#263238"/>
            </g>
            <path id="Path_3089" data-name="Path 3089" d="M43.2,59.385c-.027,0,.049,2.072.17,4.626s.24,4.622.267,4.622-.049-2.072-.17-4.626-.24-4.622-.267-4.621Z" transform="translate(-29.213 -54.684)" fill="#263238"/>
            <g id="Group_6869" data-name="Group 6869" transform="translate(8.688 4.283)">
              <path id="Path_3090" data-name="Path 3090" d="M44.4,68.913c-.122-.919-.224-1.731-.224-1.731l-3,.7.129.484-2.322-2.358-.367.032-1.169,1.216a29.387,29.387,0,0,0,1.612,2.99c.771,1.091,1.982,2.752,3.642,2.613,1.534-.129,1.923-2.293,1.7-3.941Z" transform="translate(-34.919 -62.4)" fill="#ffbf9d"/>
              <path id="Path_3091" data-name="Path 3091" d="M46.951,72.064a2.649,2.649,0,0,0-.661-.606,2.551,2.551,0,0,0-.785-.433c-.014.025.331.226.727.513s.7.549.717.528Z" transform="translate(-39.1 -65.001)" fill="#ff9a6c"/>
              <g id="Group_6868" data-name="Group 6868">
                <path id="Path_3092" data-name="Path 3092" d="M32.206,59.044l1.031-.527,1.339.425.664.612,1.019,2.569.817,1.035-1.442,1.879-.912-1.665a2.849,2.849,0,0,1-1.084-.827c-.309-.488-.448-.754-.448-.754s-.447-.214-.53-.421A1.021,1.021,0,0,1,32.58,61l.226-.33a.83.83,0,0,1,.068-.421.413.413,0,0,1,.178-.141s-.066-.279.037-.379a3.159,3.159,0,0,1,.618-.284h0l-.45-.257s-1,.309-1.055-.148Z" transform="translate(-32.203 -58.517)" fill="#ffbf9d"/>
                <path id="Path_3093" data-name="Path 3093" d="M34.651,61.535c0,.014-.158.017-.347.058s-.335.1-.341.088a.786.786,0,0,1,.331-.131.763.763,0,0,1,.357-.014Z" transform="translate(-33.115 -60.075)" fill="#ff9a6c"/>
                <path id="Path_3094" data-name="Path 3094" d="M34.106,62.728a3,3,0,0,1-.3.037c-.163.024-.292.065-.3.053a.63.63,0,0,1,.29-.1.684.684,0,0,1,.306.005Z" transform="translate(-32.881 -60.691)" fill="#ff9a6c"/>
                <path id="Path_3095" data-name="Path 3095" d="M33.819,64.339c-.012,0-.02-.059-.019-.131s.012-.131.025-.131.02.059.019.131S33.833,64.339,33.819,64.339Z" transform="translate(-33.031 -61.4)" fill="#ff9a6c"/>
                <path id="Path_3096" data-name="Path 3096" d="M33.927,64.777a.608.608,0,0,0-.1-.238.6.6,0,0,0-.207-.149c0-.005.032-.008.082.007a.343.343,0,0,1,.161.116.33.33,0,0,1,.073.183C33.944,64.747,33.932,64.777,33.927,64.777Z" transform="translate(-32.94 -61.56)" fill="#ff9a6c"/>
                <path id="Path_3097" data-name="Path 3097" d="M35.471,63.207a.688.688,0,0,0-.18-.177.678.678,0,0,0-.245-.061c0-.005.027-.019.076-.022a.344.344,0,0,1,.189.046.354.354,0,0,1,.138.138c.024.044.025.076.02.078Z" transform="translate(-33.677 -60.814)" fill="#ff9a6c"/>
                <path id="Path_3098" data-name="Path 3098" d="M36.484,62.017c-.012.005-.053-.1-.165-.172a.792.792,0,0,0-.226-.078c0-.005.027-.015.075-.015a.343.343,0,0,1,.175.056.348.348,0,0,1,.124.134c.02.042.022.073.017.073Z" transform="translate(-34.22 -60.194)" fill="#ff9a6c"/>
                <path id="Path_3099" data-name="Path 3099" d="M37.207,61.241s0-.036-.01-.088a.4.4,0,0,0-.234-.316c-.049-.022-.083-.029-.082-.036s.037-.01.093.007a.353.353,0,0,1,.183.129.368.368,0,0,1,.071.214c0,.058-.015.092-.02.09Z" transform="translate(-34.628 -59.699)" fill="#ff9a6c"/>
                <path id="Path_3100" data-name="Path 3100" d="M35.641,60.316c0,.015-.216.019-.476.059s-.457.131-.462.119a1.085,1.085,0,0,1,.455-.163,2.081,2.081,0,0,1,.341-.025A.459.459,0,0,1,35.641,60.316Z" transform="translate(-33.499 -59.444)" fill="#ff9a6c"/>
              </g>
            </g>
          </g>
        </g>
        <g id="Group_6872" data-name="Group 6872" transform="translate(3.205 20.902)" opacity="0.3">
          <path id="Path_3101" data-name="Path 3101" d="M25.5,70.869a1.858,1.858,0,0,0-.255-.856,1.6,1.6,0,0,0-1.417-.491,3.967,3.967,0,0,1-1.553-.051l-1.463,4.345a2.178,2.178,0,0,0,1.322-.962,2.366,2.366,0,0,1,.484-.7,1.859,1.859,0,0,1,1.136-.209,4.609,4.609,0,0,0,1.216-.178.806.806,0,0,0,.445-.255.889.889,0,0,0,.082-.647Z" transform="translate(-20.814 -69.471)"/>
        </g>
        <g id="Group_6874" data-name="Group 6874" transform="translate(0.614 16.537)">
          <g id="Group_6873" data-name="Group 6873" transform="translate(2.996)">
            <path id="Path_3102" data-name="Path 3102" d="M22.714,61.082l.455,4.836a.681.681,0,0,0,.3.557l2.934-.063a1.166,1.166,0,0,0,.224-.822L26.3,60.962c-.019-.279-.124-.479-.25-.482l-3.09-.071c-.158,0-.28.33-.248.674Z" transform="translate(-22.202 -60.408)" fill="#263238"/>
            <path id="Path_3103" data-name="Path 3103" d="M21.742,63.023a.426.426,0,0,1,.01-.525.65.65,0,0,1,.5-.224,1.409,1.409,0,0,1,.55.127,3.546,3.546,0,0,1,.62.328.6.6,0,0,1,.3.372c.024.163-.158.345-.3.26a.7.7,0,0,1,.394.491c.025.207-.088.316-.289.37a.31.31,0,0,1,.17.4.358.358,0,0,1-.45.126,1.034,1.034,0,0,1-.382-.336,1.186,1.186,0,0,1,.053.737c-.437-.161-.868-.647-.739-1.109a.625.625,0,0,1-.175-.749.611.611,0,0,1-.353-.522" transform="translate(-21.656 -61.375)" fill="#ffbf9d"/>
          </g>
          <path id="Path_3104" data-name="Path 3104" d="M18.467,62.952l-.036,2.067-.537.807-2.46,2.2s.365,2.988,1.475,2.662,1.379-.539,2.035-1.745a15.487,15.487,0,0,0,.771-2.3,6.23,6.23,0,0,0,.014-1.492l-1.264-2.2Z" transform="translate(-15.434 -61.727)" fill="#ffbf9d"/>
          <path id="Path_3105" data-name="Path 3105" d="M24.076,65.805s-.073-.056-.187-.149a1.262,1.262,0,0,0-.5-.268.692.692,0,0,0-.306-.007.571.571,0,0,0-.226.107.724.724,0,0,0-.149.18.131.131,0,0,1,.019-.063.422.422,0,0,1,.109-.143.573.573,0,0,1,.238-.124.692.692,0,0,1,.328,0,1.178,1.178,0,0,1,.508.29.833.833,0,0,1,.165.177Z" transform="translate(-19.207 -62.955)" fill="#ff9a6c"/>
          <path id="Path_3106" data-name="Path 3106" d="M23.855,64.174a1.775,1.775,0,0,1-.229-.1c-.07-.034-.149-.076-.245-.114a2.114,2.114,0,0,0-.316-.09.907.907,0,0,0-.323-.01.59.59,0,0,0-.241.1.624.624,0,0,0-.16.182.136.136,0,0,1,.02-.066.419.419,0,0,1,.119-.144.6.6,0,0,1,.253-.116.92.92,0,0,1,.34.007,1.849,1.849,0,0,1,.323.1,2.488,2.488,0,0,1,.245.124,1.448,1.448,0,0,1,.212.132Z" transform="translate(-19.015 -62.166)" fill="#ff9a6c"/>
          <path id="Path_3107" data-name="Path 3107" d="M15.879,71.366a2.061,2.061,0,0,1-.031-.77,2.324,2.324,0,0,1,.29-.781,3.778,3.778,0,0,1,.649-.8c.265-.255.537-.479.78-.688a8.03,8.03,0,0,0,.622-.586,3.431,3.431,0,0,0,.358-.452.8.8,0,0,0,.1-.185,1.465,1.465,0,0,0-.127.166,4.611,4.611,0,0,1-.374.43c-.168.172-.384.364-.629.569s-.52.428-.787.686a3.7,3.7,0,0,0-.657.817,2.3,2.3,0,0,0-.282.81,1.654,1.654,0,0,0,.019.578,1.051,1.051,0,0,0,.046.151c.014.034.02.051.024.049Z" transform="translate(-15.613 -63.881)" fill="#ff9a6c"/>
        </g>
      </g>
    </g>
  </g>
</svg>
