<svg id="Layer_2" data-name="Layer 2" xmlns="http://www.w3.org/2000/svg" width="24" height="24" viewBox="0 0 24 24">
  <g id="menu-arrow-circle">
    <rect id="Rectangle_1152" data-name="Rectangle 1152" width="24" height="24" transform="translate(24 24) rotate(180)" fill="#083273" opacity="0"/>
    <path id="Path_1276" data-name="Path 1276" d="M12,2A10,10,0,1,0,22,12,10,10,0,0,0,12,2Zm0,16a1,1,0,1,1,1-1A1,1,0,0,1,12,18Zm1-5.16V14a1,1,0,0,1-2,0V12a1,1,0,0,1,1-1,1.5,1.5,0,1,0-1.5-1.5,1,1,0,0,1-2,0A3.5,3.5,0,1,1,13,12.84Z" fill="#083273"/>
  </g>
</svg>
