<svg xmlns="http://www.w3.org/2000/svg" width="91.928" height="77.999" viewBox="0 0 91.928 77.999">
  <g id="loans" transform="translate(-52.558 -13.111)" style="mix-blend-mode: normal;isolation: isolate">
    <g id="Layer_1" transform="translate(52.558 13.111)">
      <g id="Group_6877" data-name="Group 6877" transform="translate(42.125 48.787)">
        <g id="Group_6876" data-name="Group 6876">
          <path id="Path_3108" data-name="Path 3108" d="M102.326,85.572l2.288,1.155a59.3,59.3,0,0,0-.15-6.095c-.214-.193-1.818-6.651-3.785-7.635s-2.331,4.085-2.331,4.085c3.369-5.618,3.978,8.491,3.978,8.491Z" transform="translate(-98.302 -66.277)" fill="#258d8c"/>
          <path id="Path_3109" data-name="Path 3109" d="M106.334,76.812A20.15,20.15,0,0,0,100.723,66.1c2.472,5.241,3.013,19.461,3.013,19.461s3.8-1.99,2.6-8.754Z" transform="translate(-98.471 -65.793)" fill="#7fc6a6"/>
          <path id="Path_3110" data-name="Path 3110" d="M109.171,86.458s.738-14.4,4.459-20.64c0,0-6.533,3.9-8.7,14.128-.122.576-.194,1.216-.287,1.833a10.122,10.122,0,0,0-.139,1.776c.026,1,.165,1.862.206,2.5.353,5.466,4.46.408,4.46.408Z" transform="translate(-98.742 -65.773)" fill="#258d8c"/>
          <path id="Path_3111" data-name="Path 3111" d="M113.618,78.373c.9-.406,2.951,5.753,2.951,5.753s-.364-8.9-2.181-10.329c-.818-.645-1.866.259-2.771,1.447a11.692,11.692,0,0,0-2.285,5.655l-.8,6.52,3.358-.278s.834-8.362,1.732-8.768Z" transform="translate(-99.029 -66.327)" fill="#7fc6a6"/>
          <path id="Path_3112" data-name="Path 3112" d="M113.654,65.86l-.06-.091a20.6,20.6,0,0,0-4.8,4.924,23.388,23.388,0,0,0-3.167,6.291,25.259,25.259,0,0,0-1.172,8.967l.108,0a24.057,24.057,0,0,1,4.316-15.187,20.492,20.492,0,0,1,4.77-4.9Z" transform="translate(-98.737 -65.769)" fill="#21111d"/>
          <path id="Path_3113" data-name="Path 3113" d="M103.787,85.562c0-.035-.14-3.6-.58-7.769-.406-3.846-1.158-9-2.438-11.714l-.1.046c1.274,2.7,2.024,7.841,2.429,11.678.439,4.16.578,7.727.579,7.763l.109,0Z" transform="translate(-98.468 -65.791)" fill="#21111d"/>
          <path id="Path_3114" data-name="Path 3114" d="M99.95,76.076c.777.2,1.424,1.938,1.872,5.027.341,2.35.444,4.668.445,4.691l.109,0c0-.023-.1-2.347-.446-4.7-.462-3.182-1.119-4.9-1.953-5.118-.51-.131-1.075.308-1.679,1.3l.093.057c.576-.95,1.1-1.372,1.56-1.254Z" transform="translate(-98.298 -66.496)" fill="#21111d"/>
          <path id="Path_3115" data-name="Path 3115" d="M111.656,75.273c.77-1.012,1.446-1.561,2.009-1.633a.892.892,0,0,1,.685.2c1.778,1.4,2.157,10.2,2.16,10.289l.109,0c0-.022-.094-2.254-.409-4.632-.424-3.2-1.027-5.134-1.792-5.738a1,1,0,0,0-.765-.218c-.593.075-1.293.639-2.081,1.675a11.757,11.757,0,0,0-2.3,5.681l-.8,6.52.108.013.8-6.52a11.653,11.653,0,0,1,2.275-5.629Z" transform="translate(-99.025 -66.323)" fill="#21111d"/>
          <rect id="Rectangle_3619" data-name="Rectangle 3619" width="1.539" height="0.109" transform="translate(12.338 14.425) rotate(-62.7)" fill="#21111d"/>
          <rect id="Rectangle_3620" data-name="Rectangle 3620" width="1.462" height="0.109" transform="translate(12.338 15.261) rotate(-61.14)" fill="#21111d"/>
          <rect id="Rectangle_3621" data-name="Rectangle 3621" width="0.109" height="1.455" transform="translate(5.123 4.957) rotate(-24.49)" fill="#21111d"/>
          <rect id="Rectangle_3622" data-name="Rectangle 3622" width="0.109" height="1.059" transform="translate(5.218 5.982) rotate(-29)" fill="#21111d"/>
          <rect id="Rectangle_3623" data-name="Rectangle 3623" width="0.109" height="1.152" transform="translate(1.811 7.309) rotate(-62.99)" fill="#21111d"/>
          <rect id="Rectangle_3624" data-name="Rectangle 3624" width="0.109" height="0.711" transform="matrix(0.52, -0.854, 0.854, 0.52, 2.225, 7.904)" fill="#21111d"/>
        </g>
        <path id="Path_3116" data-name="Path 3116" d="M104.387,96.411h4.79c2.819.247,3.011-10.279,3.011-10.279a48.487,48.487,0,0,0-10.812,0s.192,10.525,3.011,10.279Z" transform="translate(-98.518 -67.202)" fill="#083273"/>
        <rect id="Rectangle_3625" data-name="Rectangle 3625" width="4.48" height="0.109" transform="matrix(0.688, -0.726, 0.726, 0.688, 9.46, 23.54)" fill="#21111d"/>
        <rect id="Rectangle_3626" data-name="Rectangle 3626" width="2.585" height="0.109" transform="translate(9.939 24.325) rotate(-48.99)" fill="#21111d"/>
      </g>
      <g id="Group_6884" data-name="Group 6884" transform="translate(0 25.996)">
        <g id="Group_6879" data-name="Group 6879" transform="translate(0 44.368)">
          <path id="Path_3117" data-name="Path 3117" d="M64.876,89.658l-5.117-.65-1.542,4.884,5.4.693Z" transform="translate(-52.963 -89.007)" fill="#fe9f73"/>
          <g id="Group_6878" data-name="Group 6878" transform="translate(0 3.753)">
            <path id="Path_3118" data-name="Path 3118" d="M63.421,96.8a.139.139,0,0,0,.137-.141v-.69a.2.2,0,0,0-.2-.206H58.921l-1.8-2.01-3.291,2.01h-.709a.52.52,0,0,0-.514.416.515.515,0,0,0,.5.621H63.421Z" transform="translate(-52.561 -93.099)" fill="#35182e"/>
            <path id="Path_3119" data-name="Path 3119" d="M63.359,93.855a1.557,1.557,0,0,0-1.885-.505,2.51,2.51,0,0,1-3.238-.263L54.468,94.8s-1.033.354-1.313.923h10.2V93.855Z" transform="translate(-52.601 -93.051)" fill="#ef3a4c"/>
            <rect id="Rectangle_3627" data-name="Rectangle 3627" width="0.076" height="1.859" transform="translate(10.72 0.804)"/>
            <path id="Path_3120" data-name="Path 3120" d="M61.955,93.336a2.617,2.617,0,0,1-1.744.468l-.011.077a1.864,1.864,0,0,0,.234.013A2.734,2.734,0,0,0,62,93.4l-.043-.064Z" transform="translate(-53.104 -93.069)"/>
            <path id="Path_3121" data-name="Path 3121" d="M63.592,95.123l-.481.333.042.064.481-.333Z" transform="translate(-53.312 -93.197)"/>
            <path id="Path_3122" data-name="Path 3122" d="M63.22,95.022l-.481.333.042.064.481-.333Z" transform="translate(-53.286 -93.19)"/>
            <path id="Path_3123" data-name="Path 3123" d="M63.593,96.7v-.517a.3.3,0,0,0-.291-.3H53.1a.55.55,0,0,0-.543.557.562.562,0,0,0,.192.425L52.8,96.8a.484.484,0,0,1-.165-.366.474.474,0,0,1,.467-.479H63.3a.218.218,0,0,1,.215.221V96.7h.076Z" transform="translate(-52.558 -93.251)"/>
            <path id="Path_3124" data-name="Path 3124" d="M54.122,94.984c.758-.332,4.092-1.848,4.125-1.864l-.031-.071c-.034.015-3.367,1.532-4.124,1.863a1.882,1.882,0,0,0-.986.79l.069.033a1.85,1.85,0,0,1,.947-.752Z" transform="translate(-52.598 -93.049)"/>
          </g>
        </g>
        <g id="Group_6881" data-name="Group 6881" transform="translate(15.592 44.368)">
          <path id="Path_3125" data-name="Path 3125" d="M79.489,89.658l-5.117-.65.59,4.884,5.4.693Z" transform="translate(-69.708 -89.007)" fill="#fe9f73"/>
          <g id="Group_6880" data-name="Group 6880" transform="translate(0 3.753)">
            <path id="Path_3126" data-name="Path 3126" d="M80.213,96.8a.139.139,0,0,0,.137-.141v-.69a.2.2,0,0,0-.2-.206H75.712l-1.8-2.01-3.291,2.01h-.709a.52.52,0,0,0-.514.416.515.515,0,0,0,.5.621H80.212Z" transform="translate(-69.353 -93.099)" fill="#35182e"/>
            <path id="Path_3127" data-name="Path 3127" d="M80.15,93.855a1.557,1.557,0,0,0-1.885-.505,2.51,2.51,0,0,1-3.238-.263L71.26,94.8s-1.033.354-1.313.923h10.2Z" transform="translate(-69.392 -93.051)" fill="#ef3a4c"/>
            <rect id="Rectangle_3628" data-name="Rectangle 3628" width="0.076" height="1.859" transform="translate(10.72 0.804)"/>
            <path id="Path_3128" data-name="Path 3128" d="M78.747,93.336A2.617,2.617,0,0,1,77,93.8l-.011.077a1.865,1.865,0,0,0,.234.013A2.734,2.734,0,0,0,78.79,93.4l-.043-.064Z" transform="translate(-69.896 -93.069)"/>
            <path id="Path_3129" data-name="Path 3129" d="M80.383,95.123l-.481.333.042.064.481-.333Z" transform="translate(-70.104 -93.197)"/>
            <path id="Path_3130" data-name="Path 3130" d="M80.011,95.022l-.481.333.042.064.481-.333Z" transform="translate(-70.077 -93.19)"/>
            <path id="Path_3131" data-name="Path 3131" d="M80.385,96.7v-.517a.3.3,0,0,0-.291-.3h-10.2a.55.55,0,0,0-.543.557.562.562,0,0,0,.192.425l.049-.059a.484.484,0,0,1-.165-.366.474.474,0,0,1,.467-.479h10.2a.218.218,0,0,1,.215.221V96.7h.076Z" transform="translate(-69.35 -93.251)"/>
            <path id="Path_3132" data-name="Path 3132" d="M70.913,94.984c.758-.332,4.092-1.848,4.125-1.864l-.031-.071c-.034.015-3.367,1.532-4.124,1.863a1.882,1.882,0,0,0-.986.79l.069.033A1.85,1.85,0,0,1,70.913,94.984Z" transform="translate(-69.389 -93.049)"/>
          </g>
        </g>
        <path id="Path_3133" data-name="Path 3133" d="M92.794,69.3c.759-.948-.617-10.007-1.8-13.138s-4.269-7.873-8.537-9.368-6.067-.5-6.067-.5l-2.2,3.119,1.107,11.756S92.035,70.248,92.794,69.3Z" transform="translate(-54.103 -41.565)" fill="#083273"/>
        <path id="Path_3134" data-name="Path 3134" d="M64.479,92.584l4.838-10.767L65.523,67.826s-5.644,15.557-7.256,22.339c0,0,2.751,2.7,6.213,2.419Z" transform="translate(-52.966 -43.126)" fill="#258d8c"/>
        <path id="Path_3135" data-name="Path 3135" d="M89.132,75.371c3.225-2.656,3.036-4.838,3.036-4.838l-6.45-5.17L70.35,63.242s-4.025-.416-4.869,3.345c-.476,2.121,2.245,10.88,4.443,17.245,1.364,3.951,2.9,7.784,2.9,7.784s4.995.118,7.452-1.636l-3.32-14.866s8.946,2.914,12.171.258Z" transform="translate(-53.478 -42.797)" fill="#7fc6a6"/>
        <path id="Path_3136" data-name="Path 3136" d="M85.428,68.6c1.9-.806,1.66-8.181,1.66-8.181l-6.5-1.615-.08,3.631s-4.147-.883-7.058-1.341l-2.445,3.545c.583.156,3.56.987,4.4,1.353,0,0,8.122,3.415,10.019,2.609Z" transform="translate(-53.876 -42.482)" fill="#fe9f73"/>
        <path id="Path_3137" data-name="Path 3137" d="M82.626,63.888a.058.058,0,0,0,.046-.022.059.059,0,0,0-.008-.083l-1.357-1.117a.059.059,0,1,0-.075.092l1.357,1.117a.059.059,0,0,0,.037.013Z" transform="translate(-54.605 -42.756)" fill="#f07162"/>
        <path id="Path_3138" data-name="Path 3138" d="M75.773,61.054s-1.067-12.713-1.708-13.3a34.566,34.566,0,0,0-3.5-2.171.488.488,0,0,0-.047.524c.13.35.966,2.075.966,2.075s-1.193,10.284-1.192,11.981,5.479.889,5.479.889Z" transform="translate(-53.825 -41.537)" fill="#f9956e"/>
        <path id="Path_3139" data-name="Path 3139" d="M73.788,48.065l.788,1.386a1.235,1.235,0,0,0,1.471.564,3.237,3.237,0,0,0,.877-.463,1.982,1.982,0,0,0,.751-2.22,16.451,16.451,0,0,0-1.691-1.945l-.594-.86L72.87,41.359,70,44.621l2.2,2.961a1.266,1.266,0,0,0,1.589.482Z" transform="translate(-53.804 -41.235)" fill="#fe9f73"/>
        <path id="Path_3140" data-name="Path 3140" d="M74.079,48.408l.581,1.022a2.432,2.432,0,0,0,.749-3.266A2.367,2.367,0,0,1,74.079,48.408Z" transform="translate(-54.096 -41.578)" fill="#f07162"/>
        <path id="Path_3141" data-name="Path 3141" d="M72.529,45.253c.177-.684,1.022-.551,1.058-.545a.05.05,0,0,0,.038-.009.047.047,0,0,0,.019-.032.05.05,0,0,0-.04-.057c-.01,0-.97-.154-1.17.618a.05.05,0,1,0,.1.025Z" transform="translate(-53.978 -41.466)"/>
        <path id="Path_3142" data-name="Path 3142" d="M73.994,43.911l.724-.814s-1.848-1.2-1.8-.8a10.125,10.125,0,0,0,1.04,1.892l.035-.275Z" transform="translate(-54.013 -41.296)"/>
        <path id="Path_3143" data-name="Path 3143" d="M71.045,46.023c.068-.3.623-.262.628-.262a.049.049,0,0,0,.053-.046.05.05,0,0,0-.046-.053c-.026,0-.645-.045-.732.338a.049.049,0,1,0,.1.022Z" transform="translate(-53.872 -41.542)"/>
        <path id="Path_3144" data-name="Path 3144" d="M73.186,45.533a.148.148,0,1,0-.208-.031A.148.148,0,0,0,73.186,45.533Z" transform="translate(-54.015 -41.514)"/>
        <path id="Path_3145" data-name="Path 3145" d="M71.729,46.417a.148.148,0,1,0-.208-.031A.148.148,0,0,0,71.729,46.417Z" transform="translate(-53.911 -41.577)"/>
        <path id="Path_3146" data-name="Path 3146" d="M75.237,44.764a.89.89,0,1,0-1.245-.184A.89.89,0,0,0,75.237,44.764Z" transform="translate(-54.077 -41.364)" fill="#fe9f73"/>
        <path id="Path_3147" data-name="Path 3147" d="M74.885,43.451a.025.025,0,0,0-.015-.047.6.6,0,0,0-.331.282.48.48,0,0,0,.011.4l.034.082.013-.088a.387.387,0,0,1,.342-.328.3.3,0,0,1,.3.21.318.318,0,0,1-.1.374l0,0a.025.025,0,0,0-.005.035.025.025,0,0,0,.035.006l0,0a.371.371,0,0,0,.115-.431.348.348,0,0,0-.355-.243.418.418,0,0,0-.365.292.4.4,0,0,1,.013-.283.557.557,0,0,1,.3-.256Z" transform="translate(-54.126 -41.381)" fill="#f07162"/>
        <path id="Path_3148" data-name="Path 3148" d="M73.077,46.654l.007,0a.025.025,0,0,0,.009-.028.025.025,0,0,0-.031-.016l-.5.164L72,45.741a.025.025,0,0,0-.034-.01.024.024,0,0,0-.01.034l.589,1.065.534-.177Z" transform="translate(-53.944 -41.547)" fill="#f07162"/>
        <path id="Path_3149" data-name="Path 3149" d="M73.419,47.067a2.483,2.483,0,0,1,.541-.393.04.04,0,0,0,.016-.054.04.04,0,0,0-.054-.016,2.518,2.518,0,0,0-.561.407.04.04,0,0,0,0,.057.039.039,0,0,0,.028.011.04.04,0,0,0,.029-.012Z" transform="translate(-54.044 -41.61)" fill="#f07162"/>
        <path id="Path_3150" data-name="Path 3150" d="M73.848,48.371l.688,1.343a1.163,1.163,0,0,0,1.047.657l.08,0a.04.04,0,0,0,.037-.042.038.038,0,0,0-.042-.037,1.065,1.065,0,0,1-1.049-.609l-.726-1.419-.036.02c-.88.477-1.589-.435-1.618-.474l-2.2-2.961a.04.04,0,0,0-.056-.008.04.04,0,0,0-.008.056l2.2,2.962c.008.01.76.981,1.684.515Z" transform="translate(-53.801 -41.483)" fill="#f07162"/>
        <path id="Path_3151" data-name="Path 3151" d="M68.389,44.462c.424,1.035,2.809-.162,3.765-1.5a3.5,3.5,0,0,1,2.233.068s-.792-1.57-1.6-1.771-3.928.706-4.031,1.185.426.574.426.574-1.215.414-.791,1.449Z" transform="translate(-53.683 -41.226)"/>
        <path id="Path_3152" data-name="Path 3152" d="M77.349,50.44a.08.08,0,0,0,.025.156.087.087,0,0,0,.024,0c1.814-.586,1.127-3.061,1.12-3.086a.08.08,0,0,0-.153.044c.007.023.651,2.351-1.015,2.89Z" transform="translate(-54.325 -41.67)" fill="#21111d"/>
        <path id="Path_3153" data-name="Path 3153" d="M80.315,47.381a.08.08,0,0,0-.054-.15c-.041.014-1.014.387-1.05,3.009a48.059,48.059,0,0,0,1,7.537l.011.049,7.908,1.963-.005-.107c0-.056-.27-5.645-.5-7.565a.08.08,0,1,0-.159.019c.211,1.766.454,6.658.492,7.446l-7.6-1.886a46.991,46.991,0,0,1-.984-7.453c.034-2.484.928-2.855.943-2.86Z" transform="translate(-54.462 -41.654)" fill="#21111d"/>
        <path id="Path_3154" data-name="Path 3154" d="M88.408,54.891a.079.079,0,0,0,.062-.03,6.567,6.567,0,0,0,.582-1.124.08.08,0,0,0-.148-.061,6.632,6.632,0,0,1-.559,1.084.08.08,0,0,0,.062.13Z" transform="translate(-55.114 -42.112)" fill="#21111d"/>
        <path id="Path_3155" data-name="Path 3155" d="M87.951,58.595a.08.08,0,0,0,.11-.026.08.08,0,0,0-.026-.11c-1.455-.9-7.862-2.49-8.134-2.557a.08.08,0,0,0-.038.155c.066.016,6.655,1.648,8.088,2.537Z" transform="translate(-54.505 -42.274)" fill="#21111d"/>
        <path id="Path_3156" data-name="Path 3156" d="M68.2,63.631a.079.079,0,0,0,.055-.1.08.08,0,0,0-.1-.055,4.392,4.392,0,0,0-2.694,2.832c-.871,2.684,5.2,20.262,7.29,25.354l.02.049h.072a21.583,21.583,0,0,0,5.3-.658A.08.08,0,0,0,78.1,90.9a21.269,21.269,0,0,1-5.222.65c-2.1-5.143-8.122-22.554-7.266-25.194A4.227,4.227,0,0,1,68.2,63.631Z" transform="translate(-53.474 -42.815)" fill="#21111d"/>
        <path id="Path_3157" data-name="Path 3157" d="M78.807,80.09l.018,0a.08.08,0,0,0,.06-.1L77.65,74.517a.08.08,0,1,0-.156.035l1.236,5.475A.08.08,0,0,0,78.807,80.09Z" transform="translate(-54.34 -43.599)" fill="#21111d"/>
        <path id="Path_3158" data-name="Path 3158" d="M82.744,77.185a12.034,12.034,0,0,0,1.292.107.08.08,0,0,0,0-.16,31.957,31.957,0,0,1-6.1-1.147.08.08,0,1,0-.045.154,39.7,39.7,0,0,0,4.848,1.047Z" transform="translate(-54.364 -43.708)" fill="#21111d"/>
        <g id="Group_6882" data-name="Group 6882" transform="translate(14.281 18.35)">
          <path id="Path_3159" data-name="Path 3159" d="M68.338,64.469c-.494.43-.415.664-.264.785a.45.45,0,0,0,.4.076c.319-.086,1.118-.3,1.842-.52h0a13.279,13.279,0,0,1,2.512.226l0,0,3.04.629.073-3.933s-3.583-.682-4.112-.735a7.227,7.227,0,0,0-2.949.764c-1.062.739-.456.848-.456.848-1.031.871-.028.929-.028.929-.992.7-.058.936-.058.936Z" transform="translate(-67.939 -60.987)" fill="#fe9f73"/>
          <path id="Path_3160" data-name="Path 3160" d="M68.394,64.749a7.835,7.835,0,0,1,1.17-.509.064.064,0,0,0-.016-.125.069.069,0,0,0-.02,0,7.81,7.81,0,0,0-1.195.52.064.064,0,1,0,.061.113Z" transform="translate(-67.964 -61.21)" fill="#f07162"/>
          <path id="Path_3161" data-name="Path 3161" d="M68.457,63.749a3.967,3.967,0,0,1,1.128-.38.063.063,0,0,0,.053-.073.064.064,0,0,0-.061-.054h-.012a4,4,0,0,0-1.169.394.064.064,0,1,0,.061.112Z" transform="translate(-67.969 -61.148)" fill="#f07162"/>
          <path id="Path_3162" data-name="Path 3162" d="M68.489,62.748a3.4,3.4,0,0,1,.985-.377.064.064,0,0,0-.01-.127h-.013a3.483,3.483,0,0,0-1.028.393.064.064,0,0,0,.066.11Z" transform="translate(-67.971 -61.077)" fill="#f07162"/>
        </g>
        <path id="Path_3163" data-name="Path 3163" d="M67.641,67.945a.08.08,0,0,0-.107.036,4.69,4.69,0,0,0-.417,1.994.08.08,0,0,0,.08.079h0a.08.08,0,0,0,.079-.081,4.61,4.61,0,0,1,.4-1.919.08.08,0,0,0-.036-.107Z" transform="translate(-53.598 -43.134)" fill="#21111d"/>
        <path id="Path_3164" data-name="Path 3164" d="M68.02,68.746a.081.081,0,0,0-.1.046,5.273,5.273,0,0,0-.361,1.8.08.08,0,0,0,.08.074h.006a.08.08,0,0,0,.074-.086,5.216,5.216,0,0,1,.351-1.726.08.08,0,0,0-.046-.1Z" transform="translate(-53.629 -43.191)" fill="#21111d"/>
        <path id="Path_3165" data-name="Path 3165" d="M65.087,69.112a.08.08,0,0,0-.1.048c-.055.153-5.489,15.353-6.8,21.078l-.009.039.026.031a8.157,8.157,0,0,0,5.954,2.453q.16,0,.323-.006a.08.08,0,0,0,.077-.083.078.078,0,0,0-.083-.077,8.066,8.066,0,0,1-6.123-2.361c1.328-5.746,6.734-20.867,6.788-21.02a.08.08,0,0,0-.048-.1Z" transform="translate(-52.959 -43.217)" fill="#21111d"/>
        <g id="Group_6883" data-name="Group 6883" transform="translate(26.342 33.286)">
          <path id="Path_3166" data-name="Path 3166" d="M93.469,77.886h-.533l1.248,17.878h.533Z" transform="translate(-81.785 -77.13)" fill="#f9bb78"/>
          <path id="Path_3167" data-name="Path 3167" d="M82.957,77.886,81.708,95.764h.533L83.49,77.886Z" transform="translate(-80.983 -77.13)" fill="#f9bb78"/>
          <path id="Path_3168" data-name="Path 3168" d="M94.1,78.052a.49.49,0,0,0,0-.98H81.417a.49.49,0,0,0,0,.98Z" transform="translate(-80.927 -77.072)" fill="#4c222e"/>
          <rect id="Rectangle_3629" data-name="Rectangle 3629" width="9.946" height="0.508" transform="translate(1.813 7.066)" fill="#f9bb78"/>
        </g>
        <path id="Path_3169" data-name="Path 3169" d="M68.987,61.808a7.14,7.14,0,0,1,2.9-.751c.52.053,4.07.728,4.106.734,2.23.417,4.329.864,4.349.868h.015a.071.071,0,0,0,.015-.14c-.021,0-2.121-.451-4.353-.869-.147-.028-3.592-.683-4.118-.736a7.209,7.209,0,0,0-3,.776.071.071,0,0,0,.081.117Z" transform="translate(-53.724 -42.632)" fill="#f07162"/>
      </g>
      <path id="Path_3170" data-name="Path 3170" d="M136.364,54.988c1.641-.9,1.4-.919,1.532-.834l.022-.093a23.346,23.346,0,0,0,8.025-8.67h0c8.353-15.729-5.719-34.63-26.067-32.04h0l-.052.007h0C103.394,15.6,93.491,32.073,101.5,46.085a22.5,22.5,0,0,0,3.086,4.17l.2-.2-.125.277c8.125,8.662,21.662,10.176,31.7,4.655Z" transform="translate(-56.465 -13.111)" fill="#fcefe6"/>
      <ellipse id="Ellipse_565" data-name="Ellipse 565" cx="2.085" cy="1.603" rx="2.085" ry="1.603" transform="translate(9.882 20.189)" fill="#cafbff"/>
      <ellipse id="Ellipse_566" data-name="Ellipse 566" cx="1.081" cy="0.848" rx="1.081" ry="0.848" transform="translate(15.202 23.598)" fill="#cafbff"/>
      <ellipse id="Ellipse_567" data-name="Ellipse 567" cx="2.085" cy="1.603" rx="2.085" ry="1.603" transform="translate(36.129 23.451)" fill="#fcefe6"/>
      <ellipse id="Ellipse_568" data-name="Ellipse 568" cx="1.081" cy="0.848" rx="1.081" ry="0.848" transform="translate(32.846 26.86)" fill="#fcefe6"/>
      <g id="Group_6886" data-name="Group 6886" transform="translate(28.614 6.229)">
        <path id="Path_3171" data-name="Path 3171" d="M91.379,26.646a9.03,9.03,0,0,1-1.216.392,7.728,7.728,0,0,0-4.065,2.1,7.577,7.577,0,0,0-1.3,2.6,1.025,1.025,0,0,0,.612,1.216.993.993,0,0,0,.114.037,1.023,1.023,0,0,0,1.253-.725,5.61,5.61,0,0,1,.892-1.82,6.28,6.28,0,0,1,3.041-1.441,10.016,10.016,0,0,0,1.544-.515,3.657,3.657,0,0,0,1.717-1.675,5.054,5.054,0,0,0,.521-2.21,4.183,4.183,0,0,0-1-2.7,5.51,5.51,0,0,0-2.646-1.758,5.848,5.848,0,0,0-3.567-.121,1.024,1.024,0,0,0,.711,1.92,4.174,4.174,0,0,1,2.259.16A3.44,3.44,0,0,1,91.9,23.2a2.182,2.182,0,0,1,.543,1.361,2.215,2.215,0,0,1-1.068,2.082Z" transform="translate(-83.689 -19.819)" fill="#083273"/>
        <path id="Path_3172" data-name="Path 3172" d="M84.3,36.887a1.092,1.092,0,1,0-.614-1.417A1.092,1.092,0,0,0,84.3,36.887Z" transform="translate(-83.606 -20.887)" fill="#083273"/>
        <g id="Group_6885" data-name="Group 6885" transform="translate(1.052 0.185)">
          <path id="Path_3173" data-name="Path 3173" d="M86.116,29.711a7.708,7.708,0,0,1,4.053-2.095.026.026,0,0,0-.014-.049,7.746,7.746,0,0,0-4.078,2.112,7.584,7.584,0,0,0-1.3,2.611,1.05,1.05,0,0,0,.627,1.247c.027.011.055.02.082.029l.035.01a1.048,1.048,0,0,0,1.284-.743.026.026,0,0,0-.05-.013,1,1,0,0,1-1.221.706,1.075,1.075,0,0,1-.111-.036,1,1,0,0,1-.6-1.186,7.535,7.535,0,0,1,1.292-2.592Z" transform="translate(-84.739 -20.558)"/>
          <path id="Path_3174" data-name="Path 3174" d="M92.7,28.632a10.072,10.072,0,0,1-1.54.513.025.025,0,0,0-.018.032.026.026,0,0,0,.017.018.024.024,0,0,0,.014,0,10.1,10.1,0,0,0,1.548-.516,3.682,3.682,0,0,0,1.729-1.687,5.082,5.082,0,0,0,.524-2.221,4.209,4.209,0,0,0-1.009-2.717.026.026,0,1,0-.04.033,4.157,4.157,0,0,1,1,2.684,5.03,5.03,0,0,1-.518,2.2A3.63,3.63,0,0,1,92.7,28.632Z" transform="translate(-85.196 -20.163)"/>
          <path id="Path_3175" data-name="Path 3175" d="M87.427,20.068a.026.026,0,1,0-.018-.048,1.05,1.05,0,0,0,.728,1.969,4.163,4.163,0,0,1,2.23.156l.014,0a3.41,3.41,0,0,1,1.642,1.084,2.152,2.152,0,0,1,.538,1.344.026.026,0,0,0,.018.025h.007a.026.026,0,0,0,.026-.025,2.207,2.207,0,0,0-.549-1.377A3.47,3.47,0,0,0,90.4,22.1l-.014,0a4.194,4.194,0,0,0-2.262-.155,1,1,0,1,1-.693-1.872Z" transform="translate(-84.881 -20.018)"/>
        </g>
        <path id="Path_3176" data-name="Path 3176" d="M85.158,36.883a1.067,1.067,0,0,1-1.419-.512.026.026,0,0,0-.046.022,1.118,1.118,0,0,0,2.024-.95.026.026,0,1,0-.046.022,1.067,1.067,0,0,1-.512,1.419Z" transform="translate(-83.612 -20.934)"/>
      </g>
      <g id="Group_6888" data-name="Group 6888" transform="translate(15.855 8.478)">
        <path id="Path_3177" data-name="Path 3177" d="M74.912,27.374a6.627,6.627,0,0,0,.692-.816A2.4,2.4,0,0,0,76,25.032a3.316,3.316,0,0,0-.462-1.419,2.75,2.75,0,0,0-1.485-1.174,3.62,3.62,0,0,0-2.085-.084A3.841,3.841,0,0,0,69.92,23.5a.673.673,0,0,0,1.054.836,2.744,2.744,0,0,1,1.323-.682,2.262,2.262,0,0,1,1.3.048,1.434,1.434,0,0,1,.77.578,1.455,1.455,0,0,1,.111,1.534,5.859,5.859,0,0,1-.549.635,5.074,5.074,0,0,0-1.564,2.568,4.971,4.971,0,0,0,.16,1.9.673.673,0,0,0,.759.474.737.737,0,0,0,.077-.018.672.672,0,0,0,.456-.834,3.682,3.682,0,0,1-.12-1.326,4.125,4.125,0,0,1,1.215-1.847Z" transform="translate(-69.757 -22.241)" fill="#083273"/>
        <path id="Path_3178" data-name="Path 3178" d="M73.915,34.1a.718.718,0,1,0-.829-.586A.718.718,0,0,0,73.915,34.1Z" transform="translate(-69.993 -22.986)" fill="#083273"/>
        <g id="Group_6887" data-name="Group 6887" transform="translate(0 0.181)">
          <path id="Path_3179" data-name="Path 3179" d="M74.138,26.788a.017.017,0,0,0-.025-.023,5.091,5.091,0,0,0-1.569,2.577,4.991,4.991,0,0,0,.161,1.91.69.69,0,0,0,.778.486l.056-.012.023-.006a.689.689,0,0,0,.468-.855.017.017,0,0,0-.033.01.656.656,0,0,1-.445.814.675.675,0,0,1-.075.017.656.656,0,0,1-.74-.462,4.948,4.948,0,0,1-.16-1.9,5.068,5.068,0,0,1,1.56-2.559Z" transform="translate(-69.952 -22.745)" fill="#083273"/>
          <path id="Path_3180" data-name="Path 3180" d="M75.227,27.376a.017.017,0,0,0,0,.024.016.016,0,0,0,.016,0l.008,0a6.628,6.628,0,0,0,.693-.818,2.419,2.419,0,0,0,.395-1.537,3.337,3.337,0,0,0-.464-1.426,2.765,2.765,0,0,0-1.494-1.181.017.017,0,1,0-.011.032,2.732,2.732,0,0,1,1.476,1.167,3.3,3.3,0,0,1,.46,1.411,2.386,2.386,0,0,1-.389,1.516,6.62,6.62,0,0,1-.69.814Z" transform="translate(-70.084 -22.436)" fill="#083273"/>
          <path id="Path_3181" data-name="Path 3181" d="M69.928,23.586a.017.017,0,0,0-.024,0,.69.69,0,0,0,.62,1.114.684.684,0,0,0,.461-.256,2.739,2.739,0,0,1,1.305-.673l.009,0a2.244,2.244,0,0,1,1.292.048,1.416,1.416,0,0,1,.761.571.017.017,0,0,0,.019.008l0,0a.017.017,0,0,0,.006-.023,1.454,1.454,0,0,0-.779-.586,2.274,2.274,0,0,0-1.312-.049l-.009,0a2.762,2.762,0,0,0-1.323.685.656.656,0,1,1-1.028-.815A.017.017,0,0,0,69.928,23.586Z" transform="translate(-69.755 -22.518)" fill="#083273"/>
        </g>
        <path id="Path_3182" data-name="Path 3182" d="M73.993,34.081a.7.7,0,0,1-.563-.094.017.017,0,0,0-.019.028.735.735,0,1,0,.812-1.224.017.017,0,0,0-.019.028.7.7,0,0,1-.212,1.262Z" transform="translate(-70.016 -22.994)" fill="#083273"/>
      </g>
      <g id="Group_6890" data-name="Group 6890" transform="translate(48.69 4.839)">
        <circle id="Ellipse_569" data-name="Ellipse 569" cx="13.022" cy="13.022" r="13.022" transform="translate(0 18.417) rotate(-45)" fill="#f99247"/>
        <circle id="Ellipse_570" data-name="Ellipse 570" cx="11.263" cy="11.263" r="11.263" transform="translate(2.489 18.417) rotate(-45)" fill="#fecc86"/>
        <path id="Path_3183" data-name="Path 3183" d="M129.032,38.5a6.751,6.751,0,0,0-2.391-1.883q-.376-.206-1.039-.546-2.156-1.109-2.055-2.1a1.237,1.237,0,0,1,.56-.962,1.948,1.948,0,0,1,1.292-.244,2.336,2.336,0,0,1,1.34.537,3.188,3.188,0,0,1,.841,1.369l2.3-.588a4.151,4.151,0,0,0-1.405-2.287,4.436,4.436,0,0,0-1.624-.8l.174-1.716-2.162-.219-.174,1.722a4.19,4.19,0,0,0-2.075.69,3.19,3.19,0,0,0-1.434,2.436,3.464,3.464,0,0,0,.225,1.7,3.228,3.228,0,0,0,1.013,1.32,14.621,14.621,0,0,0,2.544,1.458q.27.124.412.2a4.5,4.5,0,0,1,1.429.961,1.354,1.354,0,0,1,.317,1.051,1.459,1.459,0,0,1-.69,1.148,2.758,2.758,0,0,1-3.041-.339,4.2,4.2,0,0,1-.995-1.632l-2.319.762a4.871,4.871,0,0,0,1.647,2.514,4.989,4.989,0,0,0,1.638.835l-.187,1.848,2.162.219.18-1.771a4.344,4.344,0,0,0,2.508-.739,3.581,3.581,0,0,0,1.466-2.711,3.338,3.338,0,0,0-.457-2.235Z" transform="translate(-106.684 -19.089)" fill="#f99247"/>
        <g id="Group_6889" data-name="Group 6889" transform="translate(7.841 11.45)" opacity="0.3" style="mix-blend-mode: multiply;isolation: isolate">
          <path id="Path_3184" data-name="Path 3184" d="M133.52,30.652C128.99,39.019,119.268,41.032,114.1,41.5A11.263,11.263,0,1,0,133.52,30.653Z" transform="translate(-114.097 -30.652)" fill="#fec786"/>
        </g>
        <path id="Path_3185" data-name="Path 3185" d="M116.753,47.731a13.016,13.016,0,0,0,6.4,2.447.075.075,0,0,0,.015-.149,12.948,12.948,0,0,1,2.611-25.764.075.075,0,0,0,.015-.149,13.106,13.106,0,0,0-9.046,23.614Z" transform="translate(-106.062 -18.731)" fill="#21111d"/>
        <path id="Path_3186" data-name="Path 3186" d="M124.213,48.554a.075.075,0,0,0,.036.014,11.337,11.337,0,1,0,2.287-22.559.075.075,0,0,0-.015.149,11.188,11.188,0,1,1-2.256,22.262.075.075,0,0,0-.052.135Z" transform="translate(-106.977 -18.871)" fill="#21111d"/>
        <path id="Path_3187" data-name="Path 3187" d="M117.838,30.066l.007,0a.075.075,0,0,0,.1-.028,5.937,5.937,0,0,1,3.3-2.554.075.075,0,0,0-.036-.145,6.094,6.094,0,0,0-3.395,2.624.075.075,0,0,0,.021.1Z" transform="translate(-106.522 -18.966)" fill="#21111d"/>
        <path id="Path_3188" data-name="Path 3188" d="M118.849,31.065l.007,0a.075.075,0,0,0,.1-.028,5.935,5.935,0,0,1,3.3-2.553.075.075,0,0,0-.036-.145,6.1,6.1,0,0,0-3.395,2.624.075.075,0,0,0,.021.1Z" transform="translate(-106.594 -19.037)" fill="#21111d"/>
        <path id="Path_3189" data-name="Path 3189" d="M122.759,31.525a.075.075,0,0,0,.086,0,4.13,4.13,0,0,1,2.038-.677l.062,0,.181-1.784a.075.075,0,1,0-.149-.015l-.168,1.66a4.263,4.263,0,0,0-2.049.7.075.075,0,0,0-.02.1.071.071,0,0,0,.018.018Z" transform="translate(-106.873 -19.083)" fill="#21111d"/>
        <path id="Path_3190" data-name="Path 3190" d="M123.764,34.174a.075.075,0,0,0,.119-.053,1.156,1.156,0,0,1,.527-.907,1.885,1.885,0,0,1,1.243-.232,2.269,2.269,0,0,1,1.3.519,3.13,3.13,0,0,1,.82,1.338l.023.065,2.44-.623-.019-.073a4.243,4.243,0,0,0-1.431-2.326,4.518,4.518,0,0,0-1.652-.816.075.075,0,1,0-.04.144,4.371,4.371,0,0,1,1.6.788,4.066,4.066,0,0,1,1.36,2.174l-2.162.552a3.213,3.213,0,0,0-.839-1.336,2.415,2.415,0,0,0-1.381-.555,2.026,2.026,0,0,0-1.34.256,1.312,1.312,0,0,0-.594,1.017.075.075,0,0,0,.03.068Z" transform="translate(-106.945 -19.232)" fill="#21111d"/>
        <path id="Path_3191" data-name="Path 3191" d="M125.69,46.906a.075.075,0,0,0,.119-.053l.173-1.7a4.405,4.405,0,0,0,2.484-.752,3.669,3.669,0,0,0,1.5-2.764.075.075,0,1,0-.149-.015,3.526,3.526,0,0,1-1.435,2.657,4.286,4.286,0,0,1-2.466.726h-.067l-.186,1.837a.075.075,0,0,0,.03.068Z" transform="translate(-107.082 -19.981)" fill="#21111d"/>
        <path id="Path_3192" data-name="Path 3192" d="M121.785,44a5.134,5.134,0,0,0,1.546.76.075.075,0,1,0,.044-.143,4.918,4.918,0,0,1-1.614-.823,4.794,4.794,0,0,1-1.6-2.407l2.182-.717a4.211,4.211,0,0,0,.989,1.594,2.832,2.832,0,0,0,3.132.347,1.537,1.537,0,0,0,.724-1.2,1.432,1.432,0,0,0-.334-1.107.075.075,0,1,0-.115.1,1.288,1.288,0,0,1,.3,1,1.376,1.376,0,0,1-.655,1.092,2.685,2.685,0,0,1-2.951-.331,4.15,4.15,0,0,1-.976-1.6l-.025-.067-2.457.807.021.07a4.967,4.967,0,0,0,1.673,2.552l.116.088Z" transform="translate(-106.676 -19.89)" fill="#21111d"/>
      </g>
    </g>
  </g>
</svg>
