<svg xmlns="http://www.w3.org/2000/svg" xmlns:xlink="http://www.w3.org/1999/xlink" width="24" height="24" viewBox="0 0 24 24">
  <defs>
    <clipPath id="clip-path">
      <rect id="Rectangle_3492" data-name="Rectangle 3492" width="24" height="24" transform="translate(0.111)" fill="#fff"/>
    </clipPath>
  </defs>
  <g id="Mask_Group_133" data-name="Mask Group 133" transform="translate(-0.111)" clip-path="url(#clip-path)">
    <path id="investment" d="M25.263,4.737H5.053A1.9,1.9,0,0,0,3.158,6.632V19.895a1.9,1.9,0,0,0,1.895,1.895h7.579v2.526H11.368a.632.632,0,1,0,0,1.263h7.579a.632.632,0,0,0,0-1.263H17.684V21.789h7.579a1.9,1.9,0,0,0,1.895-1.895V6.632A1.9,1.9,0,0,0,25.263,4.737ZM16.421,24.316H13.895V21.789h2.526Zm9.474-4.421a.632.632,0,0,1-.632.632H5.053a.632.632,0,0,1-.632-.632v-.632H25.895Zm0-1.895H4.421V6.632A.632.632,0,0,1,5.053,6H25.263a.632.632,0,0,1,.632.632ZM8.842,9.158H8.211V8.526a.632.632,0,1,0-1.263,0v.632H6.316a.632.632,0,0,0-.632.632v5.053a.632.632,0,0,0,.632.632h.632v.632a.632.632,0,0,0,1.263,0v-.632h.632a.632.632,0,0,0,.632-.632V9.789A.632.632,0,0,0,8.842,9.158Zm-.632,5.053H6.947V10.421H8.211Zm5.684-3.158h-.632v-.632a.632.632,0,0,0-1.263,0v.632h-.632a.632.632,0,0,0-.632.632v3.158a.632.632,0,0,0,.632.632H12v.632a.632.632,0,0,0,1.263,0v-.632h.632a.632.632,0,0,0,.632-.632V11.684A.632.632,0,0,0,13.895,11.053Zm-.632,3.158H12V12.316h1.263Zm5.684-5.684h-.632V7.895a.632.632,0,0,0-1.263,0v.632h-.632a.632.632,0,0,0-.632.632v5.684a.632.632,0,0,0,.632.632h.632v.632a.632.632,0,1,0,1.263,0v-.632h.632a.632.632,0,0,0,.632-.632V9.158A.632.632,0,0,0,18.947,8.526Zm-.632,5.684H17.053V9.789h1.263ZM24,9.789h-.632V9.158a.632.632,0,0,0-1.263,0v.632h-.632a.632.632,0,0,0-.632.632v4.421a.632.632,0,0,0,.632.632h.632v.632a.632.632,0,0,0,1.263,0v-.632H24a.632.632,0,0,0,.632-.632V10.421A.632.632,0,0,0,24,9.789Zm-.632,4.421H22.105V11.053h1.263Z" transform="translate(-3.158 -3.158)" fill="#fff"/>
  </g>
</svg>
