<svg xmlns="http://www.w3.org/2000/svg" xmlns:xlink="http://www.w3.org/1999/xlink" width="40" height="40" viewBox="0 0 40 40">
  <defs>
    <clipPath id="clip-path">
      <rect id="Rectangle_3640" data-name="Rectangle 3640" width="24" height="24" transform="translate(32 208)" fill="#1aa7e1" stroke="#707070" stroke-width="1"/>
    </clipPath>
  </defs>
  <g id="Group_6919" data-name="Group 6919" transform="translate(-24 -200)">
    <circle id="Ellipse_438" data-name="Ellipse 438" cx="20" cy="20" r="20" transform="translate(24 200)" fill="#fff"/>
    <g id="Mask_Group_143" data-name="Mask Group 143" clip-path="url(#clip-path)">
      <path id="loan_2_" data-name="loan (2)" d="M6,24a.6.6,0,1,1-.6.6A.6.6,0,0,1,6,24Zm4.8,0h-3a.6.6,0,0,0,0,1.2h3a.6.6,0,1,0,0-1.2Zm.966-16.182a8.492,8.492,0,0,0-2.4,1.758,11.065,11.065,0,0,0-1.44,1.83H4.8a.6.6,0,0,0,0,1.2H7.248a11.9,11.9,0,0,0-1.218,4.2H4.8a.6.6,0,1,0,0,1.2H6.012c.234,4.338,3.864,6,8.388,6a13.822,13.822,0,0,0,3.594-.432,4.8,4.8,0,1,0,4.62-7.86,12.272,12.272,0,0,0-3.7-6.624,8.2,8.2,0,0,0-1.89-1.266l.93-2.508a.6.6,0,0,0-.162-.654,5.153,5.153,0,0,0-3.4-1.056,5.153,5.153,0,0,0-3.4,1.056.6.6,0,0,0-.162.654l.93,2.508ZM21.6,16.8A3.6,3.6,0,1,1,18,20.4,3.6,3.6,0,0,1,21.6,16.8Zm-.234-1.194a11.031,11.031,0,0,0-3.24-5.622A5.682,5.682,0,0,0,14.4,8.4a5.956,5.956,0,0,0-4.176,2.01A10.862,10.862,0,0,0,7.2,17.55c0,3.936,3.264,5.25,7.2,5.25a13.334,13.334,0,0,0,2.886-.288,4.806,4.806,0,0,1,4.08-6.906ZM5.4,21H3a.6.6,0,0,0,0,1.2H5.4a.6.6,0,0,0,0-1.2ZM21,18.6v1.8a.6.6,0,0,0,.6.6h1.8a.6.6,0,0,0,0-1.2H22.2V18.6a.6.6,0,0,0-1.2,0Zm-7.2-4.77a1.5,1.5,0,0,0,.3,2.97h.6a.281.281,0,0,1,.21.09.306.306,0,0,1,.09.21.281.281,0,0,1-.09.21.306.306,0,0,1-.21.09H13.2a.6.6,0,1,0,0,1.2h.6v.6a.6.6,0,1,0,1.2,0v-.63a1.5,1.5,0,0,0-.3-2.97h-.6a.282.282,0,0,1-.21-.09.306.306,0,0,1-.09-.21.281.281,0,0,1,.09-.21A.306.306,0,0,1,14.1,15h1.5a.6.6,0,0,0,0-1.2H15v-.6a.6.6,0,0,0-1.2,0ZM3,16.8a.6.6,0,1,1-.6.6A.6.6,0,0,1,3,16.8ZM15.906,7.4c.2-.546.768-2.07.768-2.07A4.647,4.647,0,0,0,14.4,4.794a4.647,4.647,0,0,0-2.274.534l.768,2.07A5.8,5.8,0,0,1,14.4,7.2,6.03,6.03,0,0,1,15.906,7.4ZM4.8,5.4a.6.6,0,1,1-.6.6A.6.6,0,0,1,4.8,5.4Zm4.8,0h-3a.6.6,0,1,0,0,1.2h3a.6.6,0,1,0,0-1.2Z" transform="translate(29.6 205.594)" fill="#1aa7e1" fill-rule="evenodd"/>
    </g>
  </g>
</svg>
