<svg xmlns="http://www.w3.org/2000/svg" width="328" height="173" viewBox="0 0 328 173">
  <g id="Group_4224" data-name="Group 4224" transform="translate(0 0)">
    <rect id="background" width="328" height="173" rx="13" transform="translate(0 0)" fill="#315e5f"/>
    <path id="Intersection_5" data-name="Intersection 5" d="M0,146.677V13A13,13,0,0,1,13,0H158.816A120.1,120.1,0,0,1,44,155,119.682,119.682,0,0,1,0,146.677Z" transform="translate(0 0)" fill="#4d834d"/>
    <g id="stars" transform="translate(226.275 41.793)" opacity="0.346">
      <path id="Path_2473" data-name="Path 2473" d="M-189,328.5l-3.5,6.6,3.5,6.6-7.4-1.3-5.2,5.3-1-7.3-6.6-3.3,6.6-3.3,1-7.3,5.2,5.3Z" transform="translate(247.9 -256.287)" fill="#00acea"/>
      <path id="Path_2474" data-name="Path 2474" d="M-218.9,324.8l-3.6,6.9,3.6,6.9-7.7-1.2-5.5,5.5-1.2-7.7-7-3.5,7-3.5,1.2-7.8,5.5,5.7Z" transform="translate(247.9 -256.287)" fill="#00efd1"/>
      <path id="Path_2475" data-name="Path 2475" d="M-227.4,291.4l-3.5,6.5,3.5,6.7-7.4-1.2-5.2,5.3-1.2-7.4-6.7-3.4,6.7-3.3,1.2-7.4,5.2,5.4Z" transform="translate(247.9 -256.287)" fill="#00acea"/>
      <path id="Path_2476" data-name="Path 2476" d="M-230,284a1.974,1.974,0,0,1-1.4-.6,1.9,1.9,0,0,1-.1-2.7l.1-.1,6-6a2.052,2.052,0,0,1,2.9,0,2.265,2.265,0,0,1,0,2.9l-6.1,5.9A1.974,1.974,0,0,1-230,284Zm11.3-11.2a1.974,1.974,0,0,1-1.4-.6,1.9,1.9,0,0,1-.1-2.7l.1-.1,4.6-4.6a1.956,1.956,0,0,1,2.8-.4,1.956,1.956,0,0,1,.4,2.8.781.781,0,0,1-.4.4l-4.6,4.6A1.974,1.974,0,0,1-218.7,272.8Zm9.1-9.1a1.974,1.974,0,0,1-1.4-.6,1.9,1.9,0,0,1-.1-2.7l.1-.1,3.3-3.4a2.026,2.026,0,0,1,2.8-.1,2.149,2.149,0,0,1,.1,2.9l-3.3,3.4A2.035,2.035,0,0,1-209.6,263.7Zm-7.8,28a1.974,1.974,0,0,1-1.4-.6,2.052,2.052,0,0,1,0-2.9l10.9-11a2.129,2.129,0,0,1,2.8,0,2.149,2.149,0,0,1,.1,2.9l-10.9,11A2.035,2.035,0,0,1-217.4,291.7Zm16.9-16.9a1.974,1.974,0,0,1-1.4-.6,1.9,1.9,0,0,1-.1-2.7l.1-.1,8.1-8.2a2.026,2.026,0,0,1,2.8-.1,2.052,2.052,0,0,1,0,2.9l-8.1,8.2A1.974,1.974,0,0,1-200.5,274.8Z" transform="translate(247.9 -256.287)" fill="#00efd1"/>
      <path id="Path_2477" data-name="Path 2477" d="M-219.3,320.5a2.389,2.389,0,0,1-1.4-.5,2.052,2.052,0,0,1,0-2.9l18.9-18.9a1.956,1.956,0,0,1,2.8.4,2.107,2.107,0,0,1,0,2.4l-18.9,19A2.389,2.389,0,0,1-219.3,320.5Zm22.6-22.6a1.974,1.974,0,0,1-1.4-.6,1.9,1.9,0,0,1-.1-2.7l.1-.1,15.9-15.9a2.129,2.129,0,0,1,2.8,0,2.052,2.052,0,0,1,0,2.9l-15.9,15.8A1.974,1.974,0,0,1-196.7,297.9Z" transform="translate(247.9 -256.287)" fill="#00acea"/>
      <path id="Path_2478" data-name="Path 2478" d="M-195.5,322.2a1.974,1.974,0,0,1-1.4-.6,2.129,2.129,0,0,1,0-2.8l11-11a2.052,2.052,0,0,1,2.9,0,2.129,2.129,0,0,1,0,2.8l-11,11A2.035,2.035,0,0,1-195.5,322.2Zm16.3-16.1a1.974,1.974,0,0,1-1.4-.6,1.9,1.9,0,0,1-.1-2.7l.1-.1,4.6-4.7a1.956,1.956,0,0,1,2.8-.4,1.956,1.956,0,0,1,.4,2.8.781.781,0,0,1-.4.4l-4.6,4.7A1.974,1.974,0,0,1-179.2,306.1Zm-1.5,21.7a1.974,1.974,0,0,1-1.4-.6,1.9,1.9,0,0,1-.1-2.7l.1-.1,10.9-11.1a2.052,2.052,0,0,1,2.9,0,1.9,1.9,0,0,1,.1,2.7l-.1.1-11,11.1A1.974,1.974,0,0,1-180.7,327.8Zm15.5-15.6a1.974,1.974,0,0,1-1.4-.6,2.052,2.052,0,0,1,0-2.9l9-8.9a2.052,2.052,0,0,1,2.9,0,2.129,2.129,0,0,1,0,2.8l-9.1,9A1.974,1.974,0,0,1-165.2,312.2Z" transform="translate(247.9 -256.287)" fill="#00efd1"/>
    </g>
  </g>
</svg>
