<svg id="Component_26_15" data-name="Component 26 – 15" xmlns="http://www.w3.org/2000/svg" xmlns:xlink="http://www.w3.org/1999/xlink" width="22" height="22" viewBox="0 0 22 22">
  <defs>
    <clipPath id="clip-path">
      <path id="Path_1714" data-name="Path 1714" d="M58.97-46.726C64.5-46.726,69-42.85,69-38.087a3.53,3.53,0,0,1-3.747,3.247,3.53,3.53,0,0,1-3.747-3.247,2.368,2.368,0,0,0-2.53-2.144,2.364,2.364,0,0,0-2.53,2.144,6.662,6.662,0,0,0,2.275,4.973A8.454,8.454,0,0,0,62.7-31.081a.549.549,0,0,1,.426.678.6.6,0,0,1-.584.4.5.5,0,0,1-.158-.022,9.568,9.568,0,0,1-4.519-2.315,7.71,7.71,0,0,1-2.634-5.755,3.526,3.526,0,0,1,3.747-3.247,3.526,3.526,0,0,1,3.747,3.247,2.368,2.368,0,0,0,2.53,2.144,2.364,2.364,0,0,0,2.53-2.144c0-4.157-3.954-7.536-8.814-7.536a9.016,9.016,0,0,0-8.041,4.443,6.525,6.525,0,0,0-.712,3.093,10.081,10.081,0,0,0,.809,3.975.542.542,0,0,1-.359.711.633.633,0,0,1-.785-.325A11.263,11.263,0,0,1,49-38.093a7.523,7.523,0,0,1,.833-3.567A10.262,10.262,0,0,1,58.97-46.726Zm-.053,2.712c3.815,0,6.917,2.645,6.917,5.9a.583.583,0,0,1-.61.548.583.583,0,0,1-.61-.548c0-2.65-2.552-4.808-5.7-4.808s-5.7,2.158-5.7,4.808a7.967,7.967,0,0,0,1.129,4.222,10.6,10.6,0,0,0,2.253,2.65.5.5,0,0,1-.006.772.578.578,0,0,1-.421.164.642.642,0,0,1-.433-.164,11.713,11.713,0,0,1-2.454-2.886A8.954,8.954,0,0,1,52-38.11C52-41.363,55.1-44.014,58.917-44.014Zm.026,5.425a.583.583,0,0,1,.61.548,4.641,4.641,0,0,0,2.365,3.9,5.762,5.762,0,0,0,3.091.784,8.883,8.883,0,0,0,1.274-.1.61.61,0,0,1,.707.444.558.558,0,0,1-.494.636,9.692,9.692,0,0,1-1.488.121,7.177,7.177,0,0,1-3.78-.97,5.715,5.715,0,0,1-2.9-4.811A.583.583,0,0,1,58.943-38.589ZM52.7-47.928a15.343,15.343,0,0,1,12.6-.011,12.517,12.517,0,0,1,4.582,3.616.522.522,0,0,1-.141.773.654.654,0,0,1-.855-.128,11.232,11.232,0,0,0-4.142-3.271,13.991,13.991,0,0,0-11.486.011,11.223,11.223,0,0,0-4.148,3.3.645.645,0,0,1-.5.228.681.681,0,0,1-.354-.1.523.523,0,0,1-.147-.773A12.45,12.45,0,0,1,52.7-47.928ZM59.006-52a16.557,16.557,0,0,1,7.332,1.674.527.527,0,0,1,.261.741.627.627,0,0,1-.541.3h0l-.1-.007a.762.762,0,0,1-.184-.053A15.1,15.1,0,0,0,59.006-50.9a15.182,15.182,0,0,0-6.773,1.548.645.645,0,0,1-.827-.22.524.524,0,0,1,.243-.747A16.529,16.529,0,0,1,59.006-52Z" transform="translate(-48 52)" fill="#083273"/>
    </clipPath>
  </defs>
  <g id="Group_187" data-name="Group 187" clip-path="url(#clip-path)">
    <path id="Path_1713" data-name="Path 1713" d="M47-53H70.653v23.467H47Z" transform="translate(-47.786 52.267)" fill="#083273"/>
  </g>
</svg>
