<svg id="visalogo" xmlns="http://www.w3.org/2000/svg" width="71.813" height="71.813" viewBox="0 0 71.813 71.813">
  <g id="Group_46" data-name="Group 46" transform="translate(5.688 4.104)">
    <path id="Path_67" data-name="Path 67" d="M26.2,19.28H21.268L24.351.338h4.932ZM17.12.338l-4.7,13.028-.556-2.805h0L10.2,2.044A2.111,2.111,0,0,0,7.864.338H.091L0,.659A18.449,18.449,0,0,1,5.159,2.824L9.443,19.281h5.138L22.427.338ZM55.909,19.28h4.528L56.489.338H52.524A2.266,2.266,0,0,0,50.248,1.75L42.893,19.28h5.141l1.028-2.814h6.269l.578,2.814Zm-5.427-6.7,2.591-7.088,1.458,7.088Zm-7.2-7.686.7-4.068A14.234,14.234,0,0,0,39.547,0C37.1,0,31.288,1.07,31.288,6.271c0,4.894,6.821,4.954,6.821,7.525s-6.118,2.11-8.137.489l-.733,4.253a13.82,13.82,0,0,0,5.566,1.07c3.365,0,8.442-1.742,8.442-6.485,0-4.925-6.882-5.383-6.882-7.525s4.8-1.867,6.914-.7Z" transform="translate(0)" fill="#fff"/>
  </g>
  <path id="Path_68" data-name="Path 68" d="M11.862,10.224,10.2,1.705A2.111,2.111,0,0,0,7.864,0H.091L0,.321A19.107,19.107,0,0,1,7.319,4,14.77,14.77,0,0,1,11.862,10.224Z" transform="translate(5.688 4.442)" fill="#fff"/>
  <path id="Path_69" data-name="Path 69" d="M0,0H71.813V71.813H0Z" transform="translate(0 0)" fill="none"/>
</svg>
