<svg xmlns="http://www.w3.org/2000/svg" xmlns:xlink="http://www.w3.org/1999/xlink" width="24" height="24" viewBox="0 0 24 24">
  <defs>
    <clipPath id="clip-path">
      <rect id="Rectangle_3493" data-name="Rectangle 3493" width="24" height="24" fill="#fff"/>
    </clipPath>
  </defs>
  <g id="Mask_Group_135" data-name="Mask Group 135" clip-path="url(#clip-path)">
    <path id="support" d="M18.656,7.415a1.263,1.263,0,0,0,1.718-.467,1.265,1.265,0,1,1,1.1,1.895,1.263,1.263,0,0,0,0,2.526,3.789,3.789,0,1,0-3.284-5.684,1.263,1.263,0,0,0,.467,1.73Zm5.431,9.006a1.263,1.263,0,0,0-1.415,1.086,8.842,8.842,0,0,1-8.779,7.756H6.834l.821-.821a1.263,1.263,0,0,0,0-1.781,8.842,8.842,0,0,1,6.24-15.082,1.263,1.263,0,1,0,0-2.526A11.368,11.368,0,0,0,5.053,23.507l-2.16,2.122a1.271,1.271,0,0,0,.9,2.16H13.894a11.369,11.369,0,0,0,11.28-9.942,1.263,1.263,0,0,0-1.086-1.426Zm-2.135-3.7a1.263,1.263,0,0,0-.733-.088l-.227.076-.227.114-.189.164a1.263,1.263,0,0,0-.265.4,1.061,1.061,0,0,0-.1.505,1.263,1.263,0,1,0,2.526,0,1.061,1.061,0,0,0-.1-.48,1.352,1.352,0,0,0-.682-.682Z" transform="translate(-1.895 -3.789)" fill="#fff"/>
  </g>
</svg>
