<svg xmlns="http://www.w3.org/2000/svg" width="328" height="173" viewBox="0 0 328 173">
  <g id="Group_4220" data-name="Group 4220" transform="translate(0)">
    <rect id="background" width="328" height="173" rx="13" transform="translate(0)" fill="#8e8e8e"/>
    <path id="Path_2465" data-name="Path 2465" d="M8.276,0H53.8C70.707,0,84.417,16.565,84.417,37l36.577,136H8.276C3.705,173,0,168.523,0,163V10C0,4.477,3.705,0,8.276,0Z" fill="#7fa1a9"/>
    <path id="Path_2468" data-name="Path 2468" d="M-10830.011-13067.3h97.329s34.036,34.754,49.376,62.184,11.984,47.537,11.984,47.537-8,28.512-34.575,41-64.188,15.58-74.278,6.262,24.807-22.258,11.714-62.18S-10830.011-13067.3-10830.011-13067.3Z" transform="translate(10999.011 13067.306)" fill="#e5b38b"/>
    <path id="Path_2467" data-name="Path 2467" d="M-10901.8-13067.589h70.2s31.672,18.169,49.187,45.643,26.728,48.408,19.32,65.269-95.192,3.356-95.192,3.356Z" transform="translate(11008 13067.589)" fill="#8fa8d9"/>
    <path id="Path_2466" data-name="Path 2466" d="M-10932.113-13067.292s-29.494,29.823-23.254,73.057,48.209,99.877,48.209,99.877h72.121s21.967-33.471,24.8-53.834-4.557-21.71-13.469-27.616-37.984,3.824-51.236,0-29.578-91.334-34.668-91.483S-10932.113-13067.292-10932.113-13067.292Z" transform="translate(11034 13067.358)" fill="#121158"/>
  </g>
</svg>
